# Made in Blockbench 4.10.4
mtllib speed_75_large.mtl

o circle
v -0.03124999999999992 -0.3035254037844386 0.36602540378443865
v -0.03124999999999989 -0.43749999999999994 0.13397459621556132
v -0.03125 0.0625 0
v -0.03124999999999989 -0.43749999999999994 -0.13397459621556138
v -0.03124999999999992 -0.30352540378443865 -0.3660254037844386
v -0.03124999999999997 -0.07147459621556149 -0.4999999999999999
v -0.03125000000000003 0.19647459621556113 -0.5
v -0.03125000000000008 0.4285254037844386 -0.3660254037844387
v -0.03125000000000011 0.5625 -0.13397459621556126
v -0.03125000000000011 0.5625 0.1339745962155611
v -0.03125000000000008 0.4285254037844387 0.36602540378443854
v -0.03125000000000003 0.1964745962155613 0.49999999999999994
v -0.03124999999999997 -0.07147459621556132 0.49999999999999994
vt 8.673617379884035e-19 0.991911913763006
vt 0.00404404311849697 0.9929954996624571
vt 0 1
vt 0.0078125 0.99581328125
vt 0.0078125 1
vt 0 0.997906640625
vt 0.008088096792379552 0.9959559621591889
vt 0.007004491196306773 1
vt 0 0.9959559621591889
vt 0.00808808623699394 0.9959559568815031
vt 0.007004500337542835 1
vt 0 0.9959559568815031
vt 0.00418671875 1
vt 0 1
vt 0.002093359375 0.9921875
vt 0.004044037840811051 1
vt 0 0.9989163944039272
vt 0.00404403784081105 0.9919119032076205
vt 0.004044043118496969 1
vt 0 0.9989164141005489
vt 0.00404404311849697 0.991911913763006
vt 0 1
vt 0 0.99581328125
vt 0.0078125 0.997906640625
vt 0 1
vt 0.0010836055960727793 0.9959559621591889
vt 0.008088096792379552 1
vt 0 1
vt 0.0010835858994511045 0.9959559568815031
vt 0.00808808623699394 1
vt 0 0.9921875
vt 0.00418671875 0.9921875
vt 0.002093359375 1
vt 0 0.9919119032076205
vt 0.004044037840811051 0.9929955088036932
vt 1.3010426069826053e-18 1
vn 1 2.235212912059389e-16 5.511068227187118e-18
vn 1 2.2204460492503136e-16 0
vn 1 2.2352129120593896e-16 -5.511068227187167e-18
vn 1 2.1249915475156468e-16 5.511068227187074e-18
vn 1 2.2011858908054983e-16 3.4694469519535194e-18
vn 1 2.3492601239732264e-16 7.437084071668594e-18
vn 1 2.200518442539853e-16 -7.437084071668766e-18
vn 1 2.220446049250313e-16 0
vn 1 2.2005184425398534e-16 7.437084071668678e-18
vn 1 2.3492601239732264e-16 -7.437084071668676e-18
vn 1 2.2011858908054983e-16 -3.469446951953612e-18
vn 1 2.1249915475156466e-16 -5.511068227187148e-18
usemtl m_8898506b-ec74-b50c-391a-de6280e913b8
f 1/1/1 2/2/1 3/3/1
f 2/4/2 4/5/2 3/6/2
f 4/7/3 5/8/3 3/9/3
f 5/10/4 6/11/4 3/12/4
f 6/13/5 7/14/5 3/15/5
f 7/16/6 8/17/6 3/18/6
f 8/19/7 9/20/7 3/21/7
f 9/22/8 10/23/8 3/24/8
f 10/25/9 11/26/9 3/27/9
f 11/28/10 12/29/10 3/30/10
f 12/31/11 13/32/11 3/33/11
f 13/34/12 1/35/12 3/36/12
o cube
v 0.014062499999999978 -0.4375 -0.5
v -0.03281250000000002 -0.4375 -0.5
v -0.03281250000000002 0.5625 -0.5
v 0.014062499999999978 0.5625 -0.5
v 0.014062499999999978 -0.4375 0.5
v 0.014062499999999978 0.5625 0.5
v -0.03281250000000002 -0.4375 0.5
v -0.03281250000000002 0.5625 0.5
vt 0 0.8714285714285714
vt 0.05063244047619048 0.8714285714285714
vt 0.05063244047619048 1
vt 0 1
vt 0.06904761904761905 0.9833333333333333
vt 0 0.9833333333333333
vt 0 1
vt 0.06904761904761905 1
vt 0 0.8714285714285714
vt 0.05063244047619048 0.8714285714285714
vt 0.05063244047619048 1
vt 0 1
vt 0 0
vt 1 0
vt 1 1
vt 0 1
vt 0 0.8714285714285714
vt 0.05063244047619048 0.8714285714285714
vt 0.05063244047619048 1
vt 0 1
vt 0 0.8714285714285714
vt 0.05063244047619048 0.8714285714285714
vt 0.05063244047619048 1
vt 0 1
vn 0 0 -1
vn 1 0 0
vn 0 0 1
vn -1 0 0
vn 0 1 0
vn 0 -1 0
usemtl m_bf6194d5-9b54-c6ef-2d3b-23786ae8f93c
f 14/37/13 15/38/13 16/39/13 17/40/13
f 18/41/14 14/42/14 17/43/14 19/44/14
f 20/45/15 18/46/15 19/47/15 21/48/15
f 15/49/16 20/50/16 21/51/16 16/52/16
f 21/53/17 19/54/17 17/55/17 16/56/17
f 15/57/18 14/58/18 18/59/18 20/60/18
o cube
v 0.03125 -0.25 -0.046875
v -0.03125 -0.25 -0.046875
v -0.03125 -0.125 -0.046875
v 0.03125 -0.125 -0.046875
v 0.03125 -0.25 0.046875
v 0.03125 -0.125 0.046875
v -0.03125 -0.25 0.046875
v -0.03125 -0.125 0.046875
vt 0 0.998046875
vt 0.0009765625 0.998046875
vt 0.0009765625 1
vt 0 1
vt 0 0.998046875
vt 0.00146484375 0.998046875
vt 0.00146484375 1
vt 0 1
vt 0 0.998046875
vt 0.0009765625 0.998046875
vt 0.0009765625 1
vt 0 1
vt 0 0.998046875
vt 0.00146484375 0.998046875
vt 0.00146484375 1
vt 0 1
vt 0 0.99853515625
vt 0.0009765625 0.99853515625
vt 0.0009765625 1
vt 0 1
vt 0 0.99853515625
vt 0.0009765625 0.99853515625
vt 0.0009765625 1
vt 0 1
vn 0 0 -1
vn 1 0 0
vn 0 0 1
vn -1 0 0
vn 0 1 0
vn 0 -1 0
usemtl m_8898506b-ec74-b50c-391a-de6280e913b8
f 22/61/19 23/62/19 24/63/19 25/64/19
f 26/65/20 22/66/20 25/67/20 27/68/20
f 28/69/21 26/70/21 27/71/21 29/72/21
f 23/73/22 28/74/22 29/75/22 24/76/22
f 29/77/23 27/78/23 25/79/23 24/80/23
f 23/81/24 22/82/24 26/83/24 28/84/24
o cube
v 0.046875 -0.25 -0.03125
v 0.03125 -0.25 -0.03125
v 0.03125 -0.125 -0.03125
v 0.046875 -0.125 -0.03125
v 0.046875 -0.25 0.03125
v 0.046875 -0.125 0.03125
v 0.03125 -0.25 0.03125
v 0.03125 -0.125 0.03125
vt 0 0.998046875
vt 0.000244140625 0.998046875
vt 0.000244140625 1
vt 0 1
vt 0 0.998046875
vt 0.0009765625 0.998046875
vt 0.0009765625 1
vt 0 1
vt 0 0.998046875
vt 0.000244140625 0.998046875
vt 0.000244140625 1
vt 0 1
vt 0 0.998046875
vt 0.0009765625 0.998046875
vt 0.0009765625 1
vt 0 1
vt 0 0.9990234375
vt 0.000244140625 0.9990234375
vt 0.000244140625 1
vt 0 1
vt 0 0.9990234375
vt 0.000244140625 0.9990234375
vt 0.000244140625 1
vt 0 1
vn 0 0 -1
vn 1 0 0
vn 0 0 1
vn -1 0 0
vn 0 1 0
vn 0 -1 0
usemtl m_8898506b-ec74-b50c-391a-de6280e913b8
f 30/85/25 31/86/25 32/87/25 33/88/25
f 34/89/26 30/90/26 33/91/26 35/92/26
f 36/93/27 34/94/27 35/95/27 37/96/27
f 31/97/28 36/98/28 37/99/28 32/100/28
f 37/101/29 35/102/29 33/103/29 32/104/29
f 31/105/30 30/106/30 34/107/30 36/108/30