# Made in Blockbench 4.10.4
mtllib whistle_medium.mtl

o circle
v -0.03124999999999996 -0.21201905283832878 0.274519052838329
v -0.031249999999999944 -0.3125 0.100480947161671
v -0.03125 0.0625 0
v -0.031249999999999944 -0.3125 -0.100480947161671
v -0.03124999999999996 -0.212019052838329 -0.274519052838329
v -0.031249999999999986 -0.03798094716167111 -0.375
v -0.031250000000000014 0.16298094716167094 -0.375
v -0.03125000000000004 0.337019052838329 -0.274519052838329
v -0.031250000000000056 0.4375 -0.10048094716167094
v -0.031250000000000056 0.4375 0.10048094716167083
v -0.03125000000000004 0.337019052838329 0.274519052838329
v -0.031250000000000014 0.16298094716167094 0.375
v -0.031249999999999986 -0.03798094716167094 0.375
vt 8.673617379884035e-19 0.991911913763006
vt 0.00404404311849697 0.9929954996624571
vt 0 1
vt 0.0078125 0.99581328125
vt 0.0078125 1
vt 0 0.997906640625
vt 0.008088096792379552 0.9959559621591889
vt 0.007004491196306773 1
vt 0 0.9959559621591889
vt 0.00808808623699394 0.9959559568815031
vt 0.007004500337542835 1
vt 0 0.9959559568815031
vt 0.00418671875 1
vt 0 1
vt 0.002093359375 0.9921875
vt 0.004044037840811051 1
vt 0 0.9989163944039272
vt 0.00404403784081105 0.9919119032076205
vt 0.004044043118496969 1
vt 0 0.9989164141005489
vt 0.00404404311849697 0.991911913763006
vt 0 1
vt 0 0.99581328125
vt 0.0078125 0.997906640625
vt 0 1
vt 0.0010836055960727793 0.9959559621591889
vt 0.008088096792379552 1
vt 0 1
vt 0.0010835858994511045 0.9959559568815031
vt 0.00808808623699394 1
vt 0 0.9921875
vt 0.00418671875 0.9921875
vt 0.002093359375 1
vt 0 0.9919119032076205
vt 0.004044037840811051 0.9929955088036932
vt 1.3010426069826053e-18 1
vn 1 1.4670122950265685e-16 -4.958056047779301e-18
vn 1 1.4802973661668753e-16 0
vn 1 1.4670122950265687e-16 4.9580560477791385e-18
vn 1 1.5661734159821524e-16 -4.9580560477792024e-18
vn 1 1.3811362452112921e-16 -3.066738519155825e-32
vn 1 1.5661734159821511e-16 4.958056047779107e-18
vn 1 1.4670122950265687e-16 -4.958056047779138e-18
vn 1 1.4802973661668753e-16 0
vn 1 1.467012295026569e-16 4.958056047779137e-18
vn 1 1.5661734159821511e-16 -4.958056047779097e-18
vn 1 1.3811362452112934e-16 0
vn 1 1.5661734159821529e-16 4.958056047779153e-18
usemtl m_e30c9135-b00d-d5d6-fa2c-e820a5b25018
f 1/1/1 2/2/1 3/3/1
f 2/4/2 4/5/2 3/6/2
f 4/7/3 5/8/3 3/9/3
f 5/10/4 6/11/4 3/12/4
f 6/13/5 7/14/5 3/15/5
f 7/16/6 8/17/6 3/18/6
f 8/19/7 9/20/7 3/21/7
f 9/22/8 10/23/8 3/24/8
f 10/25/9 11/26/9 3/27/9
f 11/28/10 12/29/10 3/30/10
f 12/31/11 13/32/11 3/33/11
f 13/34/12 1/35/12 3/36/12
o cube
v 0.014062499999999978 -0.3125 -0.375
v -0.03281250000000002 -0.3125 -0.375
v -0.03281250000000002 0.4375 -0.375
v 0.014062499999999978 0.4375 -0.375
v 0.014062499999999978 -0.3125 0.375
v 0.014062499999999978 0.4375 0.375
v -0.03281250000000002 -0.3125 0.375
v -0.03281250000000002 0.4375 0.375
vt 0 0.8714285714285714
vt 0.05063244047619048 0.8714285714285714
vt 0.05063244047619048 1
vt 0 1
vt 0.06904761904761905 0.9833333333333333
vt 0 0.9833333333333333
vt 0 1
vt 0.06904761904761905 1
vt 0 0.8714285714285714
vt 0.05063244047619048 0.8714285714285714
vt 0.05063244047619048 1
vt 0 1
vt 0 0
vt 1 0
vt 1 1
vt 0 1
vt 0 0.8714285714285714
vt 0.05063244047619048 0.8714285714285714
vt 0.05063244047619048 1
vt 0 1
vt 0 0.8714285714285714
vt 0.05063244047619048 0.8714285714285714
vt 0.05063244047619048 1
vt 0 1
vn 0 0 -1
vn 1 0 0
vn 0 0 1
vn -1 0 0
vn 0 1 0
vn 0 -1 0
usemtl m_0d14da9b-c0d7-8242-6d30-f45a03de6585
f 14/37/13 15/38/13 16/39/13 17/40/13
f 18/41/14 14/42/14 17/43/14 19/44/14
f 20/45/15 18/46/15 19/47/15 21/48/15
f 15/49/16 20/50/16 21/51/16 16/52/16
f 21/53/17 19/54/17 17/55/17 16/56/17
f 15/57/18 14/58/18 18/59/18 20/60/18
o cube
v 0.015625 -0.0625 -0.046875
v -0.03125 -0.0625 -0.046875
v -0.03125 0.0625 -0.046875
v 0.015625 0.0625 -0.046875
v 0.015625 -0.0625 0.046875
v 0.015625 0.0625 0.046875
v -0.03125 -0.0625 0.046875
v -0.03125 0.0625 0.046875
vt 0 0.998046875
vt 0.000732421875 0.998046875
vt 0.000732421875 1
vt 0 1
vt 0 0.998046875
vt 0.00146484375 0.998046875
vt 0.00146484375 1
vt 0 1
vt 0 0.998046875
vt 0.000732421875 0.998046875
vt 0.000732421875 1
vt 0 1
vt 0 0.998046875
vt 0.00146484375 0.998046875
vt 0.00146484375 1
vt 0 1
vt 0 0.99853515625
vt 0.000732421875 0.99853515625
vt 0.000732421875 1
vt 0 1
vt 0 0.99853515625
vt 0.000732421875 0.99853515625
vt 0.000732421875 1
vt 0 1
vn 0 0 -1
vn 1 0 0
vn 0 0 1
vn -1 0 0
vn 0 1 0
vn 0 -1 0
usemtl m_e30c9135-b00d-d5d6-fa2c-e820a5b25018
f 22/61/19 23/62/19 24/63/19 25/64/19
f 26/65/20 22/66/20 25/67/20 27/68/20
f 28/69/21 26/70/21 27/71/21 29/72/21
f 23/73/22 28/74/22 29/75/22 24/76/22
f 29/77/23 27/78/23 25/79/23 24/80/23
f 23/81/24 22/82/24 26/83/24 28/84/24
o cube
v 0.03125 -0.0625 -0.03125
v 0.015625 -0.0625 -0.03125
v 0.015625 0.0625 -0.03125
v 0.03125 0.0625 -0.03125
v 0.03125 -0.0625 0.03125
v 0.03125 0.0625 0.03125
v 0.015625 -0.0625 0.03125
v 0.015625 0.0625 0.03125
vt 0 0.998046875
vt 0.000244140625 0.998046875
vt 0.000244140625 1
vt 0 1
vt 0 0.998046875
vt 0.0009765625 0.998046875
vt 0.0009765625 1
vt 0 1
vt 0 0.998046875
vt 0.000244140625 0.998046875
vt 0.000244140625 1
vt 0 1
vt 0 0.998046875
vt 0.0009765625 0.998046875
vt 0.0009765625 1
vt 0 1
vt 0 0.9990234375
vt 0.000244140625 0.9990234375
vt 0.000244140625 1
vt 0 1
vt 0 0.9990234375
vt 0.000244140625 0.9990234375
vt 0.000244140625 1
vt 0 1
vn 0 0 -1
vn 1 0 0
vn 0 0 1
vn -1 0 0
vn 0 1 0
vn 0 -1 0
usemtl m_e30c9135-b00d-d5d6-fa2c-e820a5b25018
f 30/85/25 31/86/25 32/87/25 33/88/25
f 34/89/26 30/90/26 33/91/26 35/92/26
f 36/93/27 34/94/27 35/95/27 37/96/27
f 31/97/28 36/98/28 37/99/28 32/100/28
f 37/101/29 35/102/29 33/103/29 32/104/29
f 31/105/30 30/106/30 34/107/30 36/108/30