# Made in Blockbench 4.10.4
mtllib eletrical_box_graffiti_1.mtl

o cube
v 0.25 0 -0.875
v -0.1875 0 -0.875
v -0.1875 0.203125 -0.875
v 0.25 0.203125 -0.875
v 0.25 0 0.875
v 0.25 0.203125 0.875
v -0.1875 0 0.875
v -0.1875 0.203125 0.875
vt 0 0.999267578125
vt 0.005859375 0.999267578125
vt 0.005859375 1
vt 0 1
vt 0 0.999267578125
vt 0.01171875 0.999267578125
vt 0.01171875 1
vt 0 1
vt 0 0.999267578125
vt 0.005859375 0.999267578125
vt 0.005859375 1
vt 0 1
vt 0 0.999267578125
vt 0.01171875 0.999267578125
vt 0.01171875 1
vt 0 1
vt 0 0.98828125
vt 0.005859375 0.98828125
vt 0.005859375 1
vt 0 1
vt 0 0.98828125
vt 0.005859375 0.98828125
vt 0.005859375 1
vt 0 1
vn 0 0 -1
vn 1 0 0
vn 0 0 1
vn -1 0 0
vn 0 1 0
vn 0 -1 0
usemtl m_43482b09-e969-964a-2f91-4763e929c69b
f 1/1/1 2/2/1 3/3/1 4/4/1
f 5/5/2 1/6/2 4/7/2 6/8/2
f 7/9/3 5/10/3 6/11/3 8/12/3
f 2/13/4 7/14/4 8/15/4 3/16/4
f 8/17/5 6/18/5 4/19/5 3/20/5
f 2/21/6 1/22/6 5/23/6 7/24/6
o cube
v 0.25000000000000006 0.171875 -0.8125
v -0.171875 0.171875 -0.8125
v -0.171875 1.59375 -0.8125
v 0.25000000000000006 1.59375 -0.8125
v 0.25000000000000006 0.171875 0.8125
v 0.25000000000000006 1.59375 0.8125
v -0.171875 0.171875 0.8125
v -0.171875 1.59375 0.8125
vt 0 0.985595703125
vt 0.005615234375 0.985595703125
vt 0.005615234375 1
vt 0 1
vt 0 0.985595703125
vt 0.01171875 0.985595703125
vt 0.01171875 1
vt 0 1
vt 0 0.985595703125
vt 0.005615234375 0.985595703125
vt 0.005615234375 1
vt 0 1
vt 0 0.985595703125
vt 0.01171875 0.985595703125
vt 0.01171875 1
vt 0 1
vt 0 0.98828125
vt 0.005615234375 0.98828125
vt 0.005615234375 1
vt 0 1
vt 0 0.98828125
vt 0.005615234375 0.98828125
vt 0.005615234375 1
vt 0 1
vn 0 0 -1
vn 1 0 0
vn 0 0 1
vn -1 0 0
vn 0 1 0
vn 0 -1 0
usemtl m_43482b09-e969-964a-2f91-4763e929c69b
f 9/25/7 10/26/7 11/27/7 12/28/7
f 13/29/8 9/30/8 12/31/8 14/32/8
f 15/33/9 13/34/9 14/35/9 16/36/9
f 10/37/10 15/38/10 16/39/10 11/40/10
f 16/41/11 14/42/11 12/43/11 11/44/11
f 10/45/12 9/46/12 13/47/12 15/48/12
o cube
v -0.1765625 0.234375 -0.7500000000000001
v -0.1875 0.234375 -0.7500000000000001
v -0.1875 1.53125 -0.7500000000000001
v -0.1765625 1.53125 -0.7500000000000001
v -0.1765625 0.234375 -0.015625
v -0.1765625 1.53125 -0.015625
v -0.1875 0.234375 -0.015625
v -0.1875 1.53125 -0.015625
vt 0 0.985595703125
vt 0.00017089843749999983 0.985595703125
vt 0.00017089843749999983 1
vt 0 1
vt 0 0.985595703125
vt 0.005615234375 0.985595703125
vt 0.005615234375 1
vt 0 1
vt 0 0.985595703125
vt 0.00017089843749999983 0.985595703125
vt 0.00017089843749999983 1
vt 0 1
vt 0 0.985595703125
vt 0.005615234375 0.985595703125
vt 0.005615234375 1
vt 0 1
vt 0 0.994384765625
vt 0.00017089843749999983 0.994384765625
vt 0.00017089843749999983 1
vt 0 1
vt 0 0.994384765625
vt 0.00017089843749999983 0.994384765625
vt 0.00017089843749999983 1
vt 0 1
vn 0 0 -1
vn 1 0 0
vn 0 0 1
vn -1 0 0
vn 0 1 0
vn 0 -1 0
usemtl m_43482b09-e969-964a-2f91-4763e929c69b
f 17/49/13 18/50/13 19/51/13 20/52/13
f 21/53/14 17/54/14 20/55/14 22/56/14
f 23/57/15 21/58/15 22/59/15 24/60/15
f 18/61/16 23/62/16 24/63/16 19/64/16
f 24/65/17 22/66/17 20/67/17 19/68/17
f 18/69/18 17/70/18 21/71/18 23/72/18
o cube
v -0.1765625 0.234375 0.015625
v -0.1875 0.234375 0.015625
v -0.1875 1.53125 0.015625
v -0.1765625 1.53125 0.015625
v -0.1765625 0.234375 0.7500000000000001
v -0.1765625 1.53125 0.7500000000000001
v -0.1875 0.234375 0.7500000000000001
v -0.1875 1.53125 0.7500000000000001
vt 0 0.985595703125
vt 0.00017089843749999983 0.985595703125
vt 0.00017089843749999983 1
vt 0 1
vt 0 0.985595703125
vt 0.005615234375 0.985595703125
vt 0.005615234375 1
vt 0 1
vt 0 0.985595703125
vt 0.00017089843749999983 0.985595703125
vt 0.00017089843749999983 1
vt 0 1
vt 0 0.985595703125
vt 0.005615234375 0.985595703125
vt 0.005615234375 1
vt 0 1
vt 0 0.994384765625
vt 0.00017089843749999983 0.994384765625
vt 0.00017089843749999983 1
vt 0 1
vt 0 0.994384765625
vt 0.00017089843749999983 0.994384765625
vt 0.00017089843749999983 1
vt 0 1
vn 0 0 -1
vn 1 0 0
vn 0 0 1
vn -1 0 0
vn 0 1 0
vn 0 -1 0
usemtl m_43482b09-e969-964a-2f91-4763e929c69b
f 25/73/19 26/74/19 27/75/19 28/76/19
f 29/77/20 25/78/20 28/79/20 30/80/20
f 31/81/21 29/82/21 30/83/21 32/84/21
f 26/85/22 31/86/22 32/87/22 27/88/22
f 32/89/23 30/90/23 28/91/23 27/92/23
f 26/93/24 25/94/24 29/95/24 31/96/24
o cube
v -0.18906250000000002 1.09375 -0.65625
v -0.18906250000000002 1.09375 -0.65625
v -0.18906250000000002 1.4375 -0.65625
v -0.18906250000000002 1.4375 -0.65625
v -0.18906250000000002 1.09375 -0.40625
v -0.18906250000000002 1.4375 -0.40625
v -0.18906250000000002 1.09375 -0.40625
v -0.18906250000000002 1.4375 -0.40625
vt 0 0
vt 1 0
vt 1 1
vt 0 1
vt 0 0
vt 1 0
vt 1 1
vt 0 1
vt 0 0
vt 1 0
vt 1 1
vt 0 1
vt 0 0
vt 1 0
vt 1 0.9896373056994818
vt 0 0.9896373056994818
vt 0 0.9896373056994818
vt 0 0.9896373056994818
vt 0 1
vt 0 1
vt 0 0.9896373056994818
vt 0 0.9896373056994818
vt 0 1
vt 0 1
vn 0 0 0
vn 1 0 0
vn 0 0 0
vn -1 0 0
vn 0 0 0
vn 0 0 0
usemtl m_f4d9d5d3-d28c-7c80-ca04-93e3e31cad99
f 33/97/25 34/98/25 35/99/25 36/100/25
f 37/101/26 33/102/26 36/103/26 38/104/26
f 39/105/27 37/106/27 38/107/27 40/108/27
f 34/109/28 39/110/28 40/111/28 35/112/28
f 40/113/29 38/114/29 36/115/29 35/116/29
f 34/117/30 33/118/30 37/119/30 39/120/30
o cube
v 0.04531249999999998 0.1875 0.3765624999999999
v 0.04531249999999998 0.1875 0.3765624999999999
v 0.04531249999999998 0.375 0.3765624999999999
v 0.04531249999999998 0.375 0.3765624999999999
v 0.17031249999999998 0.1875 0.3765624999999999
v 0.17031249999999998 0.375 0.3765624999999999
v 0.17031249999999998 0.1875 0.3765624999999999
v 0.17031249999999998 0.375 0.3765624999999999
vt 0 0
vt 1 0
vt 1 1
vt 0 1
vt 0 0
vt 1 0
vt 1 1
vt 0 1
vt 0 0
vt 1 0
vt 1 1
vt 0 1
vt 0 0
vt 1 0
vt 1 0.9896373056994818
vt 0 0.9896373056994818
vt 0 0.9896373056994818
vt 0 0.9896373056994818
vt 0 1
vt 0 1
vt 0 0.9896373056994818
vt 0 0.9896373056994818
vt 0 1
vt 0 1
vn 0 0 0
vn 0 0 -1
vn 0 0 0
vn 0 0 1
vn 0 0 0
vn 0 0 0
usemtl m_f4d9d5d3-d28c-7c80-ca04-93e3e31cad99
f 41/121/31 42/122/31 43/123/31 44/124/31
f 45/125/32 41/126/32 44/127/32 46/128/32
f 47/129/33 45/130/33 46/131/33 48/132/33
f 42/133/34 47/134/34 48/135/34 43/136/34
f 48/137/35 46/138/35 44/139/35 43/140/35
f 42/141/36 41/142/36 45/143/36 47/144/36
o cube
v -0.18906250000000002 0.3125 0.7187499999999999
v -0.18906250000000002 0.3125 0.7187499999999999
v -0.18906250000000002 0.3125 0.078125
v -0.18906250000000002 0.3125 0.078125
v -0.18906250000000002 1.5 0.7187500000000002
v -0.18906250000000002 1.5 0.07812500000000033
v -0.18906250000000002 1.5 0.7187500000000002
v -0.18906250000000002 1.5 0.07812500000000033
vt 0 0
vt 1 0
vt 1 1
vt 0 1
vt 0 0
vt 1 0
vt 1 1
vt 0 1
vt 0 0
vt 1 0
vt 1 1
vt 0 1
vt 0 0
vt 1 0
vt 1 1
vt 0 1
vt 0 0
vt 1 0
vt 1 1
vt 0 1
vt 0 0
vt 1 0
vt 1 1
vt 0 1
vn 0 0 0
vn 1 0 0
vn 0 0 0
vn -1 0 0
vn 0 0 0
vn 0 0 0
usemtl m_c54b74c8-c81b-407b-f7c5-97f889c06fda
f 49/145/37 50/146/37 51/147/37 52/148/37
f 53/149/38 49/150/38 52/151/38 54/152/38
f 55/153/39 53/154/39 54/155/39 56/156/39
f 50/157/40 55/158/40 56/159/40 51/160/40
f 56/161/41 54/162/41 52/163/41 51/164/41
f 50/165/42 49/166/42 53/167/42 55/168/42
o cube
v -0.13906249999999998 0.84375 -0.125
v -0.25625 0.84375 -0.125
v -0.25625 1.046875 -0.125
v -0.13906249999999998 1.046875 -0.125
v -0.13906249999999998 0.84375 -0.015625
v -0.13906249999999998 1.046875 -0.015625
v -0.25625 0.84375 -0.015625
v -0.25625 1.046875 -0.015625
vt 0 0.998779296875
vt 0.0003662109375 0.998779296875
vt 0.0003662109375 1
vt 0 1
vt 0 0.998779296875
vt 0.001708984375 0.998779296875
vt 0.001708984375 1
vt 0 1
vt 0 0.998779296875
vt 0.0003662109375 0.998779296875
vt 0.0003662109375 1
vt 0 1
vt 0 0.998779296875
vt 0.001708984375 0.998779296875
vt 0.001708984375 1
vt 0 1
vt 0 0.998291015625
vt 0.0003662109375 0.998291015625
vt 0.0003662109375 1
vt 0 1
vt 0 0.998291015625
vt 0.0003662109375 0.998291015625
vt 0.0003662109375 1
vt 0 1
vn 0 0 -1
vn 1 0 0
vn 0 0 1
vn -1 0 0
vn 0 1 0
vn 0 -1 0
usemtl m_43482b09-e969-964a-2f91-4763e929c69b
f 57/169/43 58/170/43 59/171/43 60/172/43
f 61/173/44 57/174/44 60/175/44 62/176/44
f 63/177/45 61/178/45 62/179/45 64/180/45
f 58/181/46 63/182/46 64/183/46 59/184/46
f 64/185/47 62/186/47 60/187/47 59/188/47
f 58/189/48 57/190/48 61/191/48 63/192/48
o cube
v -0.11850450041404026 0.84375 -0.22841172062437065
v -0.19066958655129393 0.84375 -0.23288380645350848
v -0.19066958655129393 1.046875 -0.23288380645350848
v -0.11850450041404026 1.046875 -0.22841172062437065
v -0.183966035258151 0.84375 -0.12104624743478243
v -0.183966035258151 1.046875 -0.12104624743478243
v -0.2561311213954045 0.84375 -0.1255183332639202
v -0.2561311213954045 1.046875 -0.1255183332639202
vt 0 0.998779296875
vt 0.0003662109375 0.998779296875
vt 0.0003662109375 1
vt 0 1
vt 0 0.998779296875
vt 0.001708984375 0.998779296875
vt 0.001708984375 1
vt 0 1
vt 0 0.998779296875
vt 0.0003662109375 0.998779296875
vt 0.0003662109375 1
vt 0 1
vt 0 0.998779296875
vt 0.001708984375 0.998779296875
vt 0.001708984375 1
vt 0 1
vt 0 0.998291015625
vt 0.0003662109375 0.998291015625
vt 0.0003662109375 1
vt 0 1
vt 0 0.998291015625
vt 0.0003662109375 0.998291015625
vt 0.0003662109375 1
vt 0 1
vn 0.06185156326665112 0 -0.9980853591359167
vn 0.8538146166091967 0 0.5205771801226888
vn -0.06185156326665049 0 0.9980853591359166
vn -0.8538146166091974 0 -0.5205771801226876
vn 0 1 0
vn 0 -1 0
usemtl m_43482b09-e969-964a-2f91-4763e929c69b
f 65/193/49 66/194/49 67/195/49 68/196/49
f 69/197/50 65/198/50 68/199/50 70/200/50
f 71/201/51 69/202/51 70/203/51 72/204/51
f 66/205/52 71/206/52 72/207/52 67/208/52
f 72/209/53 70/210/53 68/211/53 67/212/53
f 66/213/54 65/214/54 69/215/54 71/216/54
o cube
v -0.13906249999999998 0.84375 0
v -0.25625 0.84375 0
v -0.25625 1.046875 0
v -0.13906249999999998 1.046875 0
v -0.13906249999999998 0.84375 0.09375
v -0.13906249999999998 1.046875 0.09375
v -0.25625 0.84375 0.09375
v -0.25625 1.046875 0.09375
vt 0 0.998779296875
vt 0.0003662109375 0.998779296875
vt 0.0003662109375 1
vt 0 1
vt 0 0.998779296875
vt 0.00048828125 0.998779296875
vt 0.00048828125 1
vt 0 1
vt 0 0.998779296875
vt 0.0003662109375 0.998779296875
vt 0.0003662109375 1
vt 0 1
vt 0 0.998779296875
vt 0.00048828125 0.998779296875
vt 0.00048828125 1
vt 0 1
vt 0 0.99951171875
vt 0.0003662109375 0.99951171875
vt 0.0003662109375 1
vt 0 1
vt 0 0.99951171875
vt 0.0003662109375 0.99951171875
vt 0.0003662109375 1
vt 0 1
vn 0 0 -1
vn 1 0 0
vn 0 0 1
vn -1 0 0
vn 0 1 0
vn 0 -1 0
usemtl m_43482b09-e969-964a-2f91-4763e929c69b
f 73/217/55 74/218/55 75/219/55 76/220/55
f 77/221/56 73/222/56 76/223/56 78/224/56
f 79/225/57 77/226/57 78/227/57 80/228/57
f 74/229/58 79/230/58 80/231/58 75/232/58
f 80/233/59 78/234/59 76/235/59 75/236/59
f 74/237/60 73/238/60 77/239/60 79/240/60
o cube
v -0.13906249999999998 0.84375 -0.015625
v -0.25625 0.84375 -0.015625
v -0.25625 1.046875 -0.015625
v -0.13906249999999998 1.046875 -0.015625
v -0.13906249999999998 0.84375 0
v -0.13906249999999998 1.046875 0
v -0.25625 0.84375 0
v -0.25625 1.046875 0
vt 0 0.921875
vt 0.0234375 0.921875
vt 0.0234375 1
vt 0 1
vt 0 0.921875
vt 0.015625 0.921875
vt 0.015625 1
vt 0 1
vt 0 0.921875
vt 0.0234375 0.921875
vt 0.0234375 1
vt 0 1
vt 0 0.921875
vt 0.015625 0.921875
vt 0.015625 1
vt 0 1
vt 0 0.984375
vt 0.0234375 0.984375
vt 0.0234375 1
vt 0 1
vt 0 0.984375
vt 0.0234375 0.984375
vt 0.0234375 1
vt 0 1
vn 0 0 -1
vn 1 0 0
vn 0 0 1
vn -1 0 0
vn 0 1 0
vn 0 -1 0
usemtl m_25c6d139-74be-ae83-0155-1d0e3d8cb9e8
f 81/241/61 82/242/61 83/243/61 84/244/61
f 85/245/62 81/246/62 84/247/62 86/248/62
f 87/249/63 85/250/63 86/251/63 88/252/63
f 82/253/64 87/254/64 88/255/64 83/256/64
f 88/257/65 86/258/65 84/259/65 83/260/65
f 82/261/66 81/262/66 85/263/66 87/264/66
o cube
v 0.25 0.203125 -0.875
v -0.1875 0.203125 -0.875
v -0.1875 1.59375 -0.875
v 0.25 1.59375 -0.875
v 0.25 0.203125 -0.78125
v 0.25 1.59375 -0.78125
v -0.1875 0.203125 -0.78125
v -0.1875 1.59375 -0.78125
vt 0 0.999267578125
vt 0.005859375 0.999267578125
vt 0.005859375 1
vt 0 1
vt 0 0.999267578125
vt 0.01171875 0.999267578125
vt 0.01171875 1
vt 0 1
vt 0 0.999267578125
vt 0.005859375 0.999267578125
vt 0.005859375 1
vt 0 1
vt 0 0.999267578125
vt 0.01171875 0.999267578125
vt 0.01171875 1
vt 0 1
vt 0 0.98828125
vt 0.005859375 0.98828125
vt 0.005859375 1
vt 0 1
vt 0 0.98828125
vt 0.005859375 0.98828125
vt 0.005859375 1
vt 0 1
vn 0 0 -1
vn 1 0 0
vn 0 0 1
vn -1 0 0
vn 0 1 0
vn 0 -1 0
usemtl m_43482b09-e969-964a-2f91-4763e929c69b
f 89/265/67 90/266/67 91/267/67 92/268/67
f 93/269/68 89/270/68 92/271/68 94/272/68
f 95/273/69 93/274/69 94/275/69 96/276/69
f 90/277/70 95/278/70 96/279/70 91/280/70
f 96/281/71 94/282/71 92/283/71 91/284/71
f 90/285/72 89/286/72 93/287/72 95/288/72
o cube
v 0.25 0.203125 0.78125
v -0.1875 0.203125 0.78125
v -0.1875 1.59375 0.78125
v 0.25 1.59375 0.78125
v 0.25 0.203125 0.875
v 0.25 1.59375 0.875
v -0.1875 0.203125 0.875
v -0.1875 1.59375 0.875
vt 0 0.999267578125
vt 0.005859375 0.999267578125
vt 0.005859375 1
vt 0 1
vt 0 0.999267578125
vt 0.01171875 0.999267578125
vt 0.01171875 1
vt 0 1
vt 0 0.999267578125
vt 0.005859375 0.999267578125
vt 0.005859375 1
vt 0 1
vt 0 0.999267578125
vt 0.01171875 0.999267578125
vt 0.01171875 1
vt 0 1
vt 0 0.98828125
vt 0.005859375 0.98828125
vt 0.005859375 1
vt 0 1
vt 0 0.98828125
vt 0.005859375 0.98828125
vt 0.005859375 1
vt 0 1
vn 0 0 -1
vn 1 0 0
vn 0 0 1
vn -1 0 0
vn 0 1 0
vn 0 -1 0
usemtl m_43482b09-e969-964a-2f91-4763e929c69b
f 97/289/73 98/290/73 99/291/73 100/292/73
f 101/293/74 97/294/74 100/295/74 102/296/74
f 103/297/75 101/298/75 102/299/75 104/300/75
f 98/301/76 103/302/76 104/303/76 99/304/76
f 104/305/77 102/306/77 100/307/77 99/308/77
f 98/309/78 97/310/78 101/311/78 103/312/78
o pyramid
v 0.03125 1.8125 0
v 0.3125 1.625 0.9375
v 0.3125 1.625 -0.9375
v -0.25 1.625 0.9375
v -0.25 1.625 -0.9375
vt 1 0
vt 1 1
vt 0 1
vt 0 0
vt 0 0.29288749999999997
vt 1 0.29288749999999997
vt 0.5 1
vt 0 0.29288749999999997
vt 1 0.29288749999999997
vt 0.5 1
vt 0 0.29288749999999997
vt 1 0.29288749999999997
vt 0.5 1
vt 0 0.29288749999999997
vt 1 0.29288749999999997
vt 0.5 1
vn 0 -1 0
vn 0.5547001962252291 0.8320502943378437 0
vn 0 0.9805806756909203 0.19611613513818407
vn 0 0.9805806756909203 -0.19611613513818407
vn -0.5547001962252291 0.8320502943378437 0
usemtl m_43482b09-e969-964a-2f91-4763e929c69b
f 107/313/79 106/314/79 108/315/79 109/316/79
f 106/317/80 107/318/80 105/319/80
f 108/320/81 106/321/81 105/322/81
f 107/323/82 109/324/82 105/325/82
f 109/326/83 108/327/83 105/328/83
o cube
v 0.3125 1.546875 -0.9375
v -0.25 1.546875 -0.9375
v -0.25 1.625 -0.9375
v 0.3125 1.625 -0.9375
v 0.3125 1.546875 0.9375
v 0.3125 1.625 0.9375
v -0.25 1.546875 0.9375
v -0.25 1.625 0.9375
vt 0 0.999267578125
vt 0.005859375 0.999267578125
vt 0.005859375 1
vt 0 1
vt 0 0.999267578125
vt 0.01171875 0.999267578125
vt 0.01171875 1
vt 0 1
vt 0 0.999267578125
vt 0.005859375 0.999267578125
vt 0.005859375 1
vt 0 1
vt 0 0.999267578125
vt 0.01171875 0.999267578125
vt 0.01171875 1
vt 0 1
vt 0 0.98828125
vt 0.005859375 0.98828125
vt 0.005859375 1
vt 0 1
vt 0 0.98828125
vt 0.005859375 0.98828125
vt 0.005859375 1
vt 0 1
vn 0 0 -1
vn 1 0 0
vn 0 0 1
vn -1 0 0
vn 0 1 0
vn 0 -1 0
usemtl m_43482b09-e969-964a-2f91-4763e929c69b
f 110/329/84 111/330/84 112/331/84 113/332/84
f 114/333/85 110/334/85 113/335/85 115/336/85
f 116/337/86 114/338/86 115/339/86 117/340/86
f 111/341/87 116/342/87 117/343/87 112/344/87
f 117/345/88 115/346/88 113/347/88 112/348/88
f 111/349/89 110/350/89 114/351/89 116/352/89