# Made in Blockbench 4.10.4
mtllib lineside_power_distributor.mtl

o cube
v 0.125 0.03125 0.125
v 0.125 0.03125 -0.125
v 0.125 0 0.125
v 0.125 0 -0.125
v -0.125 0.03125 -0.125
v -0.125 0.03125 0.125
v -0.125 0 -0.125
v -0.125 0 0.125
vt 0 1
vt 0.00390625 1
vt 0.00390625 0.99951171875
vt 0 0.99951171875
vt 0 1
vt 0.00390625 1
vt 0.00390625 0.99951171875
vt 0 0.99951171875
vt 0 1
vt 0.00390625 1
vt 0.00390625 0.99951171875
vt 0 0.99951171875
vt 0 1
vt 0.00390625 1
vt 0.00390625 0.99951171875
vt 0 0.99951171875
vt 0 1
vt 0.00390625 1
vt 0.00390625 0.99609375
vt 0 0.99609375
vt 0 1
vt 0.00390625 1
vt 0.00390625 0.99609375
vt 0 0.99609375
vn 0 0 -1
vn 1 0 0
vn 0 0 1
vn -1 0 0
vn 0 1 0
vn 0 -1 0
usemtl m_a217dca3-9b5e-af7e-d36c-d83d518c32db
f 4/4/1 7/3/1 5/2/1 2/1/1
f 3/8/2 4/7/2 2/6/2 1/5/2
f 8/12/3 3/11/3 1/10/3 6/9/3
f 7/16/4 8/15/4 6/14/4 5/13/4
f 6/20/5 1/19/5 2/18/5 5/17/5
f 7/24/6 4/23/6 3/22/6 8/21/6
o cube
v 0.046875 0.5625 0.046875
v 0.046875 0.5625 -0.046875
v 0.046875 0.03125 0.046875
v 0.046875 0.03125 -0.046875
v -0.046875 0.5625 -0.046875
v -0.046875 0.5625 0.046875
v -0.046875 0.03125 -0.046875
v -0.046875 0.03125 0.046875
vt 0 1
vt 0.00146484375 1
vt 0.00146484375 0.99169921875
vt 0 0.99169921875
vt 0 1
vt 0.00146484375 1
vt 0.00146484375 0.99169921875
vt 0 0.99169921875
vt 0 1
vt 0.00146484375 1
vt 0.00146484375 0.99169921875
vt 0 0.99169921875
vt 0 1
vt 0.00146484375 1
vt 0.00146484375 0.99169921875
vt 0 0.99169921875
vt 0 1
vt 0.00146484375 1
vt 0.00146484375 0.99853515625
vt 0 0.99853515625
vt 0 1
vt 0.00146484375 1
vt 0.00146484375 0.99853515625
vt 0 0.99853515625
vn 0 0 -1
vn 1 0 0
vn 0 0 1
vn -1 0 0
vn 0 1 0
vn 0 -1 0
usemtl m_a217dca3-9b5e-af7e-d36c-d83d518c32db
f 12/28/7 15/27/7 13/26/7 10/25/7
f 11/32/8 12/31/8 10/30/8 9/29/8
f 16/36/9 11/35/9 9/34/9 14/33/9
f 15/40/10 16/39/10 14/38/10 13/37/10
f 14/44/11 9/43/11 10/42/11 13/41/11
f 15/48/12 12/47/12 11/46/12 16/45/12
o cube
v 0.125 0.65625 0.125
v 0.125 0.65625 -0.125
v 0.125 0.5625 0.125
v 0.125 0.5625 -0.125
v -0.125 0.65625 -0.125
v -0.125 0.65625 0.125
v -0.125 0.5625 -0.125
v -0.125 0.5625 0.125
vt 0 1
vt 0.25 1
vt 0.25 0.90625
vt 0 0.90625
vt 0 1
vt 0.25 1
vt 0.25 0.90625
vt 0 0.90625
vt 0 1
vt 0.25 1
vt 0.25 0.90625
vt 0 0.90625
vt 0 1
vt 0.25 1
vt 0.25 0.90625
vt 0 0.90625
vt 0 1
vt 0.25 1
vt 0.25 0.75
vt 0 0.75
vt 0 1
vt 0.25 1
vt 0.25 0.75
vt 0 0.75
vn 0 0 -1
vn 1 0 0
vn 0 0 1
vn -1 0 0
vn 0 1 0
vn 0 -1 0
usemtl m_3bac7e30-4d84-29c4-0d93-a0cb6a28d1ca
f 20/52/13 23/51/13 21/50/13 18/49/13
f 19/56/14 20/55/14 18/54/14 17/53/14
f 24/60/15 19/59/15 17/58/15 22/57/15
f 23/64/16 24/63/16 22/62/16 21/61/16
f 22/68/17 17/67/17 18/66/17 21/65/17
f 23/72/18 20/71/18 19/70/18 24/69/18
o beveled_cuboid
v 0.09375 0.84375 0.09375
v 0.09375 0.84375 -0.09375
v -0.09375 0.84375 0.09375
v -0.09375 0.84375 -0.09375
v 0.09375 0.59375 0.09375
v 0.09375 0.59375 -0.09375
v -0.09375 0.59375 0.09375
v -0.09375 0.59375 -0.09375
v -0.125 0.65625 0.09375
v -0.125 0.78125 0.09375
v -0.125 0.65625 -0.09375
v -0.125 0.78125 -0.09375
v 0.125 0.65625 0.09375
v 0.125 0.78125 0.09375
v 0.125 0.65625 -0.09375
v 0.125 0.78125 -0.09375
v 0.09375 0.65625 -0.125
v 0.09375 0.78125 -0.125
v -0.09375 0.65625 -0.125
v -0.09375 0.78125 -0.125
v 0.09375 0.65625 0.125
v 0.09375 0.78125 0.125
v -0.09375 0.65625 0.125
v -0.09375 0.78125 0.125
vt 0.75 1
vt 0 1
vt 0 0.75
vt 0.75 0.75
vt 0.75 0.75
vt 0.75 1
vt 0 1
vt 0 0.75
vt 0.75 0.25
vt 0.75 1
vt 0 1
vt 0 0.25
vt 0 0.25
vt 0.75 0.25
vt 0.75 1
vt 0 1
vt 0.75 0.75
vt 0.75 1
vt 0 1
vt 0 0.75
vt 0.75 1
vt 0 1
vt 0 0.75
vt 0.75 0.75
vt 0.75 1
vt 0 1
vt 0 0.823225
vt 0.75 0.823225
vt 0.75 0.823225
vt 0.75 1
vt 0 1
vt 0 0.823225
vt 0.75 0.823225
vt 0.75 1
vt 0 1
vt 0 0.823225
vt 0.75 1
vt 0 1
vt 0 0.823225
vt 0.75 0.823225
vt 0 1
vt 0 0.82321875
vt 0.75 0.82321875
vt 0.75 1
vt 0 0.82321875
vt 0.75 0.82321875
vt 0.75 1
vt 0 1
vt 0 0.82321875
vt 0.75 0.82321875
vt 0.75 1
vt 0 1
vt 0 1
vt 0 0.82321875
vt 0.75 0.82321875
vt 0.75 1
vt 0 0.75
vt 0.176775 0.75
vt 0.176775 1
vt 0 1
vt 0 1
vt 0 0.75
vt 0.176775 0.75
vt 0.176775 1
vt 0 1
vt 0 0.75
vt 0.176775 0.75
vt 0.176775 1
vt 0 0.75
vt 0.176775 0.75
vt 0.176775 1
vt 0 1
vt 0.0883875 0.84690625
vt 0.176775 1
vt 0 1
vt 0.0883875 0.84690625
vt 0.176775 1
vt 0 1
vt 0.0883875 0.84690625
vt 0.176775 1
vt 0 1
vt 0.0883875 0.84690625
vt 0.176775 1
vt 0 1
vt 0.0883875 1
vt 0 0.84690625
vt 0.176775 0.84690625
vt 0.0883875 1
vt 0 0.84690625
vt 0.176775 0.84690625
vt 0.0883875 1
vt 0 0.84690625
vt 0.176775 0.84690625
vt 0.0883875 1
vt 0 0.84690625
vt 0.176775 0.84690625
vn 1 0 0
vn -1 0 0
vn 0 1 0
vn 0 -1 0
vn 0 0 1
vn 0 0 -1
vn 0.8944271909999161 0.44721359549995804 0
vn -0.8944271909999161 0.44721359549995804 0
vn 0 0.44721359549995804 0.8944271909999161
vn 0 0.44721359549995804 -0.8944271909999161
vn 0.8944271909999161 -0.44721359549995804 0
vn -0.8944271909999161 -0.44721359549995804 0
vn 0 -0.44721359549995804 0.8944271909999161
vn 0 -0.44721359549995804 -0.8944271909999161
vn 0.7071067811865476 0 -0.7071067811865476
vn 0.7071067811865476 0 0.7071067811865476
vn -0.7071067811865476 0 -0.7071067811865476
vn -0.7071067811865476 0 0.7071067811865476
vn 0.6666666666666666 -0.3333333333333333 0.6666666666666666
vn -0.6666666666666666 -0.3333333333333333 0.6666666666666666
vn 0.6666666666666666 -0.3333333333333333 -0.6666666666666666
vn -0.6666666666666666 -0.3333333333333333 -0.6666666666666666
vn 0.6666666666666666 0.3333333333333333 0.6666666666666666
vn -0.6666666666666666 0.3333333333333333 0.6666666666666666
vn 0.6666666666666666 0.3333333333333333 -0.6666666666666666
vn -0.6666666666666666 0.3333333333333333 -0.6666666666666666
usemtl m_3bac7e30-4d84-29c4-0d93-a0cb6a28d1ca
f 40/73/19 38/74/19 37/75/19 39/76/19
f 33/77/20 34/78/20 36/79/20 35/80/20
f 25/81/21 26/82/21 28/83/21 27/84/21
f 32/85/22 30/86/22 29/87/22 31/88/22
f 45/89/23 46/90/23 48/91/23 47/92/23
f 44/93/24 42/94/24 41/95/24 43/96/24
f 26/97/25 25/98/25 38/99/25 40/100/25
f 34/101/26 27/102/26 28/103/26 36/104/26
f 46/105/27 25/106/27 27/107/27 48/108/27
f 28/109/28 26/110/28 42/111/28 44/112/28
f 37/113/29 29/114/29 30/115/29 39/116/29
f 32/117/30 31/118/30 33/119/30 35/120/30
f 31/121/31 29/122/31 45/123/31 47/124/31
f 41/125/32 30/126/32 32/127/32 43/128/32
f 39/129/33 41/130/33 42/131/33 40/132/33
f 46/133/34 45/134/34 37/135/34 38/136/34
f 44/137/35 43/138/35 35/139/35 36/140/35
f 33/141/36 47/142/36 48/143/36 34/144/36
f 29/145/37 37/146/37 45/147/37
f 31/148/38 47/149/38 33/150/38
f 30/151/39 41/152/39 39/153/39
f 32/154/40 35/155/40 43/156/40
f 25/157/41 46/158/41 38/159/41
f 27/160/42 34/161/42 48/162/42
f 26/163/43 40/164/43 42/165/43
f 28/166/44 44/167/44 36/168/44