# Made in Blockbench 4.10.4
mtllib permissible_speed_50.mtl

o circle
v -0.03124999999999992 0.4542468245269452 0.4832531754730548
v -0.03124999999999989 0.4375 0.4542468245269451
v -0.03125 0.5 0.43749999999999994
v -0.03124999999999989 0.4375 0.4207531754730548
v -0.03124999999999992 0.4542468245269452 0.3917468245269451
v -0.03124999999999997 0.4832531754730548 0.375
v -0.03125000000000003 0.5167468245269451 0.37499999999999994
v -0.03125000000000008 0.5457531754730548 0.3917468245269451
v -0.03125000000000011 0.5625 0.4207531754730548
v -0.03125000000000011 0.5625 0.4542468245269451
v -0.03125000000000008 0.5457531754730548 0.4832531754730548
v -0.03125000000000003 0.5167468245269452 0.49999999999999994
v -0.03124999999999997 0.48325317547305485 0.49999999999999994
vt 8.673617379884035e-19 0.991911913763006
vt 0.00404404311849697 0.9929954996624571
vt 0 1
vt 0.0078125 0.99581328125
vt 0.0078125 1
vt 0 0.997906640625
vt 0.008088096792379552 0.9959559621591889
vt 0.007004491196306773 1
vt 0 0.9959559621591889
vt 0.00808808623699394 0.9959559568815031
vt 0.007004500337542835 1
vt 0 0.9959559568815031
vt 0.00418671875 1
vt 0 1
vt 0.002093359375 0.9921875
vt 0.004044037840811051 1
vt 0 0.9989163944039272
vt 0.00404403784081105 0.9919119032076205
vt 0.004044043118496969 1
vt 0 0.9989164141005489
vt 0.00404404311849697 0.991911913763006
vt 0 1
vt 0 0.99581328125
vt 0.0078125 0.997906640625
vt 0 1
vt 0.0010836055960727793 0.9959559621591889
vt 0.008088096792379552 1
vt 0 1
vt 0.0010835858994511045 0.9959559568815031
vt 0.00808808623699394 1
vt 0 0.9921875
vt 0.00418671875 0.9921875
vt 0.002093359375 1
vt 0 0.9919119032076205
vt 0.004044037840811051 0.9929955088036932
vt 1.3010426069826053e-18 1
vn 1 1.788170329647511e-15 4.4088545817495227e-17
vn 1 1.7763568394002505e-15 0
vn 1 1.788170329647511e-15 -4.4088545817495227e-17
vn 1 1.6999932380125202e-15 4.408854581749543e-17
vn 1 1.7609487126444e-15 2.775557561562736e-17
vn 1 1.8794080991785807e-15 5.949667257334719e-17
vn 1 1.760414754031882e-15 -5.949667257335155e-17
vn 1 1.7763568394002505e-15 0
vn 1 1.760414754031882e-15 5.949667257335155e-17
vn 1 1.8794080991785854e-15 -5.949667257335175e-17
vn 1 1.760948712644397e-15 -2.7755575615629696e-17
vn 1 1.6999932380125179e-15 -4.4088545817497433e-17
usemtl m_7f006184-912e-d2e5-7da1-a0ad87f5b345
f 1/1/1 2/2/1 3/3/1
f 2/4/2 4/5/2 3/6/2
f 4/7/3 5/8/3 3/9/3
f 5/10/4 6/11/4 3/12/4
f 6/13/5 7/14/5 3/15/5
f 7/16/6 8/17/6 3/18/6
f 8/19/7 9/20/7 3/21/7
f 9/22/8 10/23/8 3/24/8
f 10/25/9 11/26/9 3/27/9
f 11/28/10 12/29/10 3/30/10
f 12/31/11 13/32/11 3/33/11
f 13/34/12 1/35/12 3/36/12
o cube
v 0.014062499999999978 -0.4375 -0.5
v -0.03281250000000002 -0.4375 -0.5
v -0.03281250000000002 0.5625 -0.5
v 0.014062499999999978 0.5625 -0.5
v 0.014062499999999978 -0.4375 0.5
v 0.014062499999999978 0.5625 0.5
v -0.03281250000000002 -0.4375 0.5
v -0.03281250000000002 0.5625 0.5
vt 0.002380952380952381 0.5952380952380953
vt 0.053013392857142856 0.5952380952380953
vt 0.053013392857142856 0.7238095238095238
vt 0.002380952380952381 0.7238095238095238
vt 0.06904761904761905 0.6261904761904762
vt 0 0.6261904761904762
vt 0 0.6428571428571428
vt 0.06904761904761905 0.6428571428571428
vt 0.0761904761904762 0.40714285714285725
vt 0.12682291666666667 0.40714285714285725
vt 0.12682291666666667 0.5357142857142857
vt 0.0761904761904762 0.5357142857142857
vt 0 0
vt 1 0
vt 1 1
vt 0 1
vt 0.014285714285714285 0.4380952380952381
vt 0.06491815476190475 0.4380952380952381
vt 0.06491815476190475 0.5666666666666667
vt 0.014285714285714285 0.5666666666666667
vt 0.11904761904761904 0.41666666666666674
vt 0.1696800595238095 0.41666666666666674
vt 0.1696800595238095 0.5452380952380953
vt 0.11904761904761904 0.5452380952380953
vn 0 0 -1
vn 1 0 0
vn 0 0 1
vn -1 0 0
vn 0 1 0
vn 0 -1 0
usemtl m_261851f6-3bc0-7c1f-dfe5-1144e49b4096
f 14/37/13 15/38/13 16/39/13 17/40/13
f 18/41/14 14/42/14 17/43/14 19/44/14
f 20/45/15 18/46/15 19/47/15 21/48/15
f 15/49/16 20/50/16 21/51/16 16/52/16
f 21/53/17 19/54/17 17/55/17 16/56/17
f 15/57/18 14/58/18 18/59/18 20/60/18
o cube
v 0.03125 -0.25 -0.046875
v -0.03125 -0.25 -0.046875
v -0.03125 -0.125 -0.046875
v 0.03125 -0.125 -0.046875
v 0.03125 -0.25 0.046875
v 0.03125 -0.125 0.046875
v -0.03125 -0.25 0.046875
v -0.03125 -0.125 0.046875
vt 0 0.998046875
vt 0.0009765625 0.998046875
vt 0.0009765625 1
vt 0 1
vt 0 0.998046875
vt 0.00146484375 0.998046875
vt 0.00146484375 1
vt 0 1
vt 0 0.998046875
vt 0.0009765625 0.998046875
vt 0.0009765625 1
vt 0 1
vt 0 0.998046875
vt 0.00146484375 0.998046875
vt 0.00146484375 1
vt 0 1
vt 0 0.99853515625
vt 0.0009765625 0.99853515625
vt 0.0009765625 1
vt 0 1
vt 0 0.99853515625
vt 0.0009765625 0.99853515625
vt 0.0009765625 1
vt 0 1
vn 0 0 -1
vn 1 0 0
vn 0 0 1
vn -1 0 0
vn 0 1 0
vn 0 -1 0
usemtl m_7f006184-912e-d2e5-7da1-a0ad87f5b345
f 22/61/19 23/62/19 24/63/19 25/64/19
f 26/65/20 22/66/20 25/67/20 27/68/20
f 28/69/21 26/70/21 27/71/21 29/72/21
f 23/73/22 28/74/22 29/75/22 24/76/22
f 29/77/23 27/78/23 25/79/23 24/80/23
f 23/81/24 22/82/24 26/83/24 28/84/24
o cube
v 0.046875 -0.25 -0.03125
v 0.03125 -0.25 -0.03125
v 0.03125 -0.125 -0.03125
v 0.046875 -0.125 -0.03125
v 0.046875 -0.25 0.03125
v 0.046875 -0.125 0.03125
v 0.03125 -0.25 0.03125
v 0.03125 -0.125 0.03125
vt 0 0.998046875
vt 0.000244140625 0.998046875
vt 0.000244140625 1
vt 0 1
vt 0 0.998046875
vt 0.0009765625 0.998046875
vt 0.0009765625 1
vt 0 1
vt 0 0.998046875
vt 0.000244140625 0.998046875
vt 0.000244140625 1
vt 0 1
vt 0 0.998046875
vt 0.0009765625 0.998046875
vt 0.0009765625 1
vt 0 1
vt 0 0.9990234375
vt 0.000244140625 0.9990234375
vt 0.000244140625 1
vt 0 1
vt 0 0.9990234375
vt 0.000244140625 0.9990234375
vt 0.000244140625 1
vt 0 1
vn 0 0 -1
vn 1 0 0
vn 0 0 1
vn -1 0 0
vn 0 1 0
vn 0 -1 0
usemtl m_7f006184-912e-d2e5-7da1-a0ad87f5b345
f 30/85/25 31/86/25 32/87/25 33/88/25
f 34/89/26 30/90/26 33/91/26 35/92/26
f 36/93/27 34/94/27 35/95/27 37/96/27
f 31/97/28 36/98/28 37/99/28 32/100/28
f 37/101/29 35/102/29 33/103/29 32/104/29
f 31/105/30 30/106/30 34/107/30 36/108/30
o circle
v -0.03124999999999992 0.4542468245269452 -0.3917468245269452
v -0.03124999999999989 0.4375 -0.4207531754730549
v -0.03125 0.5 -0.43750000000000006
v -0.03124999999999989 0.4375 -0.4542468245269452
v -0.03124999999999992 0.4542468245269452 -0.4832531754730549
v -0.03124999999999997 0.4832531754730548 -0.5
v -0.03125000000000003 0.5167468245269451 -0.5
v -0.03125000000000008 0.5457531754730548 -0.4832531754730549
v -0.03125000000000011 0.5625 -0.4542468245269452
v -0.03125000000000011 0.5625 -0.4207531754730549
v -0.03125000000000008 0.5457531754730548 -0.3917468245269452
v -0.03125000000000003 0.5167468245269452 -0.37500000000000006
v -0.03124999999999997 0.48325317547305485 -0.37500000000000006
vt 8.673617379884035e-19 0.991911913763006
vt 0.00404404311849697 0.9929954996624571
vt 0 1
vt 0.0078125 0.99581328125
vt 0.0078125 1
vt 0 0.997906640625
vt 0.008088096792379552 0.9959559621591889
vt 0.007004491196306773 1
vt 0 0.9959559621591889
vt 0.00808808623699394 0.9959559568815031
vt 0.007004500337542835 1
vt 0 0.9959559568815031
vt 0.00418671875 1
vt 0 1
vt 0.002093359375 0.9921875
vt 0.004044037840811051 1
vt 0 0.9989163944039272
vt 0.00404403784081105 0.9919119032076205
vt 0.004044043118496969 1
vt 0 0.9989164141005489
vt 0.00404404311849697 0.991911913763006
vt 0 1
vt 0 0.99581328125
vt 0.0078125 0.997906640625
vt 0 1
vt 0.0010836055960727793 0.9959559621591889
vt 0.008088096792379552 1
vt 0 1
vt 0.0010835858994511045 0.9959559568815031
vt 0.00808808623699394 1
vt 0 0.9921875
vt 0.00418671875 0.9921875
vt 0.002093359375 1
vt 0 0.9919119032076205
vt 0.004044037840811051 0.9929955088036932
vt 1.3010426069826053e-18 1
vn 1 1.788170329647511e-15 4.4088545817495227e-17
vn 1 1.7763568394002505e-15 0
vn 1 1.788170329647511e-15 -4.4088545817495227e-17
vn 1 1.6999932380125202e-15 4.408854581749543e-17
vn 1 1.7609487126444e-15 2.775557561562736e-17
vn 1 1.8794080991785807e-15 5.949667257334719e-17
vn 1 1.760414754031882e-15 -5.949667257335155e-17
vn 1 1.7763568394002505e-15 0
vn 1 1.760414754031882e-15 5.949667257335155e-17
vn 1 1.8794080991785854e-15 -5.949667257335175e-17
vn 1 1.760948712644397e-15 -2.7755575615629696e-17
vn 1 1.6999932380125179e-15 -4.4088545817497433e-17
usemtl m_7f006184-912e-d2e5-7da1-a0ad87f5b345
f 38/109/31 39/110/31 40/111/31
f 39/112/32 41/113/32 40/114/32
f 41/115/33 42/116/33 40/117/33
f 42/118/34 43/119/34 40/120/34
f 43/121/35 44/122/35 40/123/35
f 44/124/36 45/125/36 40/126/36
f 45/127/37 46/128/37 40/129/37
f 46/130/38 47/131/38 40/132/38
f 47/133/39 48/134/39 40/135/39
f 48/136/40 49/137/40 40/138/40
f 49/139/41 50/140/41 40/141/41
f 50/142/42 38/143/42 40/144/42
o circle
v -0.03124999999999992 -0.4207531754730548 0.0457531754730548
v -0.03124999999999989 -0.4375 0.016746824526945092
v -0.03125 -0.375 -5.551115123125783e-17
v -0.03124999999999989 -0.4375 -0.016746824526945203
v -0.03124999999999992 -0.4207531754730548 -0.04575317547305491
v -0.03124999999999997 -0.3917468245269452 -0.0625
v -0.03125000000000003 -0.3582531754730549 -0.06250000000000006
v -0.03125000000000008 -0.3292468245269452 -0.04575317547305491
v -0.03125000000000011 -0.3125 -0.016746824526945203
v -0.03125000000000011 -0.3125 0.016746824526945092
v -0.03125000000000008 -0.3292468245269452 0.0457531754730548
v -0.03125000000000003 -0.3582531754730548 0.062499999999999944
v -0.03124999999999997 -0.39174682452694515 0.062499999999999944
vt 8.673617379884035e-19 0.991911913763006
vt 0.00404404311849697 0.9929954996624571
vt 0 1
vt 0.0078125 0.99581328125
vt 0.0078125 1
vt 0 0.997906640625
vt 0.008088096792379552 0.9959559621591889
vt 0.007004491196306773 1
vt 0 0.9959559621591889
vt 0.00808808623699394 0.9959559568815031
vt 0.007004500337542835 1
vt 0 0.9959559568815031
vt 0.00418671875 1
vt 0 1
vt 0.002093359375 0.9921875
vt 0.004044037840811051 1
vt 0 0.9989163944039272
vt 0.00404403784081105 0.9919119032076205
vt 0.004044043118496969 1
vt 0 0.9989164141005489
vt 0.00404404311849697 0.991911913763006
vt 0 1
vt 0 0.99581328125
vt 0.0078125 0.997906640625
vt 0 1
vt 0.0010836055960727793 0.9959559621591889
vt 0.008088096792379552 1
vt 0 1
vt 0.0010835858994511045 0.9959559568815031
vt 0.00808808623699394 1
vt 0 0.9921875
vt 0.00418671875 0.9921875
vt 0.002093359375 1
vt 0 0.9919119032076205
vt 0.004044037840811051 0.9929955088036932
vt 1.3010426069826053e-18 1
vn 1 1.788170329647511e-15 4.4088545817495227e-17
vn 1 1.7763568394002505e-15 0
vn 1 1.788170329647511e-15 -4.4088545817495227e-17
vn 1 1.6999932380125202e-15 4.408854581749543e-17
vn 1 1.7609487126444e-15 2.775557561562736e-17
vn 1 1.8794080991785807e-15 5.949667257334719e-17
vn 1 1.760414754031882e-15 -5.949667257335155e-17
vn 1 1.7763568394002505e-15 0
vn 1 1.760414754031882e-15 5.949667257335155e-17
vn 1 1.8794080991785854e-15 -5.949667257335175e-17
vn 1 1.760948712644397e-15 -2.7755575615629696e-17
vn 1 1.6999932380125179e-15 -4.4088545817497433e-17
usemtl m_7f006184-912e-d2e5-7da1-a0ad87f5b345
f 51/145/43 52/146/43 53/147/43
f 52/148/44 54/149/44 53/150/44
f 54/151/45 55/152/45 53/153/45
f 55/154/46 56/155/46 53/156/46
f 56/157/47 57/158/47 53/159/47
f 57/160/48 58/161/48 53/162/48
f 58/163/49 59/164/49 53/165/49
f 59/166/50 60/167/50 53/168/50
f 60/169/51 61/170/51 53/171/51
f 61/172/52 62/173/52 53/174/52
f 62/175/53 63/176/53 53/177/53
f 63/178/54 51/179/54 53/180/54
o cube
v -0.03125 -0.38527411289002855 -0.06477559492264273
v -0.03125 -0.38527411289002855 -0.06477559492264273
v -0.03125 0.45372685111186994 -0.48308604471308847
v -0.03125 0.45372685111186994 -0.48308604471308847
v -0.03125 -0.343443067910984 0.01912450147754713
v -0.03125 0.4955578960909146 -0.39918594831289866
v -0.03125 -0.343443067910984 0.01912450147754713
v -0.03125 0.4955578960909146 -0.39918594831289866
vt 0 0.998046875
vt 0.0009765625 0.998046875
vt 0.0009765625 1
vt 0 1
vt 0 0.998046875
vt 0.00146484375 0.998046875
vt 0.00146484375 1
vt 0 1
vt 0 0.998046875
vt 0.0009765625 0.998046875
vt 0.0009765625 1
vt 0 1
vt 0 0.998046875
vt 0.00146484375 0.998046875
vt 0.00146484375 1
vt 0 1
vt 0 0.99853515625
vt 0.0009765625 0.99853515625
vt 0.0009765625 1
vt 0 1
vt 0 0.99853515625
vt 0.0009765625 0.99853515625
vt 0.0009765625 1
vt 0 1
vn 0 0 0
vn 1 0 0
vn 0 0 0
vn -1 0 0
vn 0 0 0
vn 0 0 0
usemtl m_7f006184-912e-d2e5-7da1-a0ad87f5b345
f 64/181/55 65/182/55 66/183/55 67/184/55
f 68/185/56 64/186/56 67/187/56 69/188/56
f 70/189/57 68/190/57 69/191/57 71/192/57
f 65/193/58 70/194/58 71/195/58 66/196/58
f 71/197/59 69/198/59 67/199/59 66/200/59
f 65/201/60 64/202/60 68/203/60 70/204/60
o cube
v -0.03125 -0.4132408116900919 0.05083191326296116
v -0.03125 -0.4132408116900919 0.05083191326296116
v -0.03125 0.48169354991193314 0.49702972637277
v -0.03125 0.48169354991193314 0.49702972637277
v -0.03125 -0.3504942442215251 -0.07501823133732363
v -0.03125 0.5444401173805 0.3711795817724851
v -0.03125 -0.3504942442215251 -0.07501823133732363
v -0.03125 0.5444401173805 0.3711795817724851
vt 0 0.998046875
vt 0.0009765625 0.998046875
vt 0.0009765625 1
vt 0 1
vt 0 0.998046875
vt 0.00146484375 0.998046875
vt 0.00146484375 1
vt 0 1
vt 0 0.998046875
vt 0.0009765625 0.998046875
vt 0.0009765625 1
vt 0 1
vt 0 0.998046875
vt 0.00146484375 0.998046875
vt 0.00146484375 1
vt 0 1
vt 0 0.99853515625
vt 0.0009765625 0.99853515625
vt 0.0009765625 1
vt 0 1
vt 0 0.99853515625
vt 0.0009765625 0.99853515625
vt 0.0009765625 1
vt 0 1
vn 0 0 0
vn -1 0 0
vn 0 0 0
vn 1 0 0
vn 0 0 0
vn 0 0 0
usemtl m_7f006184-912e-d2e5-7da1-a0ad87f5b345
f 72/205/61 73/206/61 74/207/61 75/208/61
f 76/209/62 72/210/62 75/211/62 77/212/62
f 78/213/63 76/214/63 77/215/63 79/216/63
f 73/217/64 78/218/64 79/219/64 74/220/64
f 79/221/65 77/222/65 75/223/65 74/224/65
f 73/225/66 72/226/66 76/227/66 78/228/66
o cube
v -0.03125 -0.38527411289002855 -0.06477559492264273
v -0.03125 -0.38527411289002855 -0.06477559492264273
v -0.03125 0.45372685111186994 -0.48308604471308847
v -0.03125 0.45372685111186994 -0.48308604471308847
v -0.03125 -0.30161202293193945 0.10302459787773699
v -0.03125 0.5373889410699592 -0.31528585191270875
v -0.03125 -0.30161202293193945 0.10302459787773699
v -0.03125 0.5373889410699592 -0.31528585191270875
vt 0 0.998046875
vt 0.0009765625 0.998046875
vt 0.0009765625 1
vt 0 1
vt 0 0.998046875
vt 0.00146484375 0.998046875
vt 0.00146484375 1
vt 0 1
vt 0 0.998046875
vt 0.0009765625 0.998046875
vt 0.0009765625 1
vt 0 1
vt 0 0.998046875
vt 0.00146484375 0.998046875
vt 0.00146484375 1
vt 0 1
vt 0 0.99853515625
vt 0.0009765625 0.99853515625
vt 0.0009765625 1
vt 0 1
vt 0 0.99853515625
vt 0.0009765625 0.99853515625
vt 0.0009765625 1
vt 0 1
vn 0 0 0
vn 1 0 0
vn 0 0 0
vn -1 0 0
vn 0 0 0
vn 0 0 0
usemtl m_7f006184-912e-d2e5-7da1-a0ad87f5b345
f 80/229/67 81/230/67 82/231/67 83/232/67
f 84/233/68 80/234/68 83/235/68 85/236/68
f 86/237/69 84/238/69 85/239/69 87/240/69
f 81/241/70 86/242/70 87/243/70 82/244/70
f 87/245/71 85/246/71 83/247/71 82/248/71
f 81/249/72 80/250/72 84/251/72 86/252/72
o cube
v -0.03125 0.4218749999999999 -0.4593750000000001
v -0.03125 0.4218749999999999 -0.4593750000000001
v -0.03125 0.42187500000000006 0.4156249999999999
v -0.03125 0.42187500000000006 0.4156249999999999
v -0.03125 0.5624999999999999 -0.4593750000000001
v -0.03125 0.5625 0.4156249999999999
v -0.03125 0.5624999999999999 -0.4593750000000001
v -0.03125 0.5625 0.4156249999999999
vt 0 0.998046875
vt 0.0009765625 0.998046875
vt 0.0009765625 1
vt 0 1
vt 0 0.998046875
vt 0.00146484375 0.998046875
vt 0.00146484375 1
vt 0 1
vt 0 0.998046875
vt 0.0009765625 0.998046875
vt 0.0009765625 1
vt 0 1
vt 0 0.998046875
vt 0.00146484375 0.998046875
vt 0.00146484375 1
vt 0 1
vt 0 0.99853515625
vt 0.0009765625 0.99853515625
vt 0.0009765625 1
vt 0 1
vt 0 0.99853515625
vt 0.0009765625 0.99853515625
vt 0.0009765625 1
vt 0 1
vn 0 0 0
vn -1 0 0
vn 0 0 0
vn 1 0 0
vn 0 0 0
vn 0 0 0
usemtl m_7f006184-912e-d2e5-7da1-a0ad87f5b345
f 88/253/73 89/254/73 90/255/73 91/256/73
f 92/257/74 88/258/74 91/259/74 93/260/74
f 94/261/75 92/262/75 93/263/75 95/264/75
f 89/265/76 94/266/76 95/267/76 90/268/76
f 95/269/77 93/270/77 91/271/77 90/272/77
f 89/273/78 88/274/78 92/275/78 94/276/78
o cube
v -0.03125 0.2812499999999999 -0.3968750000000001
v -0.03125 0.2812499999999999 -0.3968750000000001
v -0.03125 0.28125000000000006 0.3531249999999999
v -0.03125 0.28125000000000006 0.3531249999999999
v -0.03125 0.4218749999999999 -0.3968750000000001
v -0.03125 0.42187500000000006 0.35312499999999986
v -0.03125 0.4218749999999999 -0.3968750000000001
v -0.03125 0.42187500000000006 0.35312499999999986
vt 0 0.998046875
vt 0.0009765625 0.998046875
vt 0.0009765625 1
vt 0 1
vt 0 0.998046875
vt 0.00146484375 0.998046875
vt 0.00146484375 1
vt 0 1
vt 0 0.998046875
vt 0.0009765625 0.998046875
vt 0.0009765625 1
vt 0 1
vt 0 0.998046875
vt 0.00146484375 0.998046875
vt 0.00146484375 1
vt 0 1
vt 0 0.99853515625
vt 0.0009765625 0.99853515625
vt 0.0009765625 1
vt 0 1
vt 0 0.99853515625
vt 0.0009765625 0.99853515625
vt 0.0009765625 1
vt 0 1
vn 0 0 0
vn -1 0 0
vn 0 0 0
vn 1 0 0
vn 0 0 0
vn 0 0 0
usemtl m_7f006184-912e-d2e5-7da1-a0ad87f5b345
f 96/277/79 97/278/79 98/279/79 99/280/79
f 100/281/80 96/282/80 99/283/80 101/284/80
f 102/285/81 100/286/81 101/287/81 103/288/81
f 97/289/82 102/290/82 103/291/82 98/292/82
f 103/293/83 101/294/83 99/295/83 98/296/83
f 97/297/84 96/298/84 100/299/84 102/300/84
o cube
v -0.03125 0.15624999999999992 -0.2718750000000001
v -0.03125 0.15624999999999992 -0.2718750000000001
v -0.03125 0.15625000000000003 0.2906249999999999
v -0.03125 0.15625000000000003 0.2906249999999999
v -0.03125 0.2968749999999999 -0.2718750000000001
v -0.03125 0.296875 0.29062499999999986
v -0.03125 0.2968749999999999 -0.2718750000000001
v -0.03125 0.296875 0.29062499999999986
vt 0 0.998046875
vt 0.0009765625 0.998046875
vt 0.0009765625 1
vt 0 1
vt 0 0.998046875
vt 0.00146484375 0.998046875
vt 0.00146484375 1
vt 0 1
vt 0 0.998046875
vt 0.0009765625 0.998046875
vt 0.0009765625 1
vt 0 1
vt 0 0.998046875
vt 0.00146484375 0.998046875
vt 0.00146484375 1
vt 0 1
vt 0 0.99853515625
vt 0.0009765625 0.99853515625
vt 0.0009765625 1
vt 0 1
vt 0 0.99853515625
vt 0.0009765625 0.99853515625
vt 0.0009765625 1
vt 0 1
vn 0 0 0
vn -1 0 0
vn 0 0 0
vn 1 0 0
vn 0 0 0
vn 0 0 0
usemtl m_7f006184-912e-d2e5-7da1-a0ad87f5b345
f 104/301/85 105/302/85 106/303/85 107/304/85
f 108/305/86 104/306/86 107/307/86 109/308/86
f 110/309/87 108/310/87 109/311/87 111/312/87
f 105/313/88 110/314/88 111/315/88 106/316/88
f 111/317/89 109/318/89 107/319/89 106/320/89
f 105/321/90 104/322/90 108/323/90 110/324/90
o cube
v -0.03125 0.03124999999999991 -0.2718750000000001
v -0.03125 0.03124999999999991 -0.2718750000000001
v -0.03125 0.03125000000000002 0.2281249999999999
v -0.03125 0.03125000000000002 0.2281249999999999
v -0.03125 0.1718749999999999 -0.2718750000000001
v -0.03125 0.171875 0.22812499999999986
v -0.03125 0.1718749999999999 -0.2718750000000001
v -0.03125 0.171875 0.22812499999999986
vt 0 0.998046875
vt 0.0009765625 0.998046875
vt 0.0009765625 1
vt 0 1
vt 0 0.998046875
vt 0.00146484375 0.998046875
vt 0.00146484375 1
vt 0 1
vt 0 0.998046875
vt 0.0009765625 0.998046875
vt 0.0009765625 1
vt 0 1
vt 0 0.998046875
vt 0.00146484375 0.998046875
vt 0.00146484375 1
vt 0 1
vt 0 0.99853515625
vt 0.0009765625 0.99853515625
vt 0.0009765625 1
vt 0 1
vt 0 0.99853515625
vt 0.0009765625 0.99853515625
vt 0.0009765625 1
vt 0 1
vn 0 0 0
vn -1 0 0
vn 0 0 0
vn 1 0 0
vn 0 0 0
vn 0 0 0
usemtl m_7f006184-912e-d2e5-7da1-a0ad87f5b345
f 112/325/91 113/326/91 114/327/91 115/328/91
f 116/329/92 112/330/92 115/331/92 117/332/92
f 118/333/93 116/334/93 117/335/93 119/336/93
f 113/337/94 118/338/94 119/339/94 114/340/94
f 119/341/95 117/342/95 115/343/95 114/344/95
f 113/345/96 112/346/96 116/347/96 118/348/96
o cube
v -0.03125 -0.15625000000000006 -0.14687500000000012
v -0.03125 -0.15625000000000006 -0.14687500000000012
v -0.03125 -0.15625 0.1031249999999999
v -0.03125 -0.15625 0.1031249999999999
v -0.03125 -0.01562500000000007 -0.14687500000000012
v -0.03125 -0.015625000000000014 0.10312499999999986
v -0.03125 -0.01562500000000007 -0.14687500000000012
v -0.03125 -0.015625000000000014 0.10312499999999986
vt 0 0.998046875
vt 0.0009765625 0.998046875
vt 0.0009765625 1
vt 0 1
vt 0 0.998046875
vt 0.00146484375 0.998046875
vt 0.00146484375 1
vt 0 1
vt 0 0.998046875
vt 0.0009765625 0.998046875
vt 0.0009765625 1
vt 0 1
vt 0 0.998046875
vt 0.00146484375 0.998046875
vt 0.00146484375 1
vt 0 1
vt 0 0.99853515625
vt 0.0009765625 0.99853515625
vt 0.0009765625 1
vt 0 1
vt 0 0.99853515625
vt 0.0009765625 0.99853515625
vt 0.0009765625 1
vt 0 1
vn 0 0 0
vn -1 0 0
vn 0 0 0
vn 1 0 0
vn 0 0 0
vn 0 0 0
usemtl m_7f006184-912e-d2e5-7da1-a0ad87f5b345
f 120/349/97 121/350/97 122/351/97 123/352/97
f 124/353/98 120/354/98 123/355/98 125/356/98
f 126/357/99 124/358/99 125/359/99 127/360/99
f 121/361/100 126/362/100 127/363/100 122/364/100
f 127/365/101 125/366/101 123/367/101 122/368/101
f 121/369/102 120/370/102 124/371/102 126/372/102
o cube
v -0.03125 -0.09375000000000006 -0.14687500000000012
v -0.03125 -0.09375000000000006 -0.14687500000000012
v -0.03125 -0.09375 0.16562499999999988
v -0.03125 -0.09375 0.16562499999999988
v -0.03125 0.04687499999999993 -0.14687500000000012
v -0.03125 0.046875 0.16562499999999986
v -0.03125 0.04687499999999993 -0.14687500000000012
v -0.03125 0.046875 0.16562499999999986
vt 0 0.998046875
vt 0.0009765625 0.998046875
vt 0.0009765625 1
vt 0 1
vt 0 0.998046875
vt 0.00146484375 0.998046875
vt 0.00146484375 1
vt 0 1
vt 0 0.998046875
vt 0.0009765625 0.998046875
vt 0.0009765625 1
vt 0 1
vt 0 0.998046875
vt 0.00146484375 0.998046875
vt 0.00146484375 1
vt 0 1
vt 0 0.99853515625
vt 0.0009765625 0.99853515625
vt 0.0009765625 1
vt 0 1
vt 0 0.99853515625
vt 0.0009765625 0.99853515625
vt 0.0009765625 1
vt 0 1
vn 0 0 0
vn -1 0 0
vn 0 0 0
vn 1 0 0
vn 0 0 0
vn 0 0 0
usemtl m_7f006184-912e-d2e5-7da1-a0ad87f5b345
f 128/373/103 129/374/103 130/375/103 131/376/103
f 132/377/104 128/378/104 131/379/104 133/380/104
f 134/381/105 132/382/105 133/383/105 135/384/105
f 129/385/106 134/386/106 135/387/106 130/388/106
f 135/389/107 133/390/107 131/391/107 130/392/107
f 129/393/108 128/394/108 132/395/108 134/396/108