# Made in Blockbench 4.10.4
mtllib scotrail_platform_2.mtl

o cube
v -0.035937500000000025 -0.125 -0.1875
v -0.04531250000000002 -0.125 -0.1875
v -0.04531250000000002 0.25 -0.1875
v -0.035937500000000025 0.25 -0.1875
v -0.035937500000000025 -0.125 0.1875
v -0.035937500000000025 0.25 0.1875
v -0.04531250000000002 -0.125 0.1875
v -0.04531250000000002 0.25 0.1875
vt 0 0.8714285714285714
vt 0.05063244047619048 0.8714285714285714
vt 0.05063244047619048 1
vt 0 1
vt 0.06904761904761905 0.9833333333333333
vt 0 0.9833333333333333
vt 0 1
vt 0.06904761904761905 1
vt 0 0.8714285714285714
vt 0.05063244047619048 0.8714285714285714
vt 0.05063244047619048 1
vt 0 1
vt 0 0
vt 1 0
vt 1 1
vt 0 1
vt 0 0.8714285714285714
vt 0.05063244047619048 0.8714285714285714
vt 0.05063244047619048 1
vt 0 1
vt 0 0.8714285714285714
vt 0.05063244047619048 0.8714285714285714
vt 0.05063244047619048 1
vt 0 1
vn 0 0 -1
vn 1 0 0
vn 0 0 1
vn -1 0 0
vn 0 1 0
vn 0 -1 0
usemtl m_7bd87a2c-cf90-9428-99f3-7b604640d939
f 1/1/1 2/2/1 3/3/1 4/4/1
f 5/5/2 1/6/2 4/7/2 6/8/2
f 7/9/3 5/10/3 6/11/3 8/12/3
f 2/13/4 7/14/4 8/15/4 3/16/4
f 8/17/5 6/18/5 4/19/5 3/20/5
f 2/21/6 1/22/6 5/23/6 7/24/6
o cube
v -0.015625 -0.125 -0.1875
v -0.03125 -0.125 -0.1875
v -0.03125 0.25 -0.1875
v -0.015625 0.25 -0.1875
v -0.015625 -0.125 0.1875
v -0.015625 0.25 0.1875
v -0.03125 -0.125 0.1875
v -0.03125 0.25 0.1875
vt 0 0.625
vt 0.015625 0.625
vt 0.015625 1
vt 0 1
vt 0 0.625
vt 0.375 0.625
vt 0.375 1
vt 0 1
vt 0 0.625
vt 0.015625 0.625
vt 0.015625 1
vt 0 1
vt 0 0.625
vt 0.375 0.625
vt 0.375 1
vt 0 1
vt 0 0.625
vt 0.015625 0.625
vt 0.015625 1
vt 0 1
vt 0 0.625
vt 0.015625 0.625
vt 0.015625 1
vt 0 1
vn 0 0 -1
vn 1 0 0
vn 0 0 1
vn -1 0 0
vn 0 1 0
vn 0 -1 0
usemtl m_122e5874-b842-9271-7ca3-28ee8e8f9447
f 9/25/7 10/26/7 11/27/7 12/28/7
f 13/29/8 9/30/8 12/31/8 14/32/8
f 15/33/9 13/34/9 14/35/9 16/36/9
f 10/37/10 15/38/10 16/39/10 11/40/10
f 16/41/11 14/42/11 12/43/11 11/44/11
f 10/45/12 9/46/12 13/47/12 15/48/12
o cube
v -0.035937500000000025 -0.125 -0.1875
v -0.04531250000000002 -0.125 -0.1875
v -0.04531250000000002 0.25 -0.1875
v -0.035937500000000025 0.25 -0.1875
v -0.035937500000000025 -0.125 0.1875
v -0.035937500000000025 0.25 0.1875
v -0.04531250000000002 -0.125 0.1875
v -0.04531250000000002 0.25 0.1875
vt 0 0.8714285714285714
vt 0.05063244047619048 0.8714285714285714
vt 0.05063244047619048 1
vt 0 1
vt 0.06904761904761905 0.9833333333333333
vt 0 0.9833333333333333
vt 0 1
vt 0.06904761904761905 1
vt 0 0.8714285714285714
vt 0.05063244047619048 0.8714285714285714
vt 0.05063244047619048 1
vt 0 1
vt 0 0
vt 1 0
vt 1 1
vt 0 1
vt 0 0.8714285714285714
vt 0.05063244047619048 0.8714285714285714
vt 0.05063244047619048 1
vt 0 1
vt 0 0.8714285714285714
vt 0.05063244047619048 0.8714285714285714
vt 0.05063244047619048 1
vt 0 1
vn 0 0 -1
vn 1 0 0
vn 0 0 1
vn -1 0 0
vn 0 1 0
vn 0 -1 0
usemtl m_7bd87a2c-cf90-9428-99f3-7b604640d939
f 17/49/13 18/50/13 19/51/13 20/52/13
f 21/53/14 17/54/14 20/55/14 22/56/14
f 23/57/15 21/58/15 22/59/15 24/60/15
f 18/61/16 23/62/16 24/63/16 19/64/16
f 24/65/17 22/66/17 20/67/17 19/68/17
f 18/69/18 17/70/18 21/71/18 23/72/18
o cube
v -0.035937500000000025 -0.125 -0.1875
v -0.04531250000000002 -0.125 -0.1875
v -0.04531250000000002 0.25 -0.1875
v -0.035937500000000025 0.25 -0.1875
v -0.035937500000000025 -0.125 0.1875
v -0.035937500000000025 0.25 0.1875
v -0.04531250000000002 -0.125 0.1875
v -0.04531250000000002 0.25 0.1875
vt 0 0.8714285714285714
vt 0.05063244047619048 0.8714285714285714
vt 0.05063244047619048 1
vt 0 1
vt 0.06904761904761905 0.9833333333333333
vt 0 0.9833333333333333
vt 0 1
vt 0.06904761904761905 1
vt 0 0.8714285714285714
vt 0.05063244047619048 0.8714285714285714
vt 0.05063244047619048 1
vt 0 1
vt 0 0
vt 1 0
vt 1 1
vt 0 1
vt 0 0.8714285714285714
vt 0.05063244047619048 0.8714285714285714
vt 0.05063244047619048 1
vt 0 1
vt 0 0.8714285714285714
vt 0.05063244047619048 0.8714285714285714
vt 0.05063244047619048 1
vt 0 1
vn 0 0 -1
vn 1 0 0
vn 0 0 1
vn -1 0 0
vn 0 1 0
vn 0 -1 0
usemtl m_7bd87a2c-cf90-9428-99f3-7b604640d939
f 25/73/19 26/74/19 27/75/19 28/76/19
f 29/77/20 25/78/20 28/79/20 30/80/20
f 31/81/21 29/82/21 30/83/21 32/84/21
f 26/85/22 31/86/22 32/87/22 27/88/22
f 32/89/23 30/90/23 28/91/23 27/92/23
f 26/93/24 25/94/24 29/95/24 31/96/24
o cube
v -0.010937499999999954 -0.125 0.1875
v -0.0015624999999999598 -0.125 0.1875
v -0.0015624999999999598 0.25 0.1875
v -0.010937499999999954 0.25 0.1875
v -0.010937499999999996 -0.125 -0.1875
v -0.010937499999999996 0.25 -0.1875
v -0.0015625000000000014 -0.125 -0.1875
v -0.0015625000000000014 0.25 -0.1875
vt 0 0.8714285714285714
vt 0.05063244047619048 0.8714285714285714
vt 0.05063244047619048 1
vt 0 1
vt 0.06904761904761905 0.9833333333333333
vt 0 0.9833333333333333
vt 0 1
vt 0.06904761904761905 1
vt 0 0.8714285714285714
vt 0.05063244047619048 0.8714285714285714
vt 0.05063244047619048 1
vt 0 1
vt 0 0
vt 1 0
vt 1 1
vt 0 1
vt 0 0.8714285714285714
vt 0.05063244047619048 0.8714285714285714
vt 0.05063244047619048 1
vt 0 1
vt 0 0.8714285714285714
vt 0.05063244047619048 0.8714285714285714
vt 0.05063244047619048 1
vt 0 1
vn 1.2246467991473532e-16 0 1
vn -1 0 1.2246467991473532e-16
vn -1.2246467991473532e-16 0 -1
vn 1 0 -1.2246467991473532e-16
vn 0 1 0
vn 0 -1 0
usemtl m_7bd87a2c-cf90-9428-99f3-7b604640d939
f 33/97/25 34/98/25 35/99/25 36/100/25
f 37/101/26 33/102/26 36/103/26 38/104/26
f 39/105/27 37/106/27 38/107/27 40/108/27
f 34/109/28 39/110/28 40/111/28 35/112/28
f 40/113/29 38/114/29 36/115/29 35/116/29
f 34/117/30 33/118/30 37/119/30 39/120/30