# Made in Blockbench 4.10.4
mtllib steel_column.mtl

o cylinder
v 5.551115123125783e-17 0 0
v 5.551115123125783e-17 1 0
v 0.401923788646684 0 1.5
v 0.401923788646684 1 1.5
v 1.0980762113533158 0 1.0980762113533158
v 1.0980762113533158 1 1.0980762113533158
v 1.5 0 0.401923788646684
v 1.5 1 0.401923788646684
v 1.5 0 -0.4019237886466842
v 1.5 1 -0.4019237886466842
v 1.098076211353316 0 -1.098076211353316
v 1.098076211353316 1 -1.098076211353316
v 0.40192378864668454 0 -1.4999999999999996
v 0.40192378864668454 1 -1.4999999999999996
v -0.4019237886466833 0 -1.5
v -0.4019237886466833 1 -1.5
v -1.0980762113533158 0 -1.098076211353316
v -1.0980762113533158 1 -1.098076211353316
v -1.4999999999999996 0 -0.401923788646684
v -1.4999999999999996 1 -0.401923788646684
v -1.5 0 0.4019237886466831
v -1.5 1 0.4019237886466831
v -1.098076211353316 0 1.0980762113533158
v -1.098076211353316 1 1.0980762113533158
v -0.40192378864668377 0 1.5
v -0.40192378864668377 1 1.5
vt 0.00808808623699394 0.9959559568815031
vt 0.007004500337542835 1
vt 0 0.9959559568815031
vt 0 0.9921875
vt 0.00418671875 0.9921875
vt 0.00418671875 1
vt 0 1
vt 0 0.9919119032076205
vt 0.004044037840811051 0.9929955088036932
vt 1.3010426069826053e-18 1
vt 0.008088096792379552 0.9959559621591889
vt 0.007004491196306773 1
vt 0 0.9959559621591889
vt 0 0.9921875
vt 0.00418671875 0.9921875
vt 0.00418671875 1
vt 0 1
vt 8.673617379884035e-19 0.991911913763006
vt 0.00404404311849697 0.9929954996624571
vt 0 1
vt 0.0078125 0.99581328125
vt 0.0078125 1
vt 0 0.997906640625
vt 0 0.9921875
vt 0.00418671875 0.9921875
vt 0.00418671875 1
vt 0 1
vt 0.0078125 0.99581328125
vt 0.0078125 1
vt 0 0.997906640625
vt 8.673617379884035e-19 0.991911913763006
vt 0.00404404311849697 0.9929954996624571
vt 0 1
vt 0 0.9921875
vt 0.00418671875 0.9921875
vt 0.00418671875 1
vt 0 1
vt 0.008088096792379552 0.9959559621591889
vt 0.007004491196306773 1
vt 0 0.9959559621591889
vt 0 0.9919119032076205
vt 0.004044037840811051 0.9929955088036932
vt 1.3010426069826053e-18 1
vt 0 0.9921875
vt 0.00418671875 0.9921875
vt 0.00418671875 1
vt 0 1
vt 0.00808808623699394 0.9959559568815031
vt 0.007004500337542835 1
vt 0 0.9959559568815031
vt 0 0.9921875
vt 0.00418671875 0.9921875
vt 0.002093359375 1
vt 0 0.9921875
vt 0.00418671875 0.9921875
vt 0.00418671875 1
vt 0 1
vt 0.00418671875 1
vt 0 1
vt 0.002093359375 0.9921875
vt 0 1
vt 0.0010835858994511045 0.9959559568815031
vt 0.00808808623699394 1
vt 0 0.9921875
vt 0.00418671875 0.9921875
vt 0.00418671875 1
vt 0 1
vt 0.004044037840811051 1
vt 0 0.9989163944039272
vt 0.00404403784081105 0.9919119032076205
vt 0 1
vt 0.0010836055960727793 0.9959559621591889
vt 0.008088096792379552 1
vt 0 0.9921875
vt 0.00418671875 0.9921875
vt 0.00418671875 1
vt 0 1
vt 0.004044043118496969 1
vt 0 0.9989164141005489
vt 0.00404404311849697 0.991911913763006
vt 0 1
vt 0 0.99581328125
vt 0.0078125 0.997906640625
vt 0 0.9921875
vt 0.00418671875 0.9921875
vt 0.00418671875 1
vt 0 1
vt 0 1
vt 0 0.99581328125
vt 0.0078125 0.997906640625
vt 0.004044043118496969 1
vt 0 0.9989164141005489
vt 0.00404404311849697 0.991911913763006
vt 0 0.9921875
vt 0.00418671875 0.9921875
vt 0.00418671875 1
vt 0 1
vt 0 1
vt 0.0010836055960727793 0.9959559621591889
vt 0.008088096792379552 1
vt 0.004044037840811051 1
vt 0 0.9989163944039272
vt 0.00404403784081105 0.9919119032076205
vt 0 0.9921875
vt 0.00418671875 0.9921875
vt 0.00418671875 1
vt 0 1
vt 0 1
vt 0.0010835858994511045 0.9959559568815031
vt 0.00808808623699394 1
vt 0.00418671875 1
vt 0 1
vt 0.002093359375 0.9921875
vt 0 0.9921875
vt 0.00418671875 0.9921875
vt 0.00418671875 1
vt 0 1
vt 0 0.9921875
vt 0.00418671875 0.9921875
vt 0.002093359375 1
vn 0 -1 0
vn 0.5000000000000002 0 0.8660254037844387
vn 0 1 0
vn 0 -1 0
vn 0.8660254037844387 0 0.5000000000000002
vn 0 1 0
vn 0 -1 0
vn 1 0 0
vn 0 1 0
vn 0 -1 0
vn 0.8660254037844387 0 -0.5
vn 0 1 0
vn 0 -1 0
vn 0.4999999999999997 0 -0.8660254037844388
vn 0 1 0
vn 0 -1 0
vn 5.5245449808451715e-16 0 -1
vn 0 1 0
vn 0 -1 0
vn -0.49999999999999967 0 -0.8660254037844389
vn 0 1 0
vn 0 -1 0
vn -0.8660254037844388 0 -0.49999999999999967
vn 0 1 0
vn 0 -1 0
vn -1 0 -5.524544980845176e-16
vn 0 1 0
vn 0 -1 0
vn -0.8660254037844389 0 0.4999999999999995
vn 0 1 0
vn 0 -1 0
vn -0.49999999999999994 0 0.8660254037844387
vn 0 1 0
vn 0 -1 0
vn 0 0 1
vn 0 1 0
usemtl m_a219e867-bb51-7f11-c27c-a4738ef98cb4
f 5/1/1 3/2/1 1/3/1
f 3/4/2 5/5/2 6/6/2 4/7/2
f 4/8/3 6/9/3 2/10/3
f 7/11/4 5/12/4 1/13/4
f 5/14/5 7/15/5 8/16/5 6/17/5
f 6/18/6 8/19/6 2/20/6
f 9/21/7 7/22/7 1/23/7
f 7/24/8 9/25/8 10/26/8 8/27/8
f 8/28/9 10/29/9 2/30/9
f 11/31/10 9/32/10 1/33/10
f 9/34/11 11/35/11 12/36/11 10/37/11
f 10/38/12 12/39/12 2/40/12
f 13/41/13 11/42/13 1/43/13
f 11/44/14 13/45/14 14/46/14 12/47/14
f 12/48/15 14/49/15 2/50/15
f 15/51/16 13/52/16 1/53/16
f 13/54/17 15/55/17 16/56/17 14/57/17
f 14/58/18 16/59/18 2/60/18
f 17/61/19 15/62/19 1/63/19
f 15/64/20 17/65/20 18/66/20 16/67/20
f 16/68/21 18/69/21 2/70/21
f 19/71/22 17/72/22 1/73/22
f 17/74/23 19/75/23 20/76/23 18/77/23
f 18/78/24 20/79/24 2/80/24
f 21/81/25 19/82/25 1/83/25
f 19/84/26 21/85/26 22/86/26 20/87/26
f 20/88/27 22/89/27 2/90/27
f 23/91/28 21/92/28 1/93/28
f 21/94/29 23/95/29 24/96/29 22/97/29
f 22/98/30 24/99/30 2/100/30
f 25/101/31 23/102/31 1/103/31
f 23/104/32 25/105/32 26/106/32 24/107/32
f 24/108/33 26/109/33 2/110/33
f 3/111/34 25/112/34 1/113/34
f 25/114/35 3/115/35 4/116/35 26/117/35
f 26/118/36 4/119/36 2/120/36