# Made in Blockbench 4.10.4
mtllib track_switch.mtl

o cube
v 0.5625 0.171875 0.125
v 0.5625 0.171875 -0.125
v 0.5625 -0.046875 0.125
v 0.5625 -0.046875 -0.125
v 0.125 0.171875 -0.125
v 0.125 0.171875 0.125
v 0.125 -0.046875 -0.125
v 0.125 -0.046875 0.125
vt 0 1
vt 0.0068359375 1
vt 0.0068359375 0.99658203125
vt 0 0.99658203125
vt 0 1
vt 0.00390625 1
vt 0.00390625 0.99658203125
vt 0 0.99658203125
vt 0 1
vt 0.0068359375 1
vt 0.0068359375 0.99658203125
vt 0 0.99658203125
vt 0 1
vt 0.00390625 1
vt 0.00390625 0.99658203125
vt 0 0.99658203125
vt 0 1
vt 0.0068359375 1
vt 0.0068359375 0.99609375
vt 0 0.99609375
vt 0 1
vt 0.0068359375 1
vt 0.0068359375 0.99609375
vt 0 0.99609375
vn 0 0 -1
vn 1 0 0
vn 0 0 1
vn -1 0 0
vn 0 1 0
vn 0 -1 0
usemtl m_735b34e7-2183-dc8f-06ab-6834a6b13c94
f 4/4/1 7/3/1 5/2/1 2/1/1
f 3/8/2 4/7/2 2/6/2 1/5/2
f 8/12/3 3/11/3 1/10/3 6/9/3
f 7/16/4 8/15/4 6/14/4 5/13/4
f 6/20/5 1/19/5 2/18/5 5/17/5
f 7/24/6 4/23/6 3/22/6 8/21/6
o cube
v -0.234375 0.171875 0.125
v -0.234375 0.171875 -0.125
v -0.234375 -0.046875 0.125
v -0.234375 -0.046875 -0.125
v -0.671875 0.171875 -0.125
v -0.671875 0.171875 0.125
v -0.671875 -0.046875 -0.125
v -0.671875 -0.046875 0.125
vt 0 1
vt 0.0068359375 1
vt 0.0068359375 0.99658203125
vt 0 0.99658203125
vt 0 1
vt 0.00390625 1
vt 0.00390625 0.99658203125
vt 0 0.99658203125
vt 0 1
vt 0.0068359375 1
vt 0.0068359375 0.99658203125
vt 0 0.99658203125
vt 0 1
vt 0.00390625 1
vt 0.00390625 0.99658203125
vt 0 0.99658203125
vt 0 1
vt 0.0068359375 1
vt 0.0068359375 0.99609375
vt 0 0.99609375
vt 0 1
vt 0.0068359375 1
vt 0.0068359375 0.99609375
vt 0 0.99609375
vn 0 0 -1
vn 1 0 0
vn 0 0 1
vn -1 0 0
vn 0 1 0
vn 0 -1 0
usemtl m_735b34e7-2183-dc8f-06ab-6834a6b13c94
f 12/28/7 15/27/7 13/26/7 10/25/7
f 11/32/8 12/31/8 10/30/8 9/29/8
f 16/36/9 11/35/9 9/34/9 14/33/9
f 15/40/10 16/39/10 14/38/10 13/37/10
f 14/44/11 9/43/11 10/42/11 13/41/11
f 15/48/12 12/47/12 11/46/12 16/45/12
o cylinder
v 0.1875 0.07031249999999997 -2.3418766925686896e-17
v -0.3125 0.07031250000000008 -2.3418766925686896e-17
v 0.1875 0.0891526775928133 0.07812499999999997
v -0.3125 0.08915267759281341 0.07812499999999997
v 0.1875 0.12178482240718666 0.05719146934131851
v -0.3125 0.12178482240718677 0.05719146934131851
v 0.1875 0.14062499999999997 0.02093353065868143
v -0.3125 0.14062500000000008 0.02093353065868143
v 0.1875 0.14062499999999997 -0.020933530658681487
v -0.3125 0.14062500000000008 -0.020933530658681487
v 0.1875 0.12178482240718669 -0.057191469341318565
v -0.3125 0.1217848224071868 -0.057191469341318565
v 0.1875 0.08915267759281331 -0.07812499999999999
v -0.3125 0.08915267759281342 -0.07812499999999999
v 0.1875 0.051472322407186695 -0.07812500000000003
v -0.3125 0.051472322407186806 -0.07812500000000003
v 0.18749999999999997 0.018840177592813284 -0.057191469341318565
v -0.3125 0.018840177592813395 -0.057191469341318565
v 0.18749999999999997 -1.3877787807814457e-17 -0.020933530658681473
v -0.3125 9.71445146547012e-17 -0.020933530658681473
v 0.18749999999999997 -2.7755575615628914e-17 0.020933530658681396
v -0.3125 8.326672684688674e-17 0.020933530658681396
v 0.18749999999999997 0.018840177592813284 0.05719146934131851
v -0.3125 0.018840177592813395 0.05719146934131851
v 0.1875 0.051472322407186674 0.07812499999999997
v -0.3125 0.051472322407186785 0.07812499999999997
vt 0.00808808623699394 0.9959559568815031
vt 0.007004500337542835 1
vt 0 0.9959559568815031
vt 0 0.9921875
vt 0.00418671875 0.9921875
vt 0.00418671875 1
vt 0 1
vt 0 0.9919119032076205
vt 0.004044037840811051 0.9929955088036932
vt 1.3010426069826053e-18 1
vt 0.008088096792379552 0.9959559621591889
vt 0.007004491196306773 1
vt 0 0.9959559621591889
vt 0 0.9921875
vt 0.00418671875 0.9921875
vt 0.00418671875 1
vt 0 1
vt 8.673617379884035e-19 0.991911913763006
vt 0.00404404311849697 0.9929954996624571
vt 0 1
vt 0.0078125 0.99581328125
vt 0.0078125 1
vt 0 0.997906640625
vt 0 0.9921875
vt 0.00418671875 0.9921875
vt 0.00418671875 1
vt 0 1
vt 0.0078125 0.99581328125
vt 0.0078125 1
vt 0 0.997906640625
vt 8.673617379884035e-19 0.991911913763006
vt 0.00404404311849697 0.9929954996624571
vt 0 1
vt 0 0.9921875
vt 0.00418671875 0.9921875
vt 0.00418671875 1
vt 0 1
vt 0.008088096792379552 0.9959559621591889
vt 0.007004491196306773 1
vt 0 0.9959559621591889
vt 0 0.9919119032076205
vt 0.004044037840811051 0.9929955088036932
vt 1.3010426069826053e-18 1
vt 0 0.9921875
vt 0.00418671875 0.9921875
vt 0.00418671875 1
vt 0 1
vt 0.00808808623699394 0.9959559568815031
vt 0.007004500337542835 1
vt 0 0.9959559568815031
vt 0 0.9921875
vt 0.00418671875 0.9921875
vt 0.002093359375 1
vt 0 0.9921875
vt 0.00418671875 0.9921875
vt 0.00418671875 1
vt 0 1
vt 0.00418671875 1
vt 0 1
vt 0.002093359375 0.9921875
vt 0 1
vt 0.0010835858994511045 0.9959559568815031
vt 0.00808808623699394 1
vt 0 0.9921875
vt 0.00418671875 0.9921875
vt 0.00418671875 1
vt 0 1
vt 0.004044037840811051 1
vt 0 0.9989163944039272
vt 0.00404403784081105 0.9919119032076205
vt 0 1
vt 0.0010836055960727793 0.9959559621591889
vt 0.008088096792379552 1
vt 0 0.9921875
vt 0.00418671875 0.9921875
vt 0.00418671875 1
vt 0 1
vt 0.004044043118496969 1
vt 0 0.9989164141005489
vt 0.00404404311849697 0.991911913763006
vt 0 1
vt 0 0.99581328125
vt 0.0078125 0.997906640625
vt 0 0.9921875
vt 0.00418671875 0.9921875
vt 0.00418671875 1
vt 0 1
vt 0 1
vt 0 0.99581328125
vt 0.0078125 0.997906640625
vt 0.004044043118496969 1
vt 0 0.9989164141005489
vt 0.00404404311849697 0.991911913763006
vt 0 0.9921875
vt 0.00418671875 0.9921875
vt 0.00418671875 1
vt 0 1
vt 0 1
vt 0.0010836055960727793 0.9959559621591889
vt 0.008088096792379552 1
vt 0.004044037840811051 1
vt 0 0.9989163944039272
vt 0.00404403784081105 0.9919119032076205
vt 0 0.9921875
vt 0.00418671875 0.9921875
vt 0.00418671875 1
vt 0 1
vt 0 1
vt 0.0010835858994511045 0.9959559568815031
vt 0.00808808623699394 1
vt 0.00418671875 1
vt 0 1
vt 0.002093359375 0.9921875
vt 0 0.9921875
vt 0.00418671875 0.9921875
vt 0.00418671875 1
vt 0 1
vt 0 0.9921875
vt 0.00418671875 0.9921875
vt 0.002093359375 1
vn 1 -2.220446049250313e-16 0
vn 1.1989281726433078e-16 0.5399492471560391 0.8416975766245421
vn -1 2.220446049250313e-16 0
vn 1 -2.220446049250313e-16 0
vn 1.970327255609558e-16 0.8873565094161138 0.46108396762070397
vn -1 2.220446049250313e-16 0
vn 1 -2.220446049250313e-16 0
vn 2.220446049250313e-16 1 0
vn -1 2.220446049250313e-16 0
vn 1 -2.220446049250313e-16 0
vn 1.970327255609559e-16 0.8873565094161142 -0.46108396762070347
vn -1 2.220446049250313e-16 0
vn 1 -2.220446049250313e-16 0
vn 1.1989281726433056e-16 0.5399492471560381 -0.8416975766245426
vn -1 2.220446049250313e-16 0
vn 1 -2.220446049250313e-16 0
vn 2.4533908153246615e-31 1.1049089961690343e-15 -1
vn -1 2.220446049250313e-16 0
vn 1 -2.220446049250313e-16 0
vn -1.1989281726433066e-16 -0.5399492471560385 -0.8416975766245425
vn -1 2.220446049250313e-16 0
vn 1 -2.220446049250313e-16 0
vn -1.9703272556095586e-16 -0.887356509416114 -0.4610839676207035
vn -1 2.220446049250313e-16 0
vn 1 -2.220446049250313e-16 0
vn -2.220446049250313e-16 -1 -3.3147269885071057e-16
vn -1 2.220446049250313e-16 0
vn 1 -2.220446049250313e-16 0
vn -1.9703272556095588e-16 -0.8873565094161141 0.4610839676207035
vn -1 2.220446049250313e-16 0
vn 1 -2.220446049250313e-16 0
vn -1.1989281726433069e-16 -0.5399492471560386 0.8416975766245423
vn -1 2.220446049250313e-16 0
vn 1 -2.220446049250313e-16 0
vn 0 0 1
vn -1 2.220446049250313e-16 0
usemtl m_735b34e7-2183-dc8f-06ab-6834a6b13c94
f 21/49/13 19/50/13 17/51/13
f 19/52/14 21/53/14 22/54/14 20/55/14
f 20/56/15 22/57/15 18/58/15
f 23/59/16 21/60/16 17/61/16
f 21/62/17 23/63/17 24/64/17 22/65/17
f 22/66/18 24/67/18 18/68/18
f 25/69/19 23/70/19 17/71/19
f 23/72/20 25/73/20 26/74/20 24/75/20
f 24/76/21 26/77/21 18/78/21
f 27/79/22 25/80/22 17/81/22
f 25/82/23 27/83/23 28/84/23 26/85/23
f 26/86/24 28/87/24 18/88/24
f 29/89/25 27/90/25 17/91/25
f 27/92/26 29/93/26 30/94/26 28/95/26
f 28/96/27 30/97/27 18/98/27
f 31/99/28 29/100/28 17/101/28
f 29/102/29 31/103/29 32/104/29 30/105/29
f 30/106/30 32/107/30 18/108/30
f 33/109/31 31/110/31 17/111/31
f 31/112/32 33/113/32 34/114/32 32/115/32
f 32/116/33 34/117/33 18/118/33
f 35/119/34 33/120/34 17/121/34
f 33/122/35 35/123/35 36/124/35 34/125/35
f 34/126/36 36/127/36 18/128/36
f 37/129/37 35/130/37 17/131/37
f 35/132/38 37/133/38 38/134/38 36/135/38
f 36/136/39 38/137/39 18/138/39
f 39/139/40 37/140/40 17/141/40
f 37/142/41 39/143/41 40/144/41 38/145/41
f 38/146/42 40/147/42 18/148/42
f 41/149/43 39/150/43 17/151/43
f 39/152/44 41/153/44 42/154/44 40/155/44
f 40/156/45 42/157/45 18/158/45
f 19/159/46 41/160/46 17/161/46
f 41/162/47 19/163/47 20/164/47 42/165/47
f 42/166/48 20/167/48 18/168/48
o cube
v 0.34375 0.265625 0.125
v 0.34375 0.265625 -0.125
v 0.34375 0.265625 0.125
v 0.34375 0.265625 -0.125
v 0.34375 0.265625 -0.125
v 0.34375 0.265625 0.125
v 0.34375 0.265625 -0.125
v 0.34375 0.265625 0.125
vt 0 1
vt 0 1
vt 0 1
vt 0 1
vt 0 1
vt 0.00390625 1
vt 0.00390625 1
vt 0 1
vt 0 1
vt 0 1
vt 0 1
vt 0 1
vt 0 1
vt 0.00390625 1
vt 0.00390625 1
vt 0 1
vt 0 1
vt 0 1
vt 0 0.99609375
vt 0 0.99609375
vt 0 1
vt 0 1
vt 0 0.99609375
vt 0 0.99609375
vn 0 0 -1
vn 1 0 0
vn 0 0 1
vn -1 0 0
vn 0 1 0
vn 0 -1 0
usemtl m_5e68ec96-c52e-8d1e-4bce-994f96d54b36
f 46/172/49 49/171/49 47/170/49 44/169/49
f 45/176/50 46/175/50 44/174/50 43/173/50
f 50/180/51 45/179/51 43/178/51 48/177/51
f 49/184/52 50/183/52 48/182/52 47/181/52
f 48/188/53 43/187/53 44/186/53 47/185/53
f 49/192/54 46/191/54 45/190/54 50/189/54
o cube
v -0.21875 0.203125 0.140625
v -0.21875 0.203125 -0.140625
v -0.21875 0.171875 0.140625
v -0.21875 0.171875 -0.140625
v -0.6875 0.203125 -0.140625
v -0.6875 0.203125 0.140625
v -0.6875 0.171875 -0.140625
v -0.6875 0.171875 0.140625
vt 0 1
vt 0.00732421875 1
vt 0.00732421875 0.99951171875
vt 0 0.99951171875
vt 0 1
vt 0.00439453125 1
vt 0.00439453125 0.99951171875
vt 0 0.99951171875
vt 0 1
vt 0.00732421875 1
vt 0.00732421875 0.99951171875
vt 0 0.99951171875
vt 0 1
vt 0.00439453125 1
vt 0.00439453125 0.99951171875
vt 0 0.99951171875
vt 0 1
vt 0.00732421875 1
vt 0.00732421875 0.99560546875
vt 0 0.99560546875
vt 0 1
vt 0.00732421875 1
vt 0.00732421875 0.99560546875
vt 0 0.99560546875
vn 0 0 -1
vn 1 0 0
vn 0 0 1
vn -1 0 0
vn 0 1 0
vn 0 -1 0
usemtl m_5e68ec96-c52e-8d1e-4bce-994f96d54b36
f 54/196/55 57/195/55 55/194/55 52/193/55
f 53/200/56 54/199/56 52/198/56 51/197/56
f 58/204/57 53/203/57 51/202/57 56/201/57
f 57/208/58 58/207/58 56/206/58 55/205/58
f 56/212/59 51/211/59 52/210/59 55/209/59
f 57/216/60 54/215/60 53/214/60 58/213/60
o cylinder
v -0.42187500000000006 0.09375000000000012 0.125
v -0.42187500000000006 0.09375000000000026 0.28125
v -0.3593749996470871 0.11049682320985627 0.12499999999999997
v -0.35937499964708713 0.1104968232098564 0.28125
v -0.37612182356276913 0.13950317450887886 0.12499999999999997
v -0.37612182356276913 0.139503174508879 0.28124999999999994
v -0.40512817415596586 0.15624999964708716 0.12499999999999994
v -0.40512817415596586 0.1562499996470873 0.28124999999999994
v -0.43862182320985615 0.15625000035291303 0.12499999999999994
v -0.4386218232098562 0.1562500003529132 0.28124999999999994
v -0.4676281745088788 0.13950317643723104 0.12499999999999997
v -0.4676281745088788 0.13950317643723117 0.28124999999999994
v -0.4843749996470871 0.11049682584403434 0.12499999999999997
v -0.4843749996470871 0.11049682584403447 0.28125
v -0.484375000352913 0.07700317679014401 0.12500000000000003
v -0.484375000352913 0.07700317679014415 0.28125
v -0.4676281764372309 0.04799682549112139 0.12500000000000003
v -0.4676281764372309 0.04799682549112153 0.28125000000000006
v -0.4386218258440342 0.03125000035291311 0.12500000000000006
v -0.4386218258440342 0.03125000035291325 0.28125000000000006
v -0.4051281767901439 0.031249999647087204 0.12500000000000006
v -0.40512817679014396 0.031249999647087343 0.28125000000000006
v -0.3761218254911213 0.047996823562769214 0.12500000000000003
v -0.37612182549112133 0.04799682356276935 0.28125000000000006
v -0.359375000352913 0.07700317415596594 0.12500000000000003
v -0.359375000352913 0.07700317415596608 0.28125
vt 0.00808808623699394 0.9959559568815031
vt 0.007004500337542835 1
vt 0 0.9959559568815031
vt 0 0.9921875
vt 0.00418671875 0.9921875
vt 0.00418671875 1
vt 0 1
vt 0 0.9919119032076205
vt 0.004044037840811051 0.9929955088036932
vt 1.3010426069826053e-18 1
vt 0.008088096792379552 0.9959559621591889
vt 0.007004491196306773 1
vt 0 0.9959559621591889
vt 0 0.9921875
vt 0.00418671875 0.9921875
vt 0.00418671875 1
vt 0 1
vt 8.673617379884035e-19 0.991911913763006
vt 0.00404404311849697 0.9929954996624571
vt 0 1
vt 0.0078125 0.99581328125
vt 0.0078125 1
vt 0 0.997906640625
vt 0 0.9921875
vt 0.00418671875 0.9921875
vt 0.00418671875 1
vt 0 1
vt 0.0078125 0.99581328125
vt 0.0078125 1
vt 0 0.997906640625
vt 8.673617379884035e-19 0.991911913763006
vt 0.00404404311849697 0.9929954996624571
vt 0 1
vt 0 0.9921875
vt 0.00418671875 0.9921875
vt 0.00418671875 1
vt 0 1
vt 0.008088096792379552 0.9959559621591889
vt 0.007004491196306773 1
vt 0 0.9959559621591889
vt 0 0.9919119032076205
vt 0.004044037840811051 0.9929955088036932
vt 1.3010426069826053e-18 1
vt 0 0.9921875
vt 0.00418671875 0.9921875
vt 0.00418671875 1
vt 0 1
vt 0.00808808623699394 0.9959559568815031
vt 0.007004500337542835 1
vt 0 0.9959559568815031
vt 0 0.9921875
vt 0.00418671875 0.9921875
vt 0.002093359375 1
vt 0 0.9921875
vt 0.00418671875 0.9921875
vt 0.00418671875 1
vt 0 1
vt 0.00418671875 1
vt 0 1
vt 0.002093359375 0.9921875
vt 0 1
vt 0.0010835858994511045 0.9959559568815031
vt 0.00808808623699394 1
vt 0 0.9921875
vt 0.00418671875 0.9921875
vt 0.00418671875 1
vt 0 1
vt 0.004044037840811051 1
vt 0 0.9989163944039272
vt 0.00404403784081105 0.9919119032076205
vt 0 1
vt 0.0010836055960727793 0.9959559621591889
vt 0.008088096792379552 1
vt 0 0.9921875
vt 0.00418671875 0.9921875
vt 0.00418671875 1
vt 0 1
vt 0.004044043118496969 1
vt 0 0.9989164141005489
vt 0.00404404311849697 0.991911913763006
vt 0 1
vt 0 0.99581328125
vt 0.0078125 0.997906640625
vt 0 0.9921875
vt 0.00418671875 0.9921875
vt 0.00418671875 1
vt 0 1
vt 0 1
vt 0 0.99581328125
vt 0.0078125 0.997906640625
vt 0.004044043118496969 1
vt 0 0.9989164141005489
vt 0.00404404311849697 0.991911913763006
vt 0 0.9921875
vt 0.00418671875 0.9921875
vt 0.00418671875 1
vt 0 1
vt 0 1
vt 0.0010836055960727793 0.9959559621591889
vt 0.008088096792379552 1
vt 0.004044037840811051 1
vt 0 0.9989163944039272
vt 0.00404403784081105 0.9919119032076205
vt 0 0.9921875
vt 0.00418671875 0.9921875
vt 0.00418671875 1
vt 0 1
vt 0 1
vt 0.0010835858994511045 0.9959559568815031
vt 0.00808808623699394 1
vt 0.00418671875 1
vt 0 1
vt 0.002093359375 0.9921875
vt 0 0.9921875
vt 0.00418671875 0.9921875
vt 0.00418671875 1
vt 0 1
vt 0 0.9921875
vt 0.00418671875 0.9921875
vt 0.002093359375 1
vn -1.7547150773985138e-23 -8.326672684688672e-16 -1
vn 0.8660254143211507 0.4999999817498792 -3.9601512589620507e-16
vn 1.7547150773985138e-23 8.326672684688672e-16 1
vn -1.7547150773985138e-23 -8.326672684688672e-16 -1
vn 0.500000018250121 0.8660253932477262 -7.414294885662309e-16
vn 1.7547150773985138e-23 8.326672684688672e-16 1
vn -1.7547150773985138e-23 -8.326672684688672e-16 -1
vn 2.1073424449902234e-8 0.9999999999999998 -8.88178418530315e-16
vn 1.7547150773985138e-23 8.326672684688672e-16 1
vn -1.7547150773985138e-23 -8.326672684688672e-16 -1
vn -0.4999999817498791 0.8660254143211508 -7.969406585144497e-16
vn 1.7547150773985138e-23 8.326672684688672e-16 1
vn -1.7547150773985138e-23 -8.326672684688672e-16 -1
vn -0.8660253932477266 0.5000000182501204 -4.921632926341098e-16
vn 1.7547150773985138e-23 8.326672684688672e-16 1
vn -1.7547150773985138e-23 -8.326672684688672e-16 -1
vn -0.9999999999999998 2.1073425374732117e-8 -5.551116994821947e-17
vn 1.7547150773985138e-23 8.326672684688672e-16 1
vn -1.7547150773985138e-23 -8.326672684688672e-16 -1
vn -0.8660254143211508 -0.4999999817498789 3.9601512589620477e-16
vn 1.7547150773985138e-23 8.326672684688672e-16 1
vn -1.7547150773985138e-23 -8.326672684688672e-16 -1
vn -0.5000000182501203 -0.8660253932477266 7.414294885662313e-16
vn 1.7547150773985138e-23 8.326672684688672e-16 1
vn -1.7547150773985138e-23 -8.326672684688672e-16 -1
vn -2.107342527858398e-8 -0.9999999999999998 8.88178418530315e-16
vn 1.7547150773985138e-23 8.326672684688672e-16 1
vn -1.7547150773985138e-23 -8.326672684688672e-16 -1
vn 0.49999998174987875 -0.866025414321151 7.9694065851444985e-16
vn 1.7547150773985138e-23 8.326672684688672e-16 1
vn -1.7547150773985138e-23 -8.326672684688672e-16 -1
vn 0.8660253932477264 -0.5000000182501209 4.921632926341102e-16
vn 1.7547150773985138e-23 8.326672684688672e-16 1
vn -1.7547150773985138e-23 -8.326672684688672e-16 -1
vn 0.9999999999999998 -2.107342433887993e-8 5.551116994821854e-17
vn 1.7547150773985138e-23 8.326672684688672e-16 1
usemtl m_735b34e7-2183-dc8f-06ab-6834a6b13c94
f 63/217/61 61/218/61 59/219/61
f 61/220/62 63/221/62 64/222/62 62/223/62
f 62/224/63 64/225/63 60/226/63
f 65/227/64 63/228/64 59/229/64
f 63/230/65 65/231/65 66/232/65 64/233/65
f 64/234/66 66/235/66 60/236/66
f 67/237/67 65/238/67 59/239/67
f 65/240/68 67/241/68 68/242/68 66/243/68
f 66/244/69 68/245/69 60/246/69
f 69/247/70 67/248/70 59/249/70
f 67/250/71 69/251/71 70/252/71 68/253/71
f 68/254/72 70/255/72 60/256/72
f 71/257/73 69/258/73 59/259/73
f 69/260/74 71/261/74 72/262/74 70/263/74
f 70/264/75 72/265/75 60/266/75
f 73/267/76 71/268/76 59/269/76
f 71/270/77 73/271/77 74/272/77 72/273/77
f 72/274/78 74/275/78 60/276/78
f 75/277/79 73/278/79 59/279/79
f 73/280/80 75/281/80 76/282/80 74/283/80
f 74/284/81 76/285/81 60/286/81
f 77/287/82 75/288/82 59/289/82
f 75/290/83 77/291/83 78/292/83 76/293/83
f 76/294/84 78/295/84 60/296/84
f 79/297/85 77/298/85 59/299/85
f 77/300/86 79/301/86 80/302/86 78/303/86
f 78/304/87 80/305/87 60/306/87
f 81/307/88 79/308/88 59/309/88
f 79/310/89 81/311/89 82/312/89 80/313/89
f 80/314/90 82/315/90 60/316/90
f 83/317/91 81/318/91 59/319/91
f 81/320/92 83/321/92 84/322/92 82/323/92
f 82/324/93 84/325/93 60/326/93
f 61/327/94 83/328/94 59/329/94
f 83/330/95 61/331/95 62/332/95 84/333/95
f 84/334/96 62/335/96 60/336/96
o cone
v -0.421875 0.09375000000000008 0.28125
v -0.421875 0.09375000000000008 0.3125
v -0.40512817547305485 0.03125000000000008 0.28125
v -0.3761218245269452 0.047996824526945245 0.28125
v -0.359375 0.07700317547305491 0.28125
v -0.359375 0.11049682452694524 0.28125
v -0.3761218245269452 0.1395031754730549 0.28125
v -0.40512817547305485 0.15625000000000006 0.28125
v -0.43862182452694515 0.15625000000000008 0.28125
v -0.46762817547305485 0.1395031754730549 0.28125
v -0.484375 0.11049682452694523 0.28125
v -0.484375 0.07700317547305494 0.28125
v -0.46762817547305485 0.04799682452694526 0.28125
v -0.4386218245269452 0.03125000000000008 0.28125
vt 0.00808808623699394 0.9959559568815031
vt 0.007004500337542835 1
vt 0 0.9959559568815031
vt 0 0.9889513671875
vt 0.00418671875 0.9889513671875
vt 0.002093359375 1
vt 0.008088096792379552 0.9959559621591889
vt 0.007004491196306773 1
vt 0 0.9959559621591889
vt 0 0.9889513671875
vt 0.00418671875 0.9889513671875
vt 0.002093359375 1
vt 0.0078125 0.99581328125
vt 0.0078125 1
vt 0 0.997906640625
vt 0 0.9889513671875
vt 0.00418671875 0.9889513671875
vt 0.002093359375 1
vt 8.673617379884035e-19 0.991911913763006
vt 0.00404404311849697 0.9929954996624571
vt 0 1
vt 0 0.9889513671875
vt 0.00418671875 0.9889513671875
vt 0.002093359375 1
vt 0 0.9919119032076205
vt 0.004044037840811051 0.9929955088036932
vt 1.3010426069826053e-18 1
vt 0 0.9889513671875
vt 0.00418671875 0.9889513671875
vt 0.002093359375 1
vt 0 0.9921875
vt 0.00418671875 0.9921875
vt 0.002093359375 1
vt 0 0.9889513671875
vt 0.00418671875 0.9889513671875
vt 0.002093359375 1
vt 0 1
vt 0.0010835858994511045 0.9959559568815031
vt 0.00808808623699394 1
vt 0 0.9889513671875
vt 0.00418671875 0.9889513671875
vt 0.002093359375 1
vt 0 1
vt 0.0010836055960727793 0.9959559621591889
vt 0.008088096792379552 1
vt 0 0.9889513671875
vt 0.00418671875 0.9889513671875
vt 0.002093359375 1
vt 0 1
vt 0 0.99581328125
vt 0.0078125 0.997906640625
vt 0 0.9889513671875
vt 0.00418671875 0.9889513671875
vt 0.002093359375 1
vt 0.004044043118496969 1
vt 0 0.9989164141005489
vt 0.00404404311849697 0.991911913763006
vt 0 0.9889513671875
vt 0.00418671875 0.9889513671875
vt 0.002093359375 1
vt 0.004044037840811051 1
vt 0 0.9989163944039272
vt 0.00404403784081105 0.9919119032076205
vt 0 0.9889513671875
vt 0.00418671875 0.9889513671875
vt 0.002093359375 1
vt 0.00418671875 1
vt 0 1
vt 0.002093359375 0.9921875
vt 0 0.9889513671875
vt 0.00418671875 0.9889513671875
vt 0.002093359375 1
vn 0 -2.220446049250313e-16 -1
vn 0.22360679774997905 -0.3872983346207415 0.894427190999916
vn 0 -2.220446049250313e-16 -1
vn 0.38729833462074176 -0.22360679774997896 0.894427190999916
vn 0 -2.220446049250313e-16 -1
vn 0.44721359549995804 1.9860273225978188e-16 0.8944271909999161
vn 0 -2.220446049250313e-16 -1
vn 0.38729833462074165 0.22360679774997916 0.8944271909999159
vn 0 -2.220446049250313e-16 -1
vn 0.2236067977499789 0.3872983346207421 0.8944271909999159
vn 0 -2.220446049250313e-16 -1
vn 3.705977436577524e-16 0.4472135954999582 0.8944271909999157
vn 0 -2.220446049250313e-16 -1
vn -0.22360679774997888 0.3872983346207421 0.8944271909999159
vn 0 -2.220446049250313e-16 -1
vn -0.3872983346207419 0.223606797749979 0.894427190999916
vn 0 -2.220446049250313e-16 -1
vn -0.4472135954999581 5.692004759175346e-16 0.894427190999916
vn 0 -2.220446049250313e-16 -1
vn -0.38729833462074187 -0.2236067977499787 0.894427190999916
vn 0 -2.220446049250313e-16 -1
vn -0.223606797749979 -0.3872983346207415 0.8944271909999161
vn 0 -2.220446049250313e-16 -1
vn 0 -0.4472135954999577 0.894427190999916
usemtl m_735b34e7-2183-dc8f-06ab-6834a6b13c94
f 88/337/97 87/338/97 85/339/97
f 87/340/98 88/341/98 86/342/98
f 89/343/99 88/344/99 85/345/99
f 88/346/100 89/347/100 86/348/100
f 90/349/101 89/350/101 85/351/101
f 89/352/102 90/353/102 86/354/102
f 91/355/103 90/356/103 85/357/103
f 90/358/104 91/359/104 86/360/104
f 92/361/105 91/362/105 85/363/105
f 91/364/106 92/365/106 86/366/106
f 93/367/107 92/368/107 85/369/107
f 92/370/108 93/371/108 86/372/108
f 94/373/109 93/374/109 85/375/109
f 93/376/110 94/377/110 86/378/110
f 95/379/111 94/380/111 85/381/111
f 94/382/112 95/383/112 86/384/112
f 96/385/113 95/386/113 85/387/113
f 95/388/114 96/389/114 86/390/114
f 97/391/115 96/392/115 85/393/115
f 96/394/116 97/395/116 86/396/116
f 98/397/117 97/398/117 85/399/117
f 97/400/118 98/401/118 86/402/118
f 87/403/119 98/404/119 85/405/119
f 98/406/120 87/407/120 86/408/120
o cube
v 0.578125 0.203125 0.140625
v 0.578125 0.203125 -0.140625
v 0.578125 0.171875 0.140625
v 0.578125 0.171875 -0.140625
v 0.109375 0.203125 -0.140625
v 0.109375 0.203125 0.140625
v 0.109375 0.171875 -0.140625
v 0.109375 0.171875 0.140625
vt 0 1
vt 0.00732421875 1
vt 0.00732421875 0.99951171875
vt 0 0.99951171875
vt 0 1
vt 0.00439453125 1
vt 0.00439453125 0.99951171875
vt 0 0.99951171875
vt 0 1
vt 0.00732421875 1
vt 0.00732421875 0.99951171875
vt 0 0.99951171875
vt 0 1
vt 0.00439453125 1
vt 0.00439453125 0.99951171875
vt 0 0.99951171875
vt 0 1
vt 0.00732421875 1
vt 0.00732421875 0.99560546875
vt 0 0.99560546875
vt 0 1
vt 0.00732421875 1
vt 0.00732421875 0.99560546875
vt 0 0.99560546875
vn 0 0 -1
vn 1 0 0
vn 0 0 1
vn -1 0 0
vn 0 1 0
vn 0 -1 0
usemtl m_5e68ec96-c52e-8d1e-4bce-994f96d54b36
f 102/412/121 105/411/121 103/410/121 100/409/121
f 101/416/122 102/415/122 100/414/122 99/413/122
f 106/420/123 101/419/123 99/418/123 104/417/123
f 105/424/124 106/423/124 104/422/124 103/421/124
f 104/428/125 99/427/125 100/426/125 103/425/125
f 105/432/126 102/431/126 101/430/126 106/429/126