# Made in Blockbench 4.10.4
mtllib generic_station_light.mtl

o cylinder
v 0.09150635094610962 -0.125 0.09150635094610965
v 0.03349364905389031 -0.125 0.12499999999999997
v -2.0816681711721685e-17 -0.125 -2.0816681711721685e-17
v 0.09150635094610962 1.125 0.09150635094610965
v 0.03349364905389031 1.125 0.12499999999999997
v -2.0816681711721685e-17 1.125 -2.0816681711721685e-17
v 0.12499999999999997 -0.125 0.03349364905389031
v 0.12499999999999997 1.125 0.03349364905389031
v 0.12499999999999997 -0.125 -0.033493649053890365
v 0.12499999999999997 1.125 -0.033493649053890365
v 0.09150635094610965 -0.125 -0.09150635094610968
v 0.09150635094610965 1.125 -0.09150635094610968
v 0.03349364905389035 -0.125 -0.125
v 0.03349364905389035 1.125 -0.125
v -0.0334936490538903 -0.125 -0.12500000000000003
v -0.0334936490538903 1.125 -0.12500000000000003
v -0.09150635094610968 -0.125 -0.0915063509461097
v -0.09150635094610968 1.125 -0.0915063509461097
v -0.125 -0.125 -0.03349364905389034
v -0.125 1.125 -0.03349364905389034
v -0.12500000000000003 -0.125 0.033493649053890254
v -0.12500000000000003 1.125 0.033493649053890254
v -0.0915063509461097 -0.125 0.09150635094610962
v -0.0915063509461097 1.125 0.09150635094610962
v -0.033493649053890344 -0.125 0.12499999999999997
v -0.033493649053890344 1.125 0.12499999999999997
vt 0.5176375191676121 0.7411812404161939
vt 0.44828802160274145 1
vt 0 0.7411812404161939
vt 0 0.5
vt 0.26795 0.5
vt 0.26795 1
vt 0 1
vt 0 0.48236180528770867
vt 0.2588184218119073 0.5517125634363665
vt 8.326672684688674e-17 1
vt 0.5176381947122913 0.7411815781880927
vt 0.44828743656363346 1
vt 0 0.7411815781880928
vt 0 0.5
vt 0.26795 0.5
vt 0.26795 1
vt 0 1
vt 5.551115123125783e-17 0.48236248083238786
vt 0.25881875958380607 0.5517119783972586
vt 0 1
vt 0.5 0.73205
vt 0.5 1
vt 0 0.866025
vt 0 0.5
vt 0.26795 0.5
vt 0.26795 1
vt 0 1
vt 0.5 0.73205
vt 0.5 1
vt 0 0.866025
vt 5.551115123125783e-17 0.48236248083238786
vt 0.25881875958380607 0.5517119783972586
vt 0 1
vt 0 0.5
vt 0.26795 0.5
vt 0.26795 1
vt 0 1
vt 0.5176381947122913 0.7411815781880927
vt 0.44828743656363346 1
vt 0 0.7411815781880928
vt 0 0.48236180528770867
vt 0.2588184218119073 0.5517125634363665
vt 8.326672684688674e-17 1
vt 0 0.5
vt 0.26795 0.5
vt 0.26795 1
vt 0 1
vt 0.5176375191676121 0.7411812404161939
vt 0.44828802160274145 1
vt 0 0.7411812404161939
vt 0 0.5
vt 0.26795 0.5
vt 0.133975 1
vt 0 0.5
vt 0.26795 0.5
vt 0.26795 1
vt 0 1
vt 0.26795 1
vt 0 1
vt 0.133975 0.5
vt 0 1
vt 0.06934949756487069 0.7411812404161939
vt 0.5176375191676121 1
vt 0 0.5
vt 0.26795 0.5
vt 0.26795 1
vt 0 1
vt 0.2588184218119073 1
vt 0 0.9306492418513421
vt 0.2588184218119072 0.48236180528770867
vt 0 1
vt 0.06935075814865788 0.7411815781880927
vt 0.5176381947122913 0.9999999999999999
vt 0 0.5
vt 0.26795 0.5
vt 0.26795 1
vt 0 1
vt 0.258818759583806 1
vt 0 0.9306505024351293
vt 0.25881875958380607 0.48236248083238786
vt 0 1
vt 0 0.73205
vt 0.5 0.866025
vt 0 0.5
vt 0.26795 0.5
vt 0.26795 1
vt 0 1
vt 0 1
vt 0 0.73205
vt 0.5 0.866025
vt 0.258818759583806 1
vt 0 0.9306505024351293
vt 0.25881875958380607 0.48236248083238786
vt 0 0.5
vt 0.26795 0.5
vt 0.26795 1
vt 0 1
vt 0 1
vt 0.06935075814865788 0.7411815781880927
vt 0.5176381947122913 0.9999999999999999
vt 0.2588184218119073 1
vt 0 0.9306492418513421
vt 0.2588184218119072 0.48236180528770867
vt 0 0.5
vt 0.26795 0.5
vt 0.26795 1
vt 0 1
vt 0 1
vt 0.06934949756487069 0.7411812404161939
vt 0.5176375191676121 1
vt 0.26795 1
vt 0 1
vt 0.133975 0.5
vt 0 0.5
vt 0.26795 0.5
vt 0.26795 1
vt 0 1
vt 0 0.5
vt 0.26795 0.5
vt 0.133975 1
vn 0 -1 0
vn 0.49999999999999994 0 0.8660254037844387
vn 0 1 0
vn 0 -1 0
vn 0.8660254037844388 0 0.5000000000000001
vn 0 1 0
vn 0 -1 0
vn 1 0 0
vn 0 1 0
vn 0 -1 0
vn 0.8660254037844387 0 -0.49999999999999994
vn 0 1 0
vn 0 -1 0
vn 0.5 0 -0.8660254037844387
vn 0 1 0
vn 0 -1 0
vn 4.143408735633879e-16 0 -1
vn 0 1 0
vn 0 -1 0
vn -0.4999999999999995 0 -0.8660254037844389
vn 0 1 0
vn 0 -1 0
vn -0.8660254037844389 0 -0.4999999999999996
vn 0 1 0
vn 0 -1 0
vn -1 0 -4.1434087356338823e-16
vn 0 1 0
vn 0 -1 0
vn -0.8660254037844389 0 0.4999999999999996
vn 0 1 0
vn 0 -1 0
vn -0.49999999999999983 0 0.8660254037844387
vn 0 1 0
vn 0 -1 0
vn 0 0 1
vn 0 1 0
usemtl none
f 1/1/1 2/2/1 3/3/1
f 2/4/2 1/5/2 4/6/2 5/7/2
f 5/8/3 4/9/3 6/10/3
f 7/11/4 1/12/4 3/13/4
f 1/14/5 7/15/5 8/16/5 4/17/5
f 4/18/6 8/19/6 6/20/6
f 9/21/7 7/22/7 3/23/7
f 7/24/8 9/25/8 10/26/8 8/27/8
f 8/28/9 10/29/9 6/30/9
f 11/31/10 9/32/10 3/33/10
f 9/34/11 11/35/11 12/36/11 10/37/11
f 10/38/12 12/39/12 6/40/12
f 13/41/13 11/42/13 3/43/13
f 11/44/14 13/45/14 14/46/14 12/47/14
f 12/48/15 14/49/15 6/50/15
f 15/51/16 13/52/16 3/53/16
f 13/54/17 15/55/17 16/56/17 14/57/17
f 14/58/18 16/59/18 6/60/18
f 17/61/19 15/62/19 3/63/19
f 15/64/20 17/65/20 18/66/20 16/67/20
f 16/68/21 18/69/21 6/70/21
f 19/71/22 17/72/22 3/73/22
f 17/74/23 19/75/23 20/76/23 18/77/23
f 18/78/24 20/79/24 6/80/24
f 21/81/25 19/82/25 3/83/25
f 19/84/26 21/85/26 22/86/26 20/87/26
f 20/88/27 22/89/27 6/90/27
f 23/91/28 21/92/28 3/93/28
f 21/94/29 23/95/29 24/96/29 22/97/29
f 22/98/30 24/99/30 6/100/30
f 25/101/31 23/102/31 3/103/31
f 23/104/32 25/105/32 26/106/32 24/107/32
f 24/108/33 26/109/33 6/110/33
f 2/111/34 25/112/34 3/113/34
f 25/114/35 2/115/35 5/116/35 26/117/35
f 26/118/36 5/119/36 6/120/36
o cone
v 0.09150635094610962 1.125 0.09150635094610964
v 0.03349364905389031 1.125 0.12499999999999997
v -2.0816681711721685e-17 1.125 -2.0816681711721685e-17
v -2.0816681711721685e-17 1.28125 -2.0816681711721685e-17
v 0.12499999999999997 1.125 0.03349364905389031
v 0.12499999999999997 1.125 -0.033493649053890365
v 0.09150635094610965 1.125 -0.09150635094610968
v 0.03349364905389035 1.125 -0.12499999999999999
v -0.0334936490538903 1.125 -0.12500000000000003
v -0.09150635094610968 1.125 -0.09150635094610969
v -0.125 1.125 -0.03349364905389034
v -0.12500000000000003 1.125 0.033493649053890254
v -0.0915063509461097 1.125 0.09150635094610962
v -0.033493649053890344 1.125 0.12499999999999997
vt 0.5176375191676121 0.7411812404161939
vt 0.44828802160274145 1
vt 0 0.7411812404161939
vt 0 0.29288749999999997
vt 0.26795 0.29288749999999997
vt 0.133975 1
vt 0.5176381947122913 0.7411815781880927
vt 0.44828743656363346 1
vt 0 0.7411815781880928
vt 0 0.29288749999999997
vt 0.26795 0.29288749999999997
vt 0.133975 1
vt 0.5 0.73205
vt 0.5 1
vt 0 0.866025
vt 0 0.29288749999999997
vt 0.26795 0.29288749999999997
vt 0.133975 1
vt 5.551115123125783e-17 0.48236248083238786
vt 0.25881875958380607 0.5517119783972586
vt 0 1
vt 0 0.29288749999999997
vt 0.26795 0.29288749999999997
vt 0.133975 1
vt 0 0.48236180528770867
vt 0.2588184218119073 0.5517125634363665
vt 8.326672684688674e-17 1
vt 0 0.29288749999999997
vt 0.26795 0.29288749999999997
vt 0.133975 1
vt 0 0.5
vt 0.26795 0.5
vt 0.133975 1
vt 0 0.29288749999999997
vt 0.26795 0.29288749999999997
vt 0.133975 1
vt 0 1
vt 0.06934949756487069 0.7411812404161939
vt 0.5176375191676121 1
vt 0 0.29288749999999997
vt 0.26795 0.29288749999999997
vt 0.133975 1
vt 0 1
vt 0.06935075814865788 0.7411815781880927
vt 0.5176381947122913 0.9999999999999999
vt 0 0.29288749999999997
vt 0.26795 0.29288749999999997
vt 0.133975 1
vt 0 1
vt 0 0.73205
vt 0.5 0.866025
vt 0 0.29288749999999997
vt 0.26795 0.29288749999999997
vt 0.133975 1
vt 0.258818759583806 1
vt 0 0.9306505024351293
vt 0.25881875958380607 0.48236248083238786
vt 0 0.29288749999999997
vt 0.26795 0.29288749999999997
vt 0.133975 1
vt 0.2588184218119073 1
vt 0 0.9306492418513421
vt 0.2588184218119072 0.48236180528770867
vt 0 0.29288749999999997
vt 0.26795 0.29288749999999997
vt 0.133975 1
vt 0.26795 1
vt 0 1
vt 0.133975 0.5
vt 0 0.29288749999999997
vt 0.26795 0.29288749999999997
vt 0.133975 1
vn 0 -1 0
vn 0.39043440472151525 0.6246950475544243 0.6762522260005742
vn 0 -1 0
vn 0.6762522260005742 0.6246950475544243 0.3904344047215154
vn 0 -1 0
vn 0.7808688094430304 0.6246950475544242 0
vn 0 -1 0
vn 0.6762522260005743 0.6246950475544243 -0.39043440472151514
vn 0 -1 0
vn 0.390434404721515 0.6246950475544243 -0.6762522260005743
vn 0 -1 0
vn 4.853187969645418e-16 0.6246950475544243 -0.7808688094430304
vn 0 -1 0
vn -0.390434404721515 0.6246950475544243 -0.6762522260005744
vn 0 -1 0
vn -0.6762522260005744 0.6246950475544243 -0.39043440472151497
vn 0 -1 0
vn -0.7808688094430305 0.6246950475544244 -3.2354586464302817e-16
vn 0 -1 0
vn -0.6762522260005744 0.6246950475544243 0.3904344047215148
vn 0 -1 0
vn -0.3904344047215151 0.6246950475544243 0.6762522260005743
vn 0 -1 0
vn 0 0.6246950475544243 0.7808688094430304
usemtl none
f 27/121/37 28/122/37 29/123/37
f 28/124/38 27/125/38 30/126/38
f 31/127/39 27/128/39 29/129/39
f 27/130/40 31/131/40 30/132/40
f 32/133/41 31/134/41 29/135/41
f 31/136/42 32/137/42 30/138/42
f 33/139/43 32/140/43 29/141/43
f 32/142/44 33/143/44 30/144/44
f 34/145/45 33/146/45 29/147/45
f 33/148/46 34/149/46 30/150/46
f 35/151/47 34/152/47 29/153/47
f 34/154/48 35/155/48 30/156/48
f 36/157/49 35/158/49 29/159/49
f 35/160/50 36/161/50 30/162/50
f 37/163/51 36/164/51 29/165/51
f 36/166/52 37/167/52 30/168/52
f 38/169/53 37/170/53 29/171/53
f 37/172/54 38/173/54 30/174/54
f 39/175/55 38/176/55 29/177/55
f 38/178/56 39/179/56 30/180/56
f 40/181/57 39/182/57 29/183/57
f 39/184/58 40/185/58 30/186/58
f 28/187/59 40/188/59 29/189/59
f 40/190/60 28/191/60 30/192/60
o cylinder
v 0.06862976320958221 1.0625 0.06862976320958222
v 0.025120236790417725 1.0625 0.09374999999999997
v -2.2551405187698492e-17 1.0625 -2.2551405187698492e-17
v 0.06862976320958221 1.625 0.06862976320958222
v 0.025120236790417725 1.625 0.09374999999999997
v -2.2551405187698492e-17 1.625 -2.2551405187698492e-17
v 0.09374999999999997 1.0625 0.025120236790417725
v 0.09374999999999997 1.625 0.025120236790417725
v 0.09374999999999997 1.0625 -0.02512023679041778
v 0.09374999999999997 1.625 -0.02512023679041778
v 0.06862976320958222 1.0625 -0.06862976320958226
v 0.06862976320958222 1.625 -0.06862976320958226
v 0.025120236790417756 1.0625 -0.09375
v 0.025120236790417756 1.625 -0.09375
v -0.025120236790417735 1.0625 -0.09375000000000003
v -0.025120236790417735 1.625 -0.09375000000000003
v -0.06862976320958226 1.0625 -0.06862976320958228
v -0.06862976320958226 1.625 -0.06862976320958228
v -0.09375 1.0625 -0.02512023679041776
v -0.09375 1.625 -0.02512023679041776
v -0.09375000000000003 1.0625 0.025120236790417683
v -0.09375000000000003 1.625 0.025120236790417683
v -0.06862976320958228 1.0625 0.06862976320958221
v -0.06862976320958228 1.625 0.06862976320958221
v -0.025120236790417763 1.0625 0.09374999999999997
v -0.025120236790417763 1.625 0.09374999999999997
vt 0.5176375191676121 0.7411812404161939
vt 0.44828802160274145 1
vt 0 0.7411812404161939
vt 0 0.5
vt 0.26795 0.5
vt 0.26795 1
vt 0 1
vt 0 0.48236180528770867
vt 0.2588184218119073 0.5517125634363665
vt 8.326672684688674e-17 1
vt 0.5176381947122913 0.7411815781880927
vt 0.44828743656363346 1
vt 0 0.7411815781880928
vt 0 0.5
vt 0.26795 0.5
vt 0.26795 1
vt 0 1
vt 5.551115123125783e-17 0.48236248083238786
vt 0.25881875958380607 0.5517119783972586
vt 0 1
vt 0.5 0.73205
vt 0.5 1
vt 0 0.866025
vt 0 0.5
vt 0.26795 0.5
vt 0.26795 1
vt 0 1
vt 0.5 0.73205
vt 0.5 1
vt 0 0.866025
vt 5.551115123125783e-17 0.48236248083238786
vt 0.25881875958380607 0.5517119783972586
vt 0 1
vt 0 0.5
vt 0.26795 0.5
vt 0.26795 1
vt 0 1
vt 0.5176381947122913 0.7411815781880927
vt 0.44828743656363346 1
vt 0 0.7411815781880928
vt 0 0.48236180528770867
vt 0.2588184218119073 0.5517125634363665
vt 8.326672684688674e-17 1
vt 0 0.5
vt 0.26795 0.5
vt 0.26795 1
vt 0 1
vt 0.5176375191676121 0.7411812404161939
vt 0.44828802160274145 1
vt 0 0.7411812404161939
vt 0 0.5
vt 0.26795 0.5
vt 0.133975 1
vt 0 0.5
vt 0.26795 0.5
vt 0.26795 1
vt 0 1
vt 0.26795 1
vt 0 1
vt 0.133975 0.5
vt 0 1
vt 0.06934949756487069 0.7411812404161939
vt 0.5176375191676121 1
vt 0 0.5
vt 0.26795 0.5
vt 0.26795 1
vt 0 1
vt 0.2588184218119073 1
vt 0 0.9306492418513421
vt 0.2588184218119072 0.48236180528770867
vt 0 1
vt 0.06935075814865788 0.7411815781880927
vt 0.5176381947122913 0.9999999999999999
vt 0 0.5
vt 0.26795 0.5
vt 0.26795 1
vt 0 1
vt 0.258818759583806 1
vt 0 0.9306505024351293
vt 0.25881875958380607 0.48236248083238786
vt 0 1
vt 0 0.73205
vt 0.5 0.866025
vt 0 0.5
vt 0.26795 0.5
vt 0.26795 1
vt 0 1
vt 0 1
vt 0 0.73205
vt 0.5 0.866025
vt 0.258818759583806 1
vt 0 0.9306505024351293
vt 0.25881875958380607 0.48236248083238786
vt 0 0.5
vt 0.26795 0.5
vt 0.26795 1
vt 0 1
vt 0 1
vt 0.06935075814865788 0.7411815781880927
vt 0.5176381947122913 0.9999999999999999
vt 0.2588184218119073 1
vt 0 0.9306492418513421
vt 0.2588184218119072 0.48236180528770867
vt 0 0.5
vt 0.26795 0.5
vt 0.26795 1
vt 0 1
vt 0 1
vt 0.06934949756487069 0.7411812404161939
vt 0.5176375191676121 1
vt 0.26795 1
vt 0 1
vt 0.133975 0.5
vt 0 0.5
vt 0.26795 0.5
vt 0.26795 1
vt 0 1
vt 0 0.5
vt 0.26795 0.5
vt 0.133975 1
vn 0 -1 0
vn 0.5 0 0.8660254037844388
vn 0 1 0
vn 0 -1 0
vn 0.8660254037844387 0 0.5000000000000001
vn 0 1 0
vn 0 -1 0
vn 1 0 0
vn 0 1 0
vn 0 -1 0
vn 0.8660254037844388 0 -0.5
vn 0 1 0
vn 0 -1 0
vn 0.5 0 -0.8660254037844387
vn 0 1 0
vn 0 -1 0
vn 5.5245449808451715e-16 0 -1
vn 0 1 0
vn 0 -1 0
vn -0.4999999999999996 0 -0.8660254037844388
vn 0 1 0
vn 0 -1 0
vn -0.8660254037844389 0 -0.49999999999999956
vn 0 1 0
vn 0 -1 0
vn -1 0 -5.524544980845176e-16
vn 0 1 0
vn 0 -1 0
vn -0.8660254037844388 0 0.4999999999999996
vn 0 1 0
vn 0 -1 0
vn -0.49999999999999994 0 0.8660254037844387
vn 0 1 0
vn 0 -1 0
vn 0 0 1
vn 0 1 0
usemtl none
f 41/193/61 42/194/61 43/195/61
f 42/196/62 41/197/62 44/198/62 45/199/62
f 45/200/63 44/201/63 46/202/63
f 47/203/64 41/204/64 43/205/64
f 41/206/65 47/207/65 48/208/65 44/209/65
f 44/210/66 48/211/66 46/212/66
f 49/213/67 47/214/67 43/215/67
f 47/216/68 49/217/68 50/218/68 48/219/68
f 48/220/69 50/221/69 46/222/69
f 51/223/70 49/224/70 43/225/70
f 49/226/71 51/227/71 52/228/71 50/229/71
f 50/230/72 52/231/72 46/232/72
f 53/233/73 51/234/73 43/235/73
f 51/236/74 53/237/74 54/238/74 52/239/74
f 52/240/75 54/241/75 46/242/75
f 55/243/76 53/244/76 43/245/76
f 53/246/77 55/247/77 56/248/77 54/249/77
f 54/250/78 56/251/78 46/252/78
f 57/253/79 55/254/79 43/255/79
f 55/256/80 57/257/80 58/258/80 56/259/80
f 56/260/81 58/261/81 46/262/81
f 59/263/82 57/264/82 43/265/82
f 57/266/83 59/267/83 60/268/83 58/269/83
f 58/270/84 60/271/84 46/272/84
f 61/273/85 59/274/85 43/275/85
f 59/276/86 61/277/86 62/278/86 60/279/86
f 60/280/87 62/281/87 46/282/87
f 63/283/88 61/284/88 43/285/88
f 61/286/89 63/287/89 64/288/89 62/289/89
f 62/290/90 64/291/90 46/292/90
f 65/293/91 63/294/91 43/295/91
f 63/296/92 65/297/92 66/298/92 64/299/92
f 64/300/93 66/301/93 46/302/93
f 42/303/94 65/304/94 43/305/94
f 65/306/95 42/307/95 45/308/95 66/309/95
f 66/310/96 45/311/96 46/312/96
o cylinder
v 0.06862976320958221 1.625 0.06862976320958222
v 0.025120236790417725 1.625 0.09374999999999997
v -2.2551405187698492e-17 1.625 -2.2551405187698492e-17
v 0.06862976320958221 2.1875 0.06862976320958222
v 0.025120236790417725 2.1875 0.09374999999999997
v -2.2551405187698492e-17 2.1875 -2.2551405187698492e-17
v 0.09374999999999997 1.625 0.025120236790417725
v 0.09374999999999997 2.1875 0.025120236790417725
v 0.09374999999999997 1.625 -0.02512023679041778
v 0.09374999999999997 2.1875 -0.02512023679041778
v 0.06862976320958222 1.625 -0.06862976320958226
v 0.06862976320958222 2.1875 -0.06862976320958226
v 0.025120236790417756 1.625 -0.09375
v 0.025120236790417756 2.1875 -0.09375
v -0.025120236790417735 1.625 -0.09375000000000003
v -0.025120236790417735 2.1875 -0.09375000000000003
v -0.06862976320958226 1.625 -0.06862976320958228
v -0.06862976320958226 2.1875 -0.06862976320958228
v -0.09375 1.625 -0.02512023679041776
v -0.09375 2.1875 -0.02512023679041776
v -0.09375000000000003 1.625 0.025120236790417683
v -0.09375000000000003 2.1875 0.025120236790417683
v -0.06862976320958228 1.625 0.06862976320958221
v -0.06862976320958228 2.1875 0.06862976320958221
v -0.025120236790417763 1.625 0.09374999999999997
v -0.025120236790417763 2.1875 0.09374999999999997
vt 0.5176375191676121 0.7411812404161939
vt 0.44828802160274145 1
vt 0 0.7411812404161939
vt 0 0.5
vt 0.26795 0.5
vt 0.26795 1
vt 0 1
vt 0 0.48236180528770867
vt 0.2588184218119073 0.5517125634363665
vt 8.326672684688674e-17 1
vt 0.5176381947122913 0.7411815781880927
vt 0.44828743656363346 1
vt 0 0.7411815781880928
vt 0 0.5
vt 0.26795 0.5
vt 0.26795 1
vt 0 1
vt 5.551115123125783e-17 0.48236248083238786
vt 0.25881875958380607 0.5517119783972586
vt 0 1
vt 0.5 0.73205
vt 0.5 1
vt 0 0.866025
vt 0 0.5
vt 0.26795 0.5
vt 0.26795 1
vt 0 1
vt 0.5 0.73205
vt 0.5 1
vt 0 0.866025
vt 5.551115123125783e-17 0.48236248083238786
vt 0.25881875958380607 0.5517119783972586
vt 0 1
vt 0 0.5
vt 0.26795 0.5
vt 0.26795 1
vt 0 1
vt 0.5176381947122913 0.7411815781880927
vt 0.44828743656363346 1
vt 0 0.7411815781880928
vt 0 0.48236180528770867
vt 0.2588184218119073 0.5517125634363665
vt 8.326672684688674e-17 1
vt 0 0.5
vt 0.26795 0.5
vt 0.26795 1
vt 0 1
vt 0.5176375191676121 0.7411812404161939
vt 0.44828802160274145 1
vt 0 0.7411812404161939
vt 0 0.5
vt 0.26795 0.5
vt 0.133975 1
vt 0 0.5
vt 0.26795 0.5
vt 0.26795 1
vt 0 1
vt 0.26795 1
vt 0 1
vt 0.133975 0.5
vt 0 1
vt 0.06934949756487069 0.7411812404161939
vt 0.5176375191676121 1
vt 0 0.5
vt 0.26795 0.5
vt 0.26795 1
vt 0 1
vt 0.2588184218119073 1
vt 0 0.9306492418513421
vt 0.2588184218119072 0.48236180528770867
vt 0 1
vt 0.06935075814865788 0.7411815781880927
vt 0.5176381947122913 0.9999999999999999
vt 0 0.5
vt 0.26795 0.5
vt 0.26795 1
vt 0 1
vt 0.258818759583806 1
vt 0 0.9306505024351293
vt 0.25881875958380607 0.48236248083238786
vt 0 1
vt 0 0.73205
vt 0.5 0.866025
vt 0 0.5
vt 0.26795 0.5
vt 0.26795 1
vt 0 1
vt 0 1
vt 0 0.73205
vt 0.5 0.866025
vt 0.258818759583806 1
vt 0 0.9306505024351293
vt 0.25881875958380607 0.48236248083238786
vt 0 0.5
vt 0.26795 0.5
vt 0.26795 1
vt 0 1
vt 0 1
vt 0.06935075814865788 0.7411815781880927
vt 0.5176381947122913 0.9999999999999999
vt 0.2588184218119073 1
vt 0 0.9306492418513421
vt 0.2588184218119072 0.48236180528770867
vt 0 0.5
vt 0.26795 0.5
vt 0.26795 1
vt 0 1
vt 0 1
vt 0.06934949756487069 0.7411812404161939
vt 0.5176375191676121 1
vt 0.26795 1
vt 0 1
vt 0.133975 0.5
vt 0 0.5
vt 0.26795 0.5
vt 0.26795 1
vt 0 1
vt 0 0.5
vt 0.26795 0.5
vt 0.133975 1
vn 0 -1 0
vn 0.5 0 0.8660254037844388
vn 0 1 0
vn 0 -1 0
vn 0.8660254037844387 0 0.5000000000000001
vn 0 1 0
vn 0 -1 0
vn 1 0 0
vn 0 1 0
vn 0 -1 0
vn 0.8660254037844388 0 -0.5
vn 0 1 0
vn 0 -1 0
vn 0.5 0 -0.8660254037844387
vn 0 1 0
vn 0 -1 0
vn 5.5245449808451715e-16 0 -1
vn 0 1 0
vn 0 -1 0
vn -0.4999999999999996 0 -0.8660254037844388
vn 0 1 0
vn 0 -1 0
vn -0.8660254037844389 0 -0.49999999999999956
vn 0 1 0
vn 0 -1 0
vn -1 0 -5.524544980845176e-16
vn 0 1 0
vn 0 -1 0
vn -0.8660254037844388 0 0.4999999999999996
vn 0 1 0
vn 0 -1 0
vn -0.49999999999999994 0 0.8660254037844387
vn 0 1 0
vn 0 -1 0
vn 0 0 1
vn 0 1 0
usemtl none
f 67/313/97 68/314/97 69/315/97
f 68/316/98 67/317/98 70/318/98 71/319/98
f 71/320/99 70/321/99 72/322/99
f 73/323/100 67/324/100 69/325/100
f 67/326/101 73/327/101 74/328/101 70/329/101
f 70/330/102 74/331/102 72/332/102
f 75/333/103 73/334/103 69/335/103
f 73/336/104 75/337/104 76/338/104 74/339/104
f 74/340/105 76/341/105 72/342/105
f 77/343/106 75/344/106 69/345/106
f 75/346/107 77/347/107 78/348/107 76/349/107
f 76/350/108 78/351/108 72/352/108
f 79/353/109 77/354/109 69/355/109
f 77/356/110 79/357/110 80/358/110 78/359/110
f 78/360/111 80/361/111 72/362/111
f 81/363/112 79/364/112 69/365/112
f 79/366/113 81/367/113 82/368/113 80/369/113
f 80/370/114 82/371/114 72/372/114
f 83/373/115 81/374/115 69/375/115
f 81/376/116 83/377/116 84/378/116 82/379/116
f 82/380/117 84/381/117 72/382/117
f 85/383/118 83/384/118 69/385/118
f 83/386/119 85/387/119 86/388/119 84/389/119
f 84/390/120 86/391/120 72/392/120
f 87/393/121 85/394/121 69/395/121
f 85/396/122 87/397/122 88/398/122 86/399/122
f 86/400/123 88/401/123 72/402/123
f 89/403/124 87/404/124 69/405/124
f 87/406/125 89/407/125 90/408/125 88/409/125
f 88/410/126 90/411/126 72/412/126
f 91/413/127 89/414/127 69/415/127
f 89/416/128 91/417/128 92/418/128 90/419/128
f 90/420/129 92/421/129 72/422/129
f 68/423/130 91/424/130 69/425/130
f 91/426/131 68/427/131 71/428/131 92/429/131
f 92/430/132 71/431/132 72/432/132
o cube
v 0.125 5.625 -1.0625
v -0.125 5.625 -1.0625
v -0.125 5.8125 -1.0625
v 0.125 5.8125 -1.0625
v 0.125 5.625 -0.25
v 0.125 5.8125 -0.25
v -0.125 5.625 -0.25
v -0.125 5.8125 -0.25
vt 0 0.9990234375
vt 0.005859375 0.9990234375
vt 0.005859375 1
vt 0 1
vt 0 0.9990234375
vt 0.0068359375 0.9990234375
vt 0.0068359375 1
vt 0 1
vt 0 0.9990234375
vt 0.005859375 0.9990234375
vt 0.005859375 1
vt 0 1
vt 0 0.9990234375
vt 0.0068359375 0.9990234375
vt 0.0068359375 1
vt 0 1
vt 0 0.9931640625
vt 0.005859375 0.9931640625
vt 0.005859375 1
vt 0 1
vt 0 0.9931640625
vt 0.005859375 0.9931640625
vt 0.005859375 1
vt 0 1
vn 0 0 -1
vn 1 0 0
vn 0 0 1
vn -1 0 0
vn 0 1 0
vn 0 -1 0
usemtl m_8cd08d4f-6047-283e-5f72-61deaa19b75f
f 93/433/133 94/434/133 95/435/133 96/436/133
f 97/437/134 93/438/134 96/439/134 98/440/134
f 99/441/135 97/442/135 98/443/135 100/444/135
f 94/445/136 99/446/136 100/447/136 95/448/136
f 100/449/137 98/450/137 96/451/137 95/452/137
f 94/453/138 93/454/138 97/455/138 99/456/138
o cube
v 0.0625 5.621874999999999 -1
v -0.0625 5.621874999999999 -1
v -0.0625 5.625 -1
v 0.0625 5.625 -1
v 0.0625 5.621874999999999 -0.3125
v 0.0625 5.625 -0.3125
v -0.0625 5.621874999999999 -0.3125
v -0.0625 5.625 -0.3125
vt 0 0.9968750000000002
vt 0.25 0.9968750000000002
vt 0.25 1
vt 0 1
vt 0 0.9968750000000002
vt 0.3125 0.9968750000000002
vt 0.3125 1
vt 0 1
vt 0 0.9968750000000002
vt 0.25 0.9968750000000002
vt 0.25 1
vt 0 1
vt 0 0.9968750000000002
vt 0.3125 0.9968750000000002
vt 0.3125 1
vt 0 1
vt 0 0.6875
vt 0.25 0.6875
vt 0.25 1
vt 0 1
vt 0 0.6875
vt 0.25 0.6875
vt 0.25 1
vt 0 1
vn 0 0 -1
vn 1 0 0
vn 0 0 1
vn -1 0 0
vn 0 1 0
vn 0 -1 0
usemtl m_90be4958-9f9e-3d44-97ff-b45b1a84309e
f 101/457/139 102/458/139 103/459/139 104/460/139
f 105/461/140 101/462/140 104/463/140 106/464/140
f 107/465/141 105/466/141 106/467/141 108/468/141
f 102/469/142 107/470/142 108/471/142 103/472/142
f 108/473/143 106/474/143 104/475/143 103/476/143
f 102/477/144 101/478/144 105/479/144 107/480/144
o cylinder
v -4.5102810375396984e-17 -0.1875 0
v -4.5102810375396984e-17 1.1875 0
v 0.012289399277857122 -0.1875 0.1874999999999999
v 0.012289399277857122 1.1875 0.1874999999999999
v 0.036657922804662124 -0.1875 0.18429182301517882
v 0.036657922804662124 1.1875 0.18429182301517882
v 0.060399219108783056 -0.1875 0.1779303618432216
v 0.060399219108783056 1.1875 0.1779303618432216
v 0.08310706802812551 -0.1875 0.16852446284851072
v 0.08310706802812551 1.1875 0.16852446284851072
v 0.10439293197187437 -0.1875 0.1562350635706536
v 0.10439293197187437 1.1875 0.1562350635706536
v 0.12389260390639573 -0.1875 0.14127243903855946
v 0.12389260390639573 1.1875 0.14127243903855946
v 0.14127243903855946 -0.1875 0.12389260390639575
v 0.14127243903855946 1.1875 0.12389260390639575
v 0.15623506357065362 -0.1875 0.1043929319718744
v 0.15623506357065362 1.1875 0.1043929319718744
v 0.1685244628485108 -0.1875 0.08310706802812551
v 0.1685244628485108 1.1875 0.08310706802812551
v 0.17793036184322164 -0.1875 0.0603992191087831
v 0.17793036184322164 1.1875 0.0603992191087831
v 0.18429182301517882 -0.1875 0.03665792280466217
v 0.18429182301517882 1.1875 0.03665792280466217
v 0.18749999999999994 -0.1875 0.012289399277857159
v 0.18749999999999994 1.1875 0.012289399277857159
v 0.18749999999999994 -0.1875 -0.012289399277857176
v 0.18749999999999994 1.1875 -0.012289399277857176
v 0.18429182301517882 -0.1875 -0.036657922804662145
v 0.18429182301517882 1.1875 -0.036657922804662145
v 0.17793036184322167 -0.1875 -0.060399219108783035
v 0.17793036184322167 1.1875 -0.060399219108783035
v 0.1685244628485108 -0.1875 -0.0831070680281255
v 0.1685244628485108 1.1875 -0.0831070680281255
v 0.15623506357065364 -0.1875 -0.10439293197187434
v 0.15623506357065364 1.1875 -0.10439293197187434
v 0.14127243903855946 -0.1875 -0.12389260390639573
v 0.14127243903855946 1.1875 -0.12389260390639573
v 0.12389260390639577 -0.1875 -0.14127243903855943
v 0.12389260390639577 1.1875 -0.14127243903855943
v 0.10439293197187437 -0.1875 -0.15623506357065362
v 0.10439293197187437 1.1875 -0.15623506357065362
v 0.08310706802812551 -0.1875 -0.16852446284851072
v 0.08310706802812551 1.1875 -0.16852446284851072
v 0.060399219108783084 -0.1875 -0.1779303618432216
v 0.060399219108783084 1.1875 -0.1779303618432216
v 0.036657922804662194 -0.1875 -0.18429182301517882
v 0.036657922804662194 1.1875 -0.18429182301517882
v 0.012289399277857133 -0.1875 -0.1874999999999999
v 0.012289399277857133 1.1875 -0.1874999999999999
v -0.012289399277857174 -0.1875 -0.1874999999999999
v -0.012289399277857174 1.1875 -0.1874999999999999
v -0.036657922804662235 -0.1875 -0.18429182301517882
v -0.036657922804662235 1.1875 -0.18429182301517882
v -0.06039921910878314 -0.1875 -0.1779303618432216
v -0.06039921910878314 1.1875 -0.1779303618432216
v -0.08310706802812556 -0.1875 -0.16852446284851075
v -0.08310706802812556 1.1875 -0.16852446284851075
v -0.10439293197187444 -0.1875 -0.15623506357065362
v -0.10439293197187444 1.1875 -0.15623506357065362
v -0.12389260390639584 -0.1875 -0.14127243903855946
v -0.12389260390639584 1.1875 -0.14127243903855946
v -0.14127243903855952 -0.1875 -0.12389260390639577
v -0.14127243903855952 1.1875 -0.12389260390639577
v -0.1562350635706537 -0.1875 -0.10439293197187438
v -0.1562350635706537 1.1875 -0.10439293197187438
v -0.16852446284851086 -0.1875 -0.08310706802812554
v -0.16852446284851086 1.1875 -0.08310706802812554
v -0.17793036184322175 -0.1875 -0.06039921910878312
v -0.17793036184322175 1.1875 -0.06039921910878312
v -0.1842918230151789 -0.1875 -0.036657922804662235
v -0.1842918230151789 1.1875 -0.036657922804662235
v -0.1875 -0.1875 -0.012289399277857098
v -0.1875 1.1875 -0.012289399277857098
v -0.18750000000000006 -0.1875 0.01228939927785703
v -0.18750000000000006 1.1875 0.01228939927785703
v -0.18429182301517893 -0.1875 0.036657922804662166
v -0.18429182301517893 1.1875 0.036657922804662166
v -0.17793036184322175 -0.1875 0.060399219108783056
v -0.17793036184322175 1.1875 0.060399219108783056
v -0.16852446284851091 -0.1875 0.08310706802812547
v -0.16852446284851091 1.1875 0.08310706802812547
v -0.15623506357065373 -0.1875 0.10439293197187431
v -0.15623506357065373 1.1875 0.10439293197187431
v -0.14127243903855952 -0.1875 0.12389260390639577
v -0.14127243903855952 1.1875 0.12389260390639577
v -0.12389260390639592 -0.1875 0.14127243903855938
v -0.12389260390639592 1.1875 0.14127243903855938
v -0.10439293197187448 -0.1875 0.1562350635706536
v -0.10439293197187448 1.1875 0.1562350635706536
v -0.08310706802812562 -0.1875 0.16852446284851072
v -0.08310706802812562 1.1875 0.16852446284851072
v -0.060399219108783195 -0.1875 0.1779303618432216
v -0.060399219108783195 1.1875 0.1779303618432216
v -0.036657922804662305 -0.1875 0.1842918230151788
v -0.036657922804662305 1.1875 0.1842918230151788
v -0.012289399277857162 -0.1875 0.1874999999999999
v -0.012289399277857162 1.1875 0.1874999999999999
vt 1.006864294116689 0.8685799445226848
vt 0.9982534643034193 1
vt 0 0.8685799445226838
vt 0 0.8744110964332559
vt 0.13170508317044458 0.8744110964332559
vt 0.13170508317044458 1
vt 0 1
vt 0 -0.006867026958097933
vt 0.13141969877661897 0.0017492451590325198
vt 3.9040873865623786e-16 1
vt 1.0068682227452175 0.8685738787138225
vt 0.9982499092966498 1
vt 0 0.8685738787138226
vt 0 0.8744110964332559
vt 0.13170508317044458 0.8744110964332559
vt 0.13170508317044458 1
vt 0 1
vt 1.6731803085267338e-16 -0.006864294116688985
vt 0.13142663409054708 0.0017461956868171091
vt 0 1
vt 1.0068695023972118 0.8685805429458158
vt 0.9982547491906546 1
vt 0 0.8685805429458162
vt 0 0.8744110964332559
vt 0.13170508317044458 0.8744110964332559
vt 0.13170508317044458 1
vt 0 1
vt 2.230907078035645e-16 -0.006868222745217478
vt 0.1314196240781967 0.0017439821044128445
vt 0 1
vt 1.0068692708886253 0.8685769844300796
vt 0.998255571402493 1
vt 0 0.8685769844300801
vt 0 0.8744110964332559
vt 0.13170508317044458 0.8744110964332559
vt 0.13170508317044458 1
vt 0 1
vt 0 -0.006869502397211846
vt 0.13142298535194624 0.001744658125500509
vt 3.9040873865623786e-16 1
vt 1.0068660247695969 0.8685724909532639
vt 0.9982547463075555 1
vt 0 0.8685724909532637
vt 0 0.8744110964332559
vt 0.13170508317044458 0.8744110964332559
vt 0.13170508317044458 1
vt 0 1
vt 0 -0.006869270888625101
vt 0.13142708532803668 0.0017484720384808305
vt 3.3463606170534675e-16 1
vt 1.0068660247695969 0.8685844777454186
vt 0.9982530502562397 1
vt 0 0.8685844777454188
vt 0 0.8744110964332559
vt 0.13170508317044458 0.8744110964332559
vt 0.13170508317044458 1
vt 0 1
vt 0 -0.006866024769596857
vt 0.13141552225458142 0.0017469497437603287
vt 1.6731803085267338e-16 1
vt 1.006869270888625 0.8685729146719633
vt 0.9982515279615192 1
vt 0 0.8685729146719636
vt 0 0.8744110964332559
vt 0.13170508317044458 0.8744110964332559
vt 0.13170508317044458 1
vt 0 1
vt 1.6731803085267338e-16 -0.006866024769596857
vt 0.13142750904673625 0.0017452536924444928
vt 0 1
vt 1.0068695023972118 0.8685770146480538
vt 0.9982553418744995 1
vt 0 0.8685770146480541
vt 0 0.8744110964332559
vt 0.13170508317044458 0.8744110964332559
vt 0.13170508317044458 1
vt 0 1
vt 5.577267695089112e-16 -0.006869270888625101
vt 0.131423015569921 0.0017444285975071194
vt 0 1
vt 1.0068682227452175 0.8685803759218035
vt 0.9982560178955872 1
vt 0 0.8685803759218033
vt 0 0.8744110964332559
vt 0.13170508317044458 0.8744110964332559
vt 0.13170508317044458 1
vt 0 1
vt 0 -0.006869502397211846
vt 0.13141945705418429 0.0017452508093454
vt 5.577267695089112e-16 1
vt 1.0068642941166892 0.8685733659094531
vt 0.9982538043131831 1
vt 0 0.8685733659094539
vt 0 0.8744110964332559
vt 0.13170508317044458 0.8744110964332559
vt 0.13170508317044458 1
vt 0 1
vt 0 -0.006868222745217478
vt 0.1314261212861775 0.0017500907033501933
vt 1.1154535390178224e-16 1
vt 1.006867026958098 0.868580301223381
vt 0.9982507548409675 1
vt 0 0.8685803012233815
vt 0 0.8744110964332559
vt 0.13170508317044458 0.8744110964332559
vt 0.13170508317044458 1
vt 0 1
vt 2.788633847544556e-17 -0.006864294116688985
vt 0.13142005547731525 0.0017465356965804535
vt 0 1
vt 1.0047112285339532 0.8682949168295554
vt 1.0047112285339532 1
vt 0 0.9341474584147778
vt 0 0.8744110964332559
vt 0.13170508317044458 0.8744110964332559
vt 0.13170508317044458 1
vt 0 1
vt 1.0047112285339532 0.8682949168295554
vt 1.0047112285339532 1
vt 0 0.9341474584147778
vt 2.788633847544556e-17 -0.006864294116688985
vt 0.13142005547731525 0.0017465356965804535
vt 0 1
vt 0 0.8744110964332559
vt 0.13170508317044458 0.8744110964332559
vt 0.13170508317044458 1
vt 0 1
vt 1.006867026958098 0.868580301223381
vt 0.9982507548409675 1
vt 0 0.8685803012233815
vt 0 -0.006868222745217478
vt 0.1314261212861775 0.0017500907033501933
vt 1.1154535390178224e-16 1
vt 0 0.8744110964332559
vt 0.13170508317044458 0.8744110964332559
vt 0.13170508317044458 1
vt 0 1
vt 1.0068642941166892 0.8685733659094531
vt 0.9982538043131831 1
vt 0 0.8685733659094539
vt 0 -0.006869502397211846
vt 0.13141945705418429 0.0017452508093454
vt 5.577267695089112e-16 1
vt 0 0.8744110964332559
vt 0.13170508317044458 0.8744110964332559
vt 0.13170508317044458 1
vt 0 1
vt 1.0068682227452175 0.8685803759218035
vt 0.9982560178955872 1
vt 0 0.8685803759218033
vt 5.577267695089112e-16 -0.006869270888625101
vt 0.131423015569921 0.0017444285975071194
vt 0 1
vt 0 0.8744110964332559
vt 0.13170508317044458 0.8744110964332559
vt 0.13170508317044458 1
vt 0 1
vt 1.0068695023972118 0.8685770146480538
vt 0.9982553418744995 1
vt 0 0.8685770146480541
vt 1.6731803085267338e-16 -0.006866024769596857
vt 0.13142750904673625 0.0017452536924444928
vt 0 1
vt 0 0.8744110964332559
vt 0.13170508317044458 0.8744110964332559
vt 0.13170508317044458 1
vt 0 1
vt 1.006869270888625 0.8685729146719633
vt 0.9982515279615192 1
vt 0 0.8685729146719636
vt 0 -0.006866024769596857
vt 0.13141552225458142 0.0017469497437603287
vt 1.6731803085267338e-16 1
vt 0 0.8744110964332559
vt 0.13170508317044458 0.8744110964332559
vt 0.13170508317044458 1
vt 0 1
vt 1.0068660247695969 0.8685844777454186
vt 0.9982530502562397 1
vt 0 0.8685844777454188
vt 0 -0.006869270888625101
vt 0.13142708532803668 0.0017484720384808305
vt 3.3463606170534675e-16 1
vt 0 0.8744110964332559
vt 0.13170508317044458 0.8744110964332559
vt 0.13170508317044458 1
vt 0 1
vt 1.0068660247695969 0.8685724909532639
vt 0.9982547463075555 1
vt 0 0.8685724909532637
vt 0 -0.006869502397211846
vt 0.13142298535194624 0.001744658125500509
vt 3.9040873865623786e-16 1
vt 0 0.8744110964332559
vt 0.13170508317044458 0.8744110964332559
vt 0.13170508317044458 1
vt 0 1
vt 1.0068692708886253 0.8685769844300796
vt 0.998255571402493 1
vt 0 0.8685769844300801
vt 2.230907078035645e-16 -0.006868222745217478
vt 0.1314196240781967 0.0017439821044128445
vt 0 1
vt 0 0.8744110964332559
vt 0.13170508317044458 0.8744110964332559
vt 0.13170508317044458 1
vt 0 1
vt 1.0068695023972118 0.8685805429458158
vt 0.9982547491906546 1
vt 0 0.8685805429458162
vt 1.6731803085267338e-16 -0.006864294116688985
vt 0.13142663409054708 0.0017461956868171091
vt 0 1
vt 0 0.8744110964332559
vt 0.13170508317044458 0.8744110964332559
vt 0.13170508317044458 1
vt 0 1
vt 1.0068682227452175 0.8685738787138225
vt 0.9982499092966498 1
vt 0 0.8685738787138226
vt 0 -0.006867026958097933
vt 0.13141969877661897 0.0017492451590325198
vt 3.9040873865623786e-16 1
vt 0 0.8744110964332559
vt 0.13170508317044458 0.8744110964332559
vt 0.13170508317044458 1
vt 0 1
vt 1.006864294116689 0.8685799445226848
vt 0.9982534643034193 1
vt 0 0.8685799445226838
vt 0 -0.004711228533953227
vt 0.13170508317044458 -0.004711228533953227
vt 0.06585254158522229 1
vt 0 0.8744110964332559
vt 0.13170508317044458 0.8744110964332559
vt 0.13170508317044458 1
vt 0 1
vt 0.13170508317044458 1
vt 0 1
vt 0.06585254158522229 -0.004711228533953227
vt 0 1
vt 0.008610829813269534 0.8685799445226847
vt 1.006864294116689 1
vt 0 0.8744110964332559
vt 0.13170508317044458 0.8744110964332559
vt 0.13170508317044458 1
vt 0 1
vt 0.13141969877661897 1
vt 0 0.9913837278828695
vt 0.13141969877661905 -0.006867026958097933
vt 0 1
vt 0.00861831344856778 0.8685738787138225
vt 1.0068682227452175 0.9999999999999999
vt 0 0.8744110964332559
vt 0.13170508317044458 0.8744110964332559
vt 0.13170508317044458 1
vt 0 1
vt 0.13142663409054692 1
vt 0 0.9913895101964938
vt 0.13142663409054708 -0.006864294116688985
vt 0 0.9999999999999994
vt 0.008614753206557515 0.8685805429458151
vt 1.0068695023972118 1
vt 0 0.8744110964332559
vt 0.13170508317044458 0.8744110964332559
vt 0.13170508317044458 1
vt 0 1
vt 0.13141962407819655 1
vt 0 0.9913877951503696
vt 0.1314196240781962 -0.006868222745217478
vt 0 0.9999999999999994
vt 0.008613699486132255 0.868576984430079
vt 1.006869270888625 1
vt 0 0.8744110964332559
vt 0.13170508317044458 0.8744110964332559
vt 0.13170508317044458 1
vt 0 1
vt 0.1314229853519462 1
vt 0 0.9913858394772875
vt 0.1314229853519463 -0.006869502397211846
vt 0 0.9999999999999998
vt 0.008611278462041487 0.8685724909532637
vt 1.0068660247695969 1
vt 0 0.8744110964332559
vt 0.13170508317044458 0.8744110964332559
vt 0.13170508317044458 1
vt 0 1
vt 0.13142708532803668 1
vt 0 0.9913822570728938
vt 0.1314270853280368 -0.006869270888625101
vt 0 1
vt 0.008612974513357286 0.8685844777454186
vt 1.0068660247695969 0.9999999999999998
vt 0 0.8744110964332559
vt 0.13170508317044458 0.8744110964332559
vt 0.13170508317044458 1
vt 0 1
vt 0.13141552225458142 1
vt 0 0.9913870254866427
vt 0.13141552225458125 -0.006866024769596857
vt 0 1
vt 0.00861774292710591 0.8685729146719633
vt 1.006869270888625 0.9999999999999997
vt 0 0.8744110964332559
vt 0.13170508317044458 0.8744110964332559
vt 0.13170508317044458 1
vt 0 1
vt 0.13142750904673609 1
vt 0 0.9913887215379585
vt 0.13142750904673625 -0.006866024769596857
vt 0 0.9999999999999994
vt 0.00861416052271247 0.8685770146480531
vt 1.0068695023972118 1
vt 0 0.8744110964332559
vt 0.13170508317044458 0.8744110964332559
vt 0.13170508317044458 1
vt 0 1
vt 0.13142301556992045 1
vt 0 0.9913863005138678
vt 0.131423015569921 -0.006869270888625101
vt 0 0.9999999999999998
vt 0.008612204849630418 0.8685803759218033
vt 1.0068682227452175 1
vt 0 0.8744110964332559
vt 0.13170508317044458 0.8744110964332559
vt 0.13170508317044458 1
vt 0 1
vt 0.13141945705418429 1
vt 0 0.9913852467934425
vt 0.13141945705418484 -0.006869502397211846
vt 0 0.9999999999999998
vt 0.008610489803506165 0.8685733659094529
vt 1.006864294116689 1
vt 0 0.8744110964332559
vt 0.13170508317044458 0.8744110964332559
vt 0.13170508317044458 1
vt 0 1
vt 0.13142612128617748 1
vt 0 0.9913816865514322
vt 0.13142612128617803 -0.006868222745217478
vt 0 1
vt 0.008616272117130376 0.868580301223381
vt 1.006867026958098 0.9999999999999996
vt 0 0.8744110964332559
vt 0.13170508317044458 0.8744110964332559
vt 0.13170508317044458 1
vt 0 1
vt 0.1314200554773152 1
vt 0 0.9913891701867302
vt 0.13142005547731614 -0.006864294116688985
vt 0 1
vt 0 0.8682949168295554
vt 1.0047112285339532 0.9341474584147778
vt 0 0.8744110964332559
vt 0.13170508317044458 0.8744110964332559
vt 0.13170508317044458 1
vt 0 1
vt 0 1
vt 0 0.8682949168295554
vt 1.0047112285339532 0.9341474584147778
vt 0.1314200554773152 1
vt 0 0.9913891701867302
vt 0.13142005547731614 -0.006864294116688985
vt 0 0.8744110964332559
vt 0.13170508317044458 0.8744110964332559
vt 0.13170508317044458 1
vt 0 1
vt 0 1
vt 0.008616272117130376 0.868580301223381
vt 1.006867026958098 0.9999999999999996
vt 0.13142612128617748 1
vt 0 0.9913816865514322
vt 0.13142612128617803 -0.006868222745217478
vt 0 0.8744110964332559
vt 0.13170508317044458 0.8744110964332559
vt 0.13170508317044458 1
vt 0 1
vt 0 0.9999999999999998
vt 0.008610489803506165 0.8685733659094529
vt 1.006864294116689 1
vt 0.13141945705418429 1
vt 0 0.9913852467934425
vt 0.13141945705418484 -0.006869502397211846
vt 0 0.8744110964332559
vt 0.13170508317044458 0.8744110964332559
vt 0.13170508317044458 1
vt 0 1
vt 0 0.9999999999999998
vt 0.008612204849630418 0.8685803759218033
vt 1.0068682227452175 1
vt 0.13142301556992045 1
vt 0 0.9913863005138678
vt 0.131423015569921 -0.006869270888625101
vt 0 0.8744110964332559
vt 0.13170508317044458 0.8744110964332559
vt 0.13170508317044458 1
vt 0 1
vt 0 0.9999999999999994
vt 0.00861416052271247 0.8685770146480531
vt 1.0068695023972118 1
vt 0.13142750904673609 1
vt 0 0.9913887215379585
vt 0.13142750904673625 -0.006866024769596857
vt 0 0.8744110964332559
vt 0.13170508317044458 0.8744110964332559
vt 0.13170508317044458 1
vt 0 1
vt 0 1
vt 0.00861774292710591 0.8685729146719633
vt 1.006869270888625 0.9999999999999997
vt 0.13141552225458142 1
vt 0 0.9913870254866427
vt 0.13141552225458125 -0.006866024769596857
vt 0 0.8744110964332559
vt 0.13170508317044458 0.8744110964332559
vt 0.13170508317044458 1
vt 0 1
vt 0 1
vt 0.008612974513357286 0.8685844777454186
vt 1.0068660247695969 0.9999999999999998
vt 0.13142708532803668 1
vt 0 0.9913822570728938
vt 0.1314270853280368 -0.006869270888625101
vt 0 0.8744110964332559
vt 0.13170508317044458 0.8744110964332559
vt 0.13170508317044458 1
vt 0 1
vt 0 0.9999999999999998
vt 0.008611278462041487 0.8685724909532637
vt 1.0068660247695969 1
vt 0.1314229853519462 1
vt 0 0.9913858394772875
vt 0.1314229853519463 -0.006869502397211846
vt 0 0.8744110964332559
vt 0.13170508317044458 0.8744110964332559
vt 0.13170508317044458 1
vt 0 1
vt 0 0.9999999999999994
vt 0.008613699486132255 0.868576984430079
vt 1.006869270888625 1
vt 0.13141962407819655 1
vt 0 0.9913877951503696
vt 0.1314196240781962 -0.006868222745217478
vt 0 0.8744110964332559
vt 0.13170508317044458 0.8744110964332559
vt 0.13170508317044458 1
vt 0 1
vt 0 0.9999999999999994
vt 0.008614753206557515 0.8685805429458151
vt 1.0068695023972118 1
vt 0.13142663409054692 1
vt 0 0.9913895101964938
vt 0.13142663409054708 -0.006864294116688985
vt 0 0.8744110964332559
vt 0.13170508317044458 0.8744110964332559
vt 0.13170508317044458 1
vt 0 1
vt 0 1
vt 0.00861831344856778 0.8685738787138225
vt 1.0068682227452175 0.9999999999999999
vt 0.13141969877661897 1
vt 0 0.9913837278828695
vt 0.13141969877661905 -0.006867026958097933
vt 0 0.8744110964332559
vt 0.13170508317044458 0.8744110964332559
vt 0.13170508317044458 1
vt 0 1
vt 0 1
vt 0.008610829813269534 0.8685799445226847
vt 1.006864294116689 1
vt 0.13170508317044458 1
vt 0 1
vt 0.06585254158522229 -0.004711228533953227
vt 0 0.8744110964332559
vt 0.13170508317044458 0.8744110964332559
vt 0.13170508317044458 1
vt 0 1
vt 0 -0.004711228533953227
vt 0.13170508317044458 -0.004711228533953227
vt 0.06585254158522229 1
vn 0 -1 0
vn 0.1305261922200504 0 0.9914448613738107
vn 0 1 0
vn 0 -1 0
vn 0.25881904510252113 0 0.9659258262890683
vn 0 1 0
vn 0 -1 0
vn 0.3826834323650905 0 0.9238795325112865
vn 0 1 0
vn 0 -1 0
vn 0.4999999999999995 0 0.8660254037844392
vn 0 1 0
vn 0 -1 0
vn 0.6087614290087203 0 0.7933533402912356
vn 0 1 0
vn 0 -1 0
vn 0.707106781186547 0 0.7071067811865481
vn 0 1 0
vn 0 -1 0
vn 0.7933533402912349 0 0.6087614290087209
vn 0 1 0
vn 0 -1 0
vn 0.8660254037844385 0 0.5000000000000007
vn 0 1 0
vn 0 -1 0
vn 0.9238795325112872 0 0.3826834323650892
vn 0 1 0
vn 0 -1 0
vn 0.9659258262890684 0 0.2588190451025202
vn 0 1 0
vn 0 -1 0
vn 0.9914448613738104 0 0.13052619222005257
vn 0 1 0
vn 0 -1 0
vn 1 0 0
vn 0 1 0
vn 0 -1 0
vn 0.9914448613738103 0 -0.13052619222005282
vn 0 1 0
vn 0 -1 0
vn 0.9659258262890686 0 -0.25881904510251946
vn 0 1 0
vn 0 -1 0
vn 0.9238795325112871 0 -0.38268343236508945
vn 0 1 0
vn 0 -1 0
vn 0.8660254037844385 0 -0.5000000000000006
vn 0 1 0
vn 0 -1 0
vn 0.7933533402912348 0 -0.6087614290087212
vn 0 1 0
vn 0 -1 0
vn 0.7071067811865478 0 -0.7071067811865472
vn 0 1 0
vn 0 -1 0
vn 0.6087614290087209 0 -0.793353340291235
vn 0 1 0
vn 0 -1 0
vn 0.49999999999999856 0 -0.8660254037844395
vn 0 1 0
vn 0 -1 0
vn 0.3826834323650908 0 -0.9238795325112863
vn 0 1 0
vn 0 -1 0
vn 0.2588190451025216 0 -0.9659258262890682
vn 0 1 0
vn 0 -1 0
vn 0.1305261922200501 0 -0.9914448613738106
vn 0 1 0
vn 0 -1 0
vn 0 0 -1
vn 0 1 0
vn 0 -1 0
vn -0.1305261922200501 0 -0.9914448613738106
vn 0 1 0
vn 0 -1 0
vn -0.2588190451025214 0 -0.9659258262890681
vn 0 1 0
vn 0 -1 0
vn -0.38268343236508995 0 -0.9238795325112868
vn 0 1 0
vn 0 -1 0
vn -0.49999999999999917 0 -0.8660254037844393
vn 0 1 0
vn 0 -1 0
vn -0.6087614290087202 0 -0.7933533402912356
vn 0 1 0
vn 0 -1 0
vn -0.7071067811865478 0 -0.7071067811865472
vn 0 1 0
vn 0 -1 0
vn -0.7933533402912348 0 -0.6087614290087212
vn 0 1 0
vn 0 -1 0
vn -0.8660254037844385 0 -0.5000000000000006
vn 0 1 0
vn 0 -1 0
vn -0.9238795325112864 0 -0.382683432365091
vn 0 1 0
vn 0 -1 0
vn -0.9659258262890686 0 -0.2588190451025195
vn 0 1 0
vn 0 -1 0
vn -0.9914448613738106 0 -0.13052619222005082
vn 0 1 0
vn 0 -1 0
vn -1 0 -2.2584973429611547e-15
vn 0 1 0
vn 0 -1 0
vn -0.9914448613738104 0 0.13052619222005193
vn 0 1 0
vn 0 -1 0
vn -0.9659258262890684 0 0.2588190451025205
vn 0 1 0
vn 0 -1 0
vn -0.9238795325112872 0 0.3826834323650892
vn 0 1 0
vn 0 -1 0
vn -0.8660254037844379 0 0.5000000000000013
vn 0 1 0
vn 0 -1 0
vn -0.7933533402912354 0 0.6087614290087205
vn 0 1 0
vn 0 -1 0
vn -0.7071067811865478 0 0.7071067811865472
vn 0 1 0
vn 0 -1 0
vn -0.6087614290087208 0 0.7933533402912352
vn 0 1 0
vn 0 -1 0
vn -0.4999999999999995 0 0.8660254037844392
vn 0 1 0
vn 0 -1 0
vn -0.3826834323650908 0 0.9238795325112863
vn 0 1 0
vn 0 -1 0
vn -0.2588190451025205 0 0.9659258262890684
vn 0 1 0
vn 0 -1 0
vn -0.13052619222005077 0 0.9914448613738106
vn 0 1 0
vn 0 -1 0
vn 0 0 1
vn 0 1 0
usemtl m_cfc46212-f12c-1cb6-e4fa-6e63714f6864
f 113/481/145 111/482/145 109/483/145
f 111/484/146 113/485/146 114/486/146 112/487/146
f 112/488/147 114/489/147 110/490/147
f 115/491/148 113/492/148 109/493/148
f 113/494/149 115/495/149 116/496/149 114/497/149
f 114/498/150 116/499/150 110/500/150
f 117/501/151 115/502/151 109/503/151
f 115/504/152 117/505/152 118/506/152 116/507/152
f 116/508/153 118/509/153 110/510/153
f 119/511/154 117/512/154 109/513/154
f 117/514/155 119/515/155 120/516/155 118/517/155
f 118/518/156 120/519/156 110/520/156
f 121/521/157 119/522/157 109/523/157
f 119/524/158 121/525/158 122/526/158 120/527/158
f 120/528/159 122/529/159 110/530/159
f 123/531/160 121/532/160 109/533/160
f 121/534/161 123/535/161 124/536/161 122/537/161
f 122/538/162 124/539/162 110/540/162
f 125/541/163 123/542/163 109/543/163
f 123/544/164 125/545/164 126/546/164 124/547/164
f 124/548/165 126/549/165 110/550/165
f 127/551/166 125/552/166 109/553/166
f 125/554/167 127/555/167 128/556/167 126/557/167
f 126/558/168 128/559/168 110/560/168
f 129/561/169 127/562/169 109/563/169
f 127/564/170 129/565/170 130/566/170 128/567/170
f 128/568/171 130/569/171 110/570/171
f 131/571/172 129/572/172 109/573/172
f 129/574/173 131/575/173 132/576/173 130/577/173
f 130/578/174 132/579/174 110/580/174
f 133/581/175 131/582/175 109/583/175
f 131/584/176 133/585/176 134/586/176 132/587/176
f 132/588/177 134/589/177 110/590/177
f 135/591/178 133/592/178 109/593/178
f 133/594/179 135/595/179 136/596/179 134/597/179
f 134/598/180 136/599/180 110/600/180
f 137/601/181 135/602/181 109/603/181
f 135/604/182 137/605/182 138/606/182 136/607/182
f 136/608/183 138/609/183 110/610/183
f 139/611/184 137/612/184 109/613/184
f 137/614/185 139/615/185 140/616/185 138/617/185
f 138/618/186 140/619/186 110/620/186
f 141/621/187 139/622/187 109/623/187
f 139/624/188 141/625/188 142/626/188 140/627/188
f 140/628/189 142/629/189 110/630/189
f 143/631/190 141/632/190 109/633/190
f 141/634/191 143/635/191 144/636/191 142/637/191
f 142/638/192 144/639/192 110/640/192
f 145/641/193 143/642/193 109/643/193
f 143/644/194 145/645/194 146/646/194 144/647/194
f 144/648/195 146/649/195 110/650/195
f 147/651/196 145/652/196 109/653/196
f 145/654/197 147/655/197 148/656/197 146/657/197
f 146/658/198 148/659/198 110/660/198
f 149/661/199 147/662/199 109/663/199
f 147/664/200 149/665/200 150/666/200 148/667/200
f 148/668/201 150/669/201 110/670/201
f 151/671/202 149/672/202 109/673/202
f 149/674/203 151/675/203 152/676/203 150/677/203
f 150/678/204 152/679/204 110/680/204
f 153/681/205 151/682/205 109/683/205
f 151/684/206 153/685/206 154/686/206 152/687/206
f 152/688/207 154/689/207 110/690/207
f 155/691/208 153/692/208 109/693/208
f 153/694/209 155/695/209 156/696/209 154/697/209
f 154/698/210 156/699/210 110/700/210
f 157/701/211 155/702/211 109/703/211
f 155/704/212 157/705/212 158/706/212 156/707/212
f 156/708/213 158/709/213 110/710/213
f 159/711/214 157/712/214 109/713/214
f 157/714/215 159/715/215 160/716/215 158/717/215
f 158/718/216 160/719/216 110/720/216
f 161/721/217 159/722/217 109/723/217
f 159/724/218 161/725/218 162/726/218 160/727/218
f 160/728/219 162/729/219 110/730/219
f 163/731/220 161/732/220 109/733/220
f 161/734/221 163/735/221 164/736/221 162/737/221
f 162/738/222 164/739/222 110/740/222
f 165/741/223 163/742/223 109/743/223
f 163/744/224 165/745/224 166/746/224 164/747/224
f 164/748/225 166/749/225 110/750/225
f 167/751/226 165/752/226 109/753/226
f 165/754/227 167/755/227 168/756/227 166/757/227
f 166/758/228 168/759/228 110/760/228
f 169/761/229 167/762/229 109/763/229
f 167/764/230 169/765/230 170/766/230 168/767/230
f 168/768/231 170/769/231 110/770/231
f 171/771/232 169/772/232 109/773/232
f 169/774/233 171/775/233 172/776/233 170/777/233
f 170/778/234 172/779/234 110/780/234
f 173/781/235 171/782/235 109/783/235
f 171/784/236 173/785/236 174/786/236 172/787/236
f 172/788/237 174/789/237 110/790/237
f 175/791/238 173/792/238 109/793/238
f 173/794/239 175/795/239 176/796/239 174/797/239
f 174/798/240 176/799/240 110/800/240
f 177/801/241 175/802/241 109/803/241
f 175/804/242 177/805/242 178/806/242 176/807/242
f 176/808/243 178/809/243 110/810/243
f 179/811/244 177/812/244 109/813/244
f 177/814/245 179/815/245 180/816/245 178/817/245
f 178/818/246 180/819/246 110/820/246
f 181/821/247 179/822/247 109/823/247
f 179/824/248 181/825/248 182/826/248 180/827/248
f 180/828/249 182/829/249 110/830/249
f 183/831/250 181/832/250 109/833/250
f 181/834/251 183/835/251 184/836/251 182/837/251
f 182/838/252 184/839/252 110/840/252
f 185/841/253 183/842/253 109/843/253
f 183/844/254 185/845/254 186/846/254 184/847/254
f 184/848/255 186/849/255 110/850/255
f 187/851/256 185/852/256 109/853/256
f 185/854/257 187/855/257 188/856/257 186/857/257
f 186/858/258 188/859/258 110/860/258
f 189/861/259 187/862/259 109/863/259
f 187/864/260 189/865/260 190/866/260 188/867/260
f 188/868/261 190/869/261 110/870/261
f 191/871/262 189/872/262 109/873/262
f 189/874/263 191/875/263 192/876/263 190/877/263
f 190/878/264 192/879/264 110/880/264
f 193/881/265 191/882/265 109/883/265
f 191/884/266 193/885/266 194/886/266 192/887/266
f 192/888/267 194/889/267 110/890/267
f 195/891/268 193/892/268 109/893/268
f 193/894/269 195/895/269 196/896/269 194/897/269
f 194/898/270 196/899/270 110/900/270
f 197/901/271 195/902/271 109/903/271
f 195/904/272 197/905/272 198/906/272 196/907/272
f 196/908/273 198/909/273 110/910/273
f 199/911/274 197/912/274 109/913/274
f 197/914/275 199/915/275 200/916/275 198/917/275
f 198/918/276 200/919/276 110/920/276
f 201/921/277 199/922/277 109/923/277
f 199/924/278 201/925/278 202/926/278 200/927/278
f 200/928/279 202/929/279 110/930/279
f 203/931/280 201/932/280 109/933/280
f 201/934/281 203/935/281 204/936/281 202/937/281
f 202/938/282 204/939/282 110/940/282
f 205/941/283 203/942/283 109/943/283
f 203/944/284 205/945/284 206/946/284 204/947/284
f 204/948/285 206/949/285 110/950/285
f 111/951/286 205/952/286 109/953/286
f 205/954/287 111/955/287 112/956/287 206/957/287
f 206/958/288 112/959/288 110/960/288
o cylinder
v -4.85722573273506e-17 1.3125 0
v -4.85722573273506e-17 5.6875 0
v 0.008192932851904729 1.3125 0.1249999999999999
v 0.008192932851904729 5.6875 0.1249999999999999
v 0.024438615203108062 1.3125 0.12286121534345253
v 0.024438615203108062 5.6875 0.12286121534345253
v 0.04026614607252202 1.3125 0.11862024122881439
v 0.04026614607252202 5.6875 0.11862024122881439
v 0.055404712018750316 1.3125 0.11234964189900712
v 0.055404712018750316 5.6875 0.11234964189900712
v 0.06959528798124956 1.3125 0.10415670904710236
v 0.06959528798124956 5.6875 0.10415670904710236
v 0.08259506927093047 1.3125 0.09418162602570629
v 0.08259506927093047 5.6875 0.09418162602570629
v 0.09418162602570629 1.3125 0.08259506927093048
v 0.09418162602570629 5.6875 0.08259506927093048
v 0.10415670904710239 1.3125 0.06959528798124959
v 0.10415670904710239 5.6875 0.06959528798124959
v 0.11234964189900717 1.3125 0.05540471201875033
v 0.11234964189900717 5.6875 0.05540471201875033
v 0.1186202412288144 1.3125 0.040266146072522054
v 0.1186202412288144 5.6875 0.040266146072522054
v 0.12286121534345253 1.3125 0.02443861520310811
v 0.12286121534345253 5.6875 0.02443861520310811
v 0.12499999999999994 1.3125 0.00819293285190477
v 0.12499999999999994 5.6875 0.00819293285190477
v 0.12499999999999994 1.3125 -0.008192932851904783
v 0.12499999999999994 5.6875 -0.008192932851904783
v 0.12286121534345253 1.3125 -0.02443861520310809
v 0.12286121534345253 5.6875 -0.02443861520310809
v 0.11862024122881443 1.3125 -0.04026614607252201
v 0.11862024122881443 5.6875 -0.04026614607252201
v 0.11234964189900717 1.3125 -0.055404712018750316
v 0.11234964189900717 5.6875 -0.055404712018750316
v 0.1041567090471024 1.3125 -0.06959528798124955
v 0.1041567090471024 5.6875 -0.06959528798124955
v 0.09418162602570629 1.3125 -0.08259506927093047
v 0.09418162602570629 5.6875 -0.08259506927093047
v 0.0825950692709305 1.3125 -0.09418162602570626
v 0.0825950692709305 5.6875 -0.09418162602570626
v 0.06959528798124956 1.3125 -0.10415670904710239
v 0.06959528798124956 5.6875 -0.10415670904710239
v 0.055404712018750316 1.3125 -0.11234964189900712
v 0.055404712018750316 5.6875 -0.11234964189900712
v 0.04026614607252203 1.3125 -0.11862024122881439
v 0.04026614607252203 5.6875 -0.11862024122881439
v 0.02443861520310811 1.3125 -0.12286121534345253
v 0.02443861520310811 5.6875 -0.12286121534345253
v 0.008192932851904736 1.3125 -0.1249999999999999
v 0.008192932851904736 5.6875 -0.1249999999999999
v -0.0081929328519048 1.3125 -0.1249999999999999
v -0.0081929328519048 5.6875 -0.1249999999999999
v -0.024438615203108173 1.3125 -0.12286121534345253
v -0.024438615203108173 5.6875 -0.12286121534345253
v -0.04026614607252211 1.3125 -0.11862024122881439
v -0.04026614607252211 5.6875 -0.11862024122881439
v -0.05540471201875039 1.3125 -0.11234964189900715
v -0.05540471201875039 5.6875 -0.11234964189900715
v -0.06959528798124964 1.3125 -0.10415670904710239
v -0.06959528798124964 5.6875 -0.10415670904710239
v -0.08259506927093058 1.3125 -0.09418162602570629
v -0.08259506927093058 5.6875 -0.09418162602570629
v -0.09418162602570636 1.3125 -0.0825950692709305
v -0.09418162602570636 5.6875 -0.0825950692709305
v -0.10415670904710247 1.3125 -0.06959528798124957
v -0.10415670904710247 5.6875 -0.06959528798124957
v -0.11234964189900726 1.3125 -0.05540471201875034
v -0.11234964189900726 5.6875 -0.05540471201875034
v -0.11862024122881451 1.3125 -0.04026614607252207
v -0.11862024122881451 5.6875 -0.04026614607252207
v -0.12286121534345262 1.3125 -0.024438615203108152
v -0.12286121534345262 5.6875 -0.024438615203108152
v -0.125 1.3125 -0.00819293285190473
v -0.125 5.6875 -0.00819293285190473
v -0.12500000000000006 1.3125 0.008192932851904686
v -0.12500000000000006 5.6875 0.008192932851904686
v -0.12286121534345264 1.3125 0.024438615203108104
v -0.12286121534345264 5.6875 0.024438615203108104
v -0.11862024122881451 1.3125 0.040266146072522026
v -0.11862024122881451 5.6875 0.040266146072522026
v -0.11234964189900729 1.3125 0.0554047120187503
v -0.11234964189900729 5.6875 0.0554047120187503
v -0.1041567090471025 1.3125 0.06959528798124953
v -0.1041567090471025 5.6875 0.06959528798124953
v -0.09418162602570636 1.3125 0.0825950692709305
v -0.09418162602570636 5.6875 0.0825950692709305
v -0.08259506927093063 1.3125 0.09418162602570623
v -0.08259506927093063 5.6875 0.09418162602570623
v -0.06959528798124967 1.3125 0.10415670904710236
v -0.06959528798124967 5.6875 0.10415670904710236
v -0.05540471201875043 1.3125 0.11234964189900712
v -0.05540471201875043 5.6875 0.11234964189900712
v -0.040266146072522144 1.3125 0.11862024122881439
v -0.040266146072522144 5.6875 0.11862024122881439
v -0.02443861520310822 1.3125 0.1228612153434525
v -0.02443861520310822 5.6875 0.1228612153434525
v -0.008192932851904793 1.3125 0.1249999999999999
v -0.008192932851904793 5.6875 0.1249999999999999
vt 1.006864294116689 0.8685799445226848
vt 0.9982534643034193 1
vt 0 0.8685799445226838
vt 0 0.8744110964332559
vt 0.13170508317044458 0.8744110964332559
vt 0.13170508317044458 1
vt 0 1
vt 0 -0.006867026958097933
vt 0.13141969877661897 0.0017492451590325198
vt 3.9040873865623786e-16 1
vt 1.0068682227452175 0.8685738787138225
vt 0.9982499092966498 1
vt 0 0.8685738787138226
vt 0 0.8744110964332559
vt 0.13170508317044458 0.8744110964332559
vt 0.13170508317044458 1
vt 0 1
vt 1.6731803085267338e-16 -0.006864294116688985
vt 0.13142663409054708 0.0017461956868171091
vt 0 1
vt 1.0068695023972118 0.8685805429458158
vt 0.9982547491906546 1
vt 0 0.8685805429458162
vt 0 0.8744110964332559
vt 0.13170508317044458 0.8744110964332559
vt 0.13170508317044458 1
vt 0 1
vt 2.230907078035645e-16 -0.006868222745217478
vt 0.1314196240781967 0.0017439821044128445
vt 0 1
vt 1.0068692708886253 0.8685769844300796
vt 0.998255571402493 1
vt 0 0.8685769844300801
vt 0 0.8744110964332559
vt 0.13170508317044458 0.8744110964332559
vt 0.13170508317044458 1
vt 0 1
vt 0 -0.006869502397211846
vt 0.13142298535194624 0.001744658125500509
vt 3.9040873865623786e-16 1
vt 1.0068660247695969 0.8685724909532639
vt 0.9982547463075555 1
vt 0 0.8685724909532637
vt 0 0.8744110964332559
vt 0.13170508317044458 0.8744110964332559
vt 0.13170508317044458 1
vt 0 1
vt 0 -0.006869270888625101
vt 0.13142708532803668 0.0017484720384808305
vt 3.3463606170534675e-16 1
vt 1.0068660247695969 0.8685844777454186
vt 0.9982530502562397 1
vt 0 0.8685844777454188
vt 0 0.8744110964332559
vt 0.13170508317044458 0.8744110964332559
vt 0.13170508317044458 1
vt 0 1
vt 0 -0.006866024769596857
vt 0.13141552225458142 0.0017469497437603287
vt 1.6731803085267338e-16 1
vt 1.006869270888625 0.8685729146719633
vt 0.9982515279615192 1
vt 0 0.8685729146719636
vt 0 0.8744110964332559
vt 0.13170508317044458 0.8744110964332559
vt 0.13170508317044458 1
vt 0 1
vt 1.6731803085267338e-16 -0.006866024769596857
vt 0.13142750904673625 0.0017452536924444928
vt 0 1
vt 1.0068695023972118 0.8685770146480538
vt 0.9982553418744995 1
vt 0 0.8685770146480541
vt 0 0.8744110964332559
vt 0.13170508317044458 0.8744110964332559
vt 0.13170508317044458 1
vt 0 1
vt 5.577267695089112e-16 -0.006869270888625101
vt 0.131423015569921 0.0017444285975071194
vt 0 1
vt 1.0068682227452175 0.8685803759218035
vt 0.9982560178955872 1
vt 0 0.8685803759218033
vt 0 0.8744110964332559
vt 0.13170508317044458 0.8744110964332559
vt 0.13170508317044458 1
vt 0 1
vt 0 -0.006869502397211846
vt 0.13141945705418429 0.0017452508093454
vt 5.577267695089112e-16 1
vt 1.0068642941166892 0.8685733659094531
vt 0.9982538043131831 1
vt 0 0.8685733659094539
vt 0 0.8744110964332559
vt 0.13170508317044458 0.8744110964332559
vt 0.13170508317044458 1
vt 0 1
vt 0 -0.006868222745217478
vt 0.1314261212861775 0.0017500907033501933
vt 1.1154535390178224e-16 1
vt 1.006867026958098 0.868580301223381
vt 0.9982507548409675 1
vt 0 0.8685803012233815
vt 0 0.8744110964332559
vt 0.13170508317044458 0.8744110964332559
vt 0.13170508317044458 1
vt 0 1
vt 2.788633847544556e-17 -0.006864294116688985
vt 0.13142005547731525 0.0017465356965804535
vt 0 1
vt 1.0047112285339532 0.8682949168295554
vt 1.0047112285339532 1
vt 0 0.9341474584147778
vt 0 0.8744110964332559
vt 0.13170508317044458 0.8744110964332559
vt 0.13170508317044458 1
vt 0 1
vt 1.0047112285339532 0.8682949168295554
vt 1.0047112285339532 1
vt 0 0.9341474584147778
vt 2.788633847544556e-17 -0.006864294116688985
vt 0.13142005547731525 0.0017465356965804535
vt 0 1
vt 0 0.8744110964332559
vt 0.13170508317044458 0.8744110964332559
vt 0.13170508317044458 1
vt 0 1
vt 1.006867026958098 0.868580301223381
vt 0.9982507548409675 1
vt 0 0.8685803012233815
vt 0 -0.006868222745217478
vt 0.1314261212861775 0.0017500907033501933
vt 1.1154535390178224e-16 1
vt 0 0.8744110964332559
vt 0.13170508317044458 0.8744110964332559
vt 0.13170508317044458 1
vt 0 1
vt 1.0068642941166892 0.8685733659094531
vt 0.9982538043131831 1
vt 0 0.8685733659094539
vt 0 -0.006869502397211846
vt 0.13141945705418429 0.0017452508093454
vt 5.577267695089112e-16 1
vt 0 0.8744110964332559
vt 0.13170508317044458 0.8744110964332559
vt 0.13170508317044458 1
vt 0 1
vt 1.0068682227452175 0.8685803759218035
vt 0.9982560178955872 1
vt 0 0.8685803759218033
vt 5.577267695089112e-16 -0.006869270888625101
vt 0.131423015569921 0.0017444285975071194
vt 0 1
vt 0 0.8744110964332559
vt 0.13170508317044458 0.8744110964332559
vt 0.13170508317044458 1
vt 0 1
vt 1.0068695023972118 0.8685770146480538
vt 0.9982553418744995 1
vt 0 0.8685770146480541
vt 1.6731803085267338e-16 -0.006866024769596857
vt 0.13142750904673625 0.0017452536924444928
vt 0 1
vt 0 0.8744110964332559
vt 0.13170508317044458 0.8744110964332559
vt 0.13170508317044458 1
vt 0 1
vt 1.006869270888625 0.8685729146719633
vt 0.9982515279615192 1
vt 0 0.8685729146719636
vt 0 -0.006866024769596857
vt 0.13141552225458142 0.0017469497437603287
vt 1.6731803085267338e-16 1
vt 0 0.8744110964332559
vt 0.13170508317044458 0.8744110964332559
vt 0.13170508317044458 1
vt 0 1
vt 1.0068660247695969 0.8685844777454186
vt 0.9982530502562397 1
vt 0 0.8685844777454188
vt 0 -0.006869270888625101
vt 0.13142708532803668 0.0017484720384808305
vt 3.3463606170534675e-16 1
vt 0 0.8744110964332559
vt 0.13170508317044458 0.8744110964332559
vt 0.13170508317044458 1
vt 0 1
vt 1.0068660247695969 0.8685724909532639
vt 0.9982547463075555 1
vt 0 0.8685724909532637
vt 0 -0.006869502397211846
vt 0.13142298535194624 0.001744658125500509
vt 3.9040873865623786e-16 1
vt 0 0.8744110964332559
vt 0.13170508317044458 0.8744110964332559
vt 0.13170508317044458 1
vt 0 1
vt 1.0068692708886253 0.8685769844300796
vt 0.998255571402493 1
vt 0 0.8685769844300801
vt 2.230907078035645e-16 -0.006868222745217478
vt 0.1314196240781967 0.0017439821044128445
vt 0 1
vt 0 0.8744110964332559
vt 0.13170508317044458 0.8744110964332559
vt 0.13170508317044458 1
vt 0 1
vt 1.0068695023972118 0.8685805429458158
vt 0.9982547491906546 1
vt 0 0.8685805429458162
vt 1.6731803085267338e-16 -0.006864294116688985
vt 0.13142663409054708 0.0017461956868171091
vt 0 1
vt 0 0.8744110964332559
vt 0.13170508317044458 0.8744110964332559
vt 0.13170508317044458 1
vt 0 1
vt 1.0068682227452175 0.8685738787138225
vt 0.9982499092966498 1
vt 0 0.8685738787138226
vt 0 -0.006867026958097933
vt 0.13141969877661897 0.0017492451590325198
vt 3.9040873865623786e-16 1
vt 0 0.8744110964332559
vt 0.13170508317044458 0.8744110964332559
vt 0.13170508317044458 1
vt 0 1
vt 1.006864294116689 0.8685799445226848
vt 0.9982534643034193 1
vt 0 0.8685799445226838
vt 0 -0.004711228533953227
vt 0.13170508317044458 -0.004711228533953227
vt 0.06585254158522229 1
vt 0 0.8744110964332559
vt 0.13170508317044458 0.8744110964332559
vt 0.13170508317044458 1
vt 0 1
vt 0.13170508317044458 1
vt 0 1
vt 0.06585254158522229 -0.004711228533953227
vt 0 1
vt 0.008610829813269534 0.8685799445226847
vt 1.006864294116689 1
vt 0 0.8744110964332559
vt 0.13170508317044458 0.8744110964332559
vt 0.13170508317044458 1
vt 0 1
vt 0.13141969877661897 1
vt 0 0.9913837278828695
vt 0.13141969877661905 -0.006867026958097933
vt 0 1
vt 0.00861831344856778 0.8685738787138225
vt 1.0068682227452175 0.9999999999999999
vt 0 0.8744110964332559
vt 0.13170508317044458 0.8744110964332559
vt 0.13170508317044458 1
vt 0 1
vt 0.13142663409054692 1
vt 0 0.9913895101964938
vt 0.13142663409054708 -0.006864294116688985
vt 0 0.9999999999999994
vt 0.008614753206557515 0.8685805429458151
vt 1.0068695023972118 1
vt 0 0.8744110964332559
vt 0.13170508317044458 0.8744110964332559
vt 0.13170508317044458 1
vt 0 1
vt 0.13141962407819655 1
vt 0 0.9913877951503696
vt 0.1314196240781962 -0.006868222745217478
vt 0 0.9999999999999994
vt 0.008613699486132255 0.868576984430079
vt 1.006869270888625 1
vt 0 0.8744110964332559
vt 0.13170508317044458 0.8744110964332559
vt 0.13170508317044458 1
vt 0 1
vt 0.1314229853519462 1
vt 0 0.9913858394772875
vt 0.1314229853519463 -0.006869502397211846
vt 0 0.9999999999999998
vt 0.008611278462041487 0.8685724909532637
vt 1.0068660247695969 1
vt 0 0.8744110964332559
vt 0.13170508317044458 0.8744110964332559
vt 0.13170508317044458 1
vt 0 1
vt 0.13142708532803668 1
vt 0 0.9913822570728938
vt 0.1314270853280368 -0.006869270888625101
vt 0 1
vt 0.008612974513357286 0.8685844777454186
vt 1.0068660247695969 0.9999999999999998
vt 0 0.8744110964332559
vt 0.13170508317044458 0.8744110964332559
vt 0.13170508317044458 1
vt 0 1
vt 0.13141552225458142 1
vt 0 0.9913870254866427
vt 0.13141552225458125 -0.006866024769596857
vt 0 1
vt 0.00861774292710591 0.8685729146719633
vt 1.006869270888625 0.9999999999999997
vt 0 0.8744110964332559
vt 0.13170508317044458 0.8744110964332559
vt 0.13170508317044458 1
vt 0 1
vt 0.13142750904673609 1
vt 0 0.9913887215379585
vt 0.13142750904673625 -0.006866024769596857
vt 0 0.9999999999999994
vt 0.00861416052271247 0.8685770146480531
vt 1.0068695023972118 1
vt 0 0.8744110964332559
vt 0.13170508317044458 0.8744110964332559
vt 0.13170508317044458 1
vt 0 1
vt 0.13142301556992045 1
vt 0 0.9913863005138678
vt 0.131423015569921 -0.006869270888625101
vt 0 0.9999999999999998
vt 0.008612204849630418 0.8685803759218033
vt 1.0068682227452175 1
vt 0 0.8744110964332559
vt 0.13170508317044458 0.8744110964332559
vt 0.13170508317044458 1
vt 0 1
vt 0.13141945705418429 1
vt 0 0.9913852467934425
vt 0.13141945705418484 -0.006869502397211846
vt 0 0.9999999999999998
vt 0.008610489803506165 0.8685733659094529
vt 1.006864294116689 1
vt 0 0.8744110964332559
vt 0.13170508317044458 0.8744110964332559
vt 0.13170508317044458 1
vt 0 1
vt 0.13142612128617748 1
vt 0 0.9913816865514322
vt 0.13142612128617803 -0.006868222745217478
vt 0 1
vt 0.008616272117130376 0.868580301223381
vt 1.006867026958098 0.9999999999999996
vt 0 0.8744110964332559
vt 0.13170508317044458 0.8744110964332559
vt 0.13170508317044458 1
vt 0 1
vt 0.1314200554773152 1
vt 0 0.9913891701867302
vt 0.13142005547731614 -0.006864294116688985
vt 0 1
vt 0 0.8682949168295554
vt 1.0047112285339532 0.9341474584147778
vt 0 0.8744110964332559
vt 0.13170508317044458 0.8744110964332559
vt 0.13170508317044458 1
vt 0 1
vt 0 1
vt 0 0.8682949168295554
vt 1.0047112285339532 0.9341474584147778
vt 0.1314200554773152 1
vt 0 0.9913891701867302
vt 0.13142005547731614 -0.006864294116688985
vt 0 0.8744110964332559
vt 0.13170508317044458 0.8744110964332559
vt 0.13170508317044458 1
vt 0 1
vt 0 1
vt 0.008616272117130376 0.868580301223381
vt 1.006867026958098 0.9999999999999996
vt 0.13142612128617748 1
vt 0 0.9913816865514322
vt 0.13142612128617803 -0.006868222745217478
vt 0 0.8744110964332559
vt 0.13170508317044458 0.8744110964332559
vt 0.13170508317044458 1
vt 0 1
vt 0 0.9999999999999998
vt 0.008610489803506165 0.8685733659094529
vt 1.006864294116689 1
vt 0.13141945705418429 1
vt 0 0.9913852467934425
vt 0.13141945705418484 -0.006869502397211846
vt 0 0.8744110964332559
vt 0.13170508317044458 0.8744110964332559
vt 0.13170508317044458 1
vt 0 1
vt 0 0.9999999999999998
vt 0.008612204849630418 0.8685803759218033
vt 1.0068682227452175 1
vt 0.13142301556992045 1
vt 0 0.9913863005138678
vt 0.131423015569921 -0.006869270888625101
vt 0 0.8744110964332559
vt 0.13170508317044458 0.8744110964332559
vt 0.13170508317044458 1
vt 0 1
vt 0 0.9999999999999994
vt 0.00861416052271247 0.8685770146480531
vt 1.0068695023972118 1
vt 0.13142750904673609 1
vt 0 0.9913887215379585
vt 0.13142750904673625 -0.006866024769596857
vt 0 0.8744110964332559
vt 0.13170508317044458 0.8744110964332559
vt 0.13170508317044458 1
vt 0 1
vt 0 1
vt 0.00861774292710591 0.8685729146719633
vt 1.006869270888625 0.9999999999999997
vt 0.13141552225458142 1
vt 0 0.9913870254866427
vt 0.13141552225458125 -0.006866024769596857
vt 0 0.8744110964332559
vt 0.13170508317044458 0.8744110964332559
vt 0.13170508317044458 1
vt 0 1
vt 0 1
vt 0.008612974513357286 0.8685844777454186
vt 1.0068660247695969 0.9999999999999998
vt 0.13142708532803668 1
vt 0 0.9913822570728938
vt 0.1314270853280368 -0.006869270888625101
vt 0 0.8744110964332559
vt 0.13170508317044458 0.8744110964332559
vt 0.13170508317044458 1
vt 0 1
vt 0 0.9999999999999998
vt 0.008611278462041487 0.8685724909532637
vt 1.0068660247695969 1
vt 0.1314229853519462 1
vt 0 0.9913858394772875
vt 0.1314229853519463 -0.006869502397211846
vt 0 0.8744110964332559
vt 0.13170508317044458 0.8744110964332559
vt 0.13170508317044458 1
vt 0 1
vt 0 0.9999999999999994
vt 0.008613699486132255 0.868576984430079
vt 1.006869270888625 1
vt 0.13141962407819655 1
vt 0 0.9913877951503696
vt 0.1314196240781962 -0.006868222745217478
vt 0 0.8744110964332559
vt 0.13170508317044458 0.8744110964332559
vt 0.13170508317044458 1
vt 0 1
vt 0 0.9999999999999994
vt 0.008614753206557515 0.8685805429458151
vt 1.0068695023972118 1
vt 0.13142663409054692 1
vt 0 0.9913895101964938
vt 0.13142663409054708 -0.006864294116688985
vt 0 0.8744110964332559
vt 0.13170508317044458 0.8744110964332559
vt 0.13170508317044458 1
vt 0 1
vt 0 1
vt 0.00861831344856778 0.8685738787138225
vt 1.0068682227452175 0.9999999999999999
vt 0.13141969877661897 1
vt 0 0.9913837278828695
vt 0.13141969877661905 -0.006867026958097933
vt 0 0.8744110964332559
vt 0.13170508317044458 0.8744110964332559
vt 0.13170508317044458 1
vt 0 1
vt 0 1
vt 0.008610829813269534 0.8685799445226847
vt 1.006864294116689 1
vt 0.13170508317044458 1
vt 0 1
vt 0.06585254158522229 -0.004711228533953227
vt 0 0.8744110964332559
vt 0.13170508317044458 0.8744110964332559
vt 0.13170508317044458 1
vt 0 1
vt 0 -0.004711228533953227
vt 0.13170508317044458 -0.004711228533953227
vt 0.06585254158522229 1
vn 0 -1 0
vn 0.1305261922200504 0 0.9914448613738107
vn 0 1 0
vn 0 -1 0
vn 0.25881904510252113 0 0.9659258262890683
vn 0 1 0
vn 0 -1 0
vn 0.3826834323650907 0 0.9238795325112864
vn 0 1 0
vn 0 -1 0
vn 0.49999999999999933 0 0.8660254037844393
vn 0 1 0
vn 0 -1 0
vn 0.60876142900872 0 0.7933533402912357
vn 0 1 0
vn 0 -1 0
vn 0.7071067811865471 0 0.707106781186548
vn 0 1 0
vn 0 -1 0
vn 0.7933533402912346 0 0.6087614290087214
vn 0 1 0
vn 0 -1 0
vn 0.8660254037844386 0 0.5000000000000002
vn 0 1 0
vn 0 -1 0
vn 0.9238795325112872 0 0.38268343236508917
vn 0 1 0
vn 0 -1 0
vn 0.9659258262890685 0 0.2588190451025205
vn 0 1 0
vn 0 -1 0
vn 0.9914448613738103 0 0.13052619222005285
vn 0 1 0
vn 0 -1 0
vn 1 0 0
vn 0 1 0
vn 0 -1 0
vn 0.9914448613738103 0 -0.13052619222005313
vn 0 1 0
vn 0 -1 0
vn 0.9659258262890688 0 -0.2588190451025193
vn 0 1 0
vn 0 -1 0
vn 0.9238795325112868 0 -0.38268343236508995
vn 0 1 0
vn 0 -1 0
vn 0.8660254037844385 0 -0.5000000000000003
vn 0 1 0
vn 0 -1 0
vn 0.7933533402912349 0 -0.6087614290087212
vn 0 1 0
vn 0 -1 0
vn 0.7071067811865476 0 -0.7071067811865476
vn 0 1 0
vn 0 -1 0
vn 0.6087614290087212 0 -0.7933533402912347
vn 0 1 0
vn 0 -1 0
vn 0.49999999999999806 0 -0.8660254037844399
vn 0 1 0
vn 0 -1 0
vn 0.3826834323650911 0 -0.9238795325112863
vn 0 1 0
vn 0 -1 0
vn 0.2588190451025216 0 -0.9659258262890681
vn 0 1 0
vn 0 -1 0
vn 0.13052619222005007 0 -0.9914448613738107
vn 0 1 0
vn 0 -1 0
vn 0 0 -1
vn 0 1 0
vn 0 -1 0
vn -0.1305261922200501 0 -0.9914448613738107
vn 0 1 0
vn 0 -1 0
vn -0.25881904510252135 0 -0.9659258262890681
vn 0 1 0
vn 0 -1 0
vn -0.38268343236508967 0 -0.9238795325112868
vn 0 1 0
vn 0 -1 0
vn -0.49999999999999917 0 -0.8660254037844393
vn 0 1 0
vn 0 -1 0
vn -0.6087614290087202 0 -0.7933533402912356
vn 0 1 0
vn 0 -1 0
vn -0.707106781186548 0 -0.7071067811865472
vn 0 1 0
vn 0 -1 0
vn -0.7933533402912349 0 -0.6087614290087212
vn 0 1 0
vn 0 -1 0
vn -0.8660254037844382 0 -0.5000000000000009
vn 0 1 0
vn 0 -1 0
vn -0.9238795325112865 0 -0.3826834323650905
vn 0 1 0
vn 0 -1 0
vn -0.9659258262890684 0 -0.25881904510252013
vn 0 1 0
vn 0 -1 0
vn -0.9914448613738107 0 -0.13052619222004974
vn 0 1 0
vn 0 -1 0
vn -1 0 -3.387746014441733e-15
vn 0 1 0
vn 0 -1 0
vn -0.9914448613738105 0 0.13052619222005227
vn 0 1 0
vn 0 -1 0
vn -0.9659258262890684 0 0.25881904510252085
vn 0 1 0
vn 0 -1 0
vn -0.9238795325112872 0 0.38268343236508917
vn 0 1 0
vn 0 -1 0
vn -0.8660254037844382 0 0.5000000000000009
vn 0 1 0
vn 0 -1 0
vn -0.7933533402912349 0 0.6087614290087209
vn 0 1 0
vn 0 -1 0
vn -0.707106781186548 0 0.7071067811865471
vn 0 1 0
vn 0 -1 0
vn -0.6087614290087203 0 0.7933533402912354
vn 0 1 0
vn 0 -1 0
vn -0.49999999999999933 0 0.8660254037844393
vn 0 1 0
vn 0 -1 0
vn -0.3826834323650911 0 0.9238795325112863
vn 0 1 0
vn 0 -1 0
vn -0.2588190451025201 0 0.9659258262890686
vn 0 1 0
vn 0 -1 0
vn -0.13052619222005135 0 0.9914448613738105
vn 0 1 0
vn 0 -1 0
vn 0 0 1
vn 0 1 0
usemtl m_cfc46212-f12c-1cb6-e4fa-6e63714f6864
f 211/961/289 209/962/289 207/963/289
f 209/964/290 211/965/290 212/966/290 210/967/290
f 210/968/291 212/969/291 208/970/291
f 213/971/292 211/972/292 207/973/292
f 211/974/293 213/975/293 214/976/293 212/977/293
f 212/978/294 214/979/294 208/980/294
f 215/981/295 213/982/295 207/983/295
f 213/984/296 215/985/296 216/986/296 214/987/296
f 214/988/297 216/989/297 208/990/297
f 217/991/298 215/992/298 207/993/298
f 215/994/299 217/995/299 218/996/299 216/997/299
f 216/998/300 218/999/300 208/1000/300
f 219/1001/301 217/1002/301 207/1003/301
f 217/1004/302 219/1005/302 220/1006/302 218/1007/302
f 218/1008/303 220/1009/303 208/1010/303
f 221/1011/304 219/1012/304 207/1013/304
f 219/1014/305 221/1015/305 222/1016/305 220/1017/305
f 220/1018/306 222/1019/306 208/1020/306
f 223/1021/307 221/1022/307 207/1023/307
f 221/1024/308 223/1025/308 224/1026/308 222/1027/308
f 222/1028/309 224/1029/309 208/1030/309
f 225/1031/310 223/1032/310 207/1033/310
f 223/1034/311 225/1035/311 226/1036/311 224/1037/311
f 224/1038/312 226/1039/312 208/1040/312
f 227/1041/313 225/1042/313 207/1043/313
f 225/1044/314 227/1045/314 228/1046/314 226/1047/314
f 226/1048/315 228/1049/315 208/1050/315
f 229/1051/316 227/1052/316 207/1053/316
f 227/1054/317 229/1055/317 230/1056/317 228/1057/317
f 228/1058/318 230/1059/318 208/1060/318
f 231/1061/319 229/1062/319 207/1063/319
f 229/1064/320 231/1065/320 232/1066/320 230/1067/320
f 230/1068/321 232/1069/321 208/1070/321
f 233/1071/322 231/1072/322 207/1073/322
f 231/1074/323 233/1075/323 234/1076/323 232/1077/323
f 232/1078/324 234/1079/324 208/1080/324
f 235/1081/325 233/1082/325 207/1083/325
f 233/1084/326 235/1085/326 236/1086/326 234/1087/326
f 234/1088/327 236/1089/327 208/1090/327
f 237/1091/328 235/1092/328 207/1093/328
f 235/1094/329 237/1095/329 238/1096/329 236/1097/329
f 236/1098/330 238/1099/330 208/1100/330
f 239/1101/331 237/1102/331 207/1103/331
f 237/1104/332 239/1105/332 240/1106/332 238/1107/332
f 238/1108/333 240/1109/333 208/1110/333
f 241/1111/334 239/1112/334 207/1113/334
f 239/1114/335 241/1115/335 242/1116/335 240/1117/335
f 240/1118/336 242/1119/336 208/1120/336
f 243/1121/337 241/1122/337 207/1123/337
f 241/1124/338 243/1125/338 244/1126/338 242/1127/338
f 242/1128/339 244/1129/339 208/1130/339
f 245/1131/340 243/1132/340 207/1133/340
f 243/1134/341 245/1135/341 246/1136/341 244/1137/341
f 244/1138/342 246/1139/342 208/1140/342
f 247/1141/343 245/1142/343 207/1143/343
f 245/1144/344 247/1145/344 248/1146/344 246/1147/344
f 246/1148/345 248/1149/345 208/1150/345
f 249/1151/346 247/1152/346 207/1153/346
f 247/1154/347 249/1155/347 250/1156/347 248/1157/347
f 248/1158/348 250/1159/348 208/1160/348
f 251/1161/349 249/1162/349 207/1163/349
f 249/1164/350 251/1165/350 252/1166/350 250/1167/350
f 250/1168/351 252/1169/351 208/1170/351
f 253/1171/352 251/1172/352 207/1173/352
f 251/1174/353 253/1175/353 254/1176/353 252/1177/353
f 252/1178/354 254/1179/354 208/1180/354
f 255/1181/355 253/1182/355 207/1183/355
f 253/1184/356 255/1185/356 256/1186/356 254/1187/356
f 254/1188/357 256/1189/357 208/1190/357
f 257/1191/358 255/1192/358 207/1193/358
f 255/1194/359 257/1195/359 258/1196/359 256/1197/359
f 256/1198/360 258/1199/360 208/1200/360
f 259/1201/361 257/1202/361 207/1203/361
f 257/1204/362 259/1205/362 260/1206/362 258/1207/362
f 258/1208/363 260/1209/363 208/1210/363
f 261/1211/364 259/1212/364 207/1213/364
f 259/1214/365 261/1215/365 262/1216/365 260/1217/365
f 260/1218/366 262/1219/366 208/1220/366
f 263/1221/367 261/1222/367 207/1223/367
f 261/1224/368 263/1225/368 264/1226/368 262/1227/368
f 262/1228/369 264/1229/369 208/1230/369
f 265/1231/370 263/1232/370 207/1233/370
f 263/1234/371 265/1235/371 266/1236/371 264/1237/371
f 264/1238/372 266/1239/372 208/1240/372
f 267/1241/373 265/1242/373 207/1243/373
f 265/1244/374 267/1245/374 268/1246/374 266/1247/374
f 266/1248/375 268/1249/375 208/1250/375
f 269/1251/376 267/1252/376 207/1253/376
f 267/1254/377 269/1255/377 270/1256/377 268/1257/377
f 268/1258/378 270/1259/378 208/1260/378
f 271/1261/379 269/1262/379 207/1263/379
f 269/1264/380 271/1265/380 272/1266/380 270/1267/380
f 270/1268/381 272/1269/381 208/1270/381
f 273/1271/382 271/1272/382 207/1273/382
f 271/1274/383 273/1275/383 274/1276/383 272/1277/383
f 272/1278/384 274/1279/384 208/1280/384
f 275/1281/385 273/1282/385 207/1283/385
f 273/1284/386 275/1285/386 276/1286/386 274/1287/386
f 274/1288/387 276/1289/387 208/1290/387
f 277/1291/388 275/1292/388 207/1293/388
f 275/1294/389 277/1295/389 278/1296/389 276/1297/389
f 276/1298/390 278/1299/390 208/1300/390
f 279/1301/391 277/1302/391 207/1303/391
f 277/1304/392 279/1305/392 280/1306/392 278/1307/392
f 278/1308/393 280/1309/393 208/1310/393
f 281/1311/394 279/1312/394 207/1313/394
f 279/1314/395 281/1315/395 282/1316/395 280/1317/395
f 280/1318/396 282/1319/396 208/1320/396
f 283/1321/397 281/1322/397 207/1323/397
f 281/1324/398 283/1325/398 284/1326/398 282/1327/398
f 282/1328/399 284/1329/399 208/1330/399
f 285/1331/400 283/1332/400 207/1333/400
f 283/1334/401 285/1335/401 286/1336/401 284/1337/401
f 284/1338/402 286/1339/402 208/1340/402
f 287/1341/403 285/1342/403 207/1343/403
f 285/1344/404 287/1345/404 288/1346/404 286/1347/404
f 286/1348/405 288/1349/405 208/1350/405
f 289/1351/406 287/1352/406 207/1353/406
f 287/1354/407 289/1355/407 290/1356/407 288/1357/407
f 288/1358/408 290/1359/408 208/1360/408
f 291/1361/409 289/1362/409 207/1363/409
f 289/1364/410 291/1365/410 292/1366/410 290/1367/410
f 290/1368/411 292/1369/411 208/1370/411
f 293/1371/412 291/1372/412 207/1373/412
f 291/1374/413 293/1375/413 294/1376/413 292/1377/413
f 292/1378/414 294/1379/414 208/1380/414
f 295/1381/415 293/1382/415 207/1383/415
f 293/1384/416 295/1385/416 296/1386/416 294/1387/416
f 294/1388/417 296/1389/417 208/1390/417
f 297/1391/418 295/1392/418 207/1393/418
f 295/1394/419 297/1395/419 298/1396/419 296/1397/419
f 296/1398/420 298/1399/420 208/1400/420
f 299/1401/421 297/1402/421 207/1403/421
f 297/1404/422 299/1405/422 300/1406/422 298/1407/422
f 298/1408/423 300/1409/423 208/1410/423
f 301/1411/424 299/1412/424 207/1413/424
f 299/1414/425 301/1415/425 302/1416/425 300/1417/425
f 300/1418/426 302/1419/426 208/1420/426
f 303/1421/427 301/1422/427 207/1423/427
f 301/1424/428 303/1425/428 304/1426/428 302/1427/428
f 302/1428/429 304/1429/429 208/1430/429
f 209/1431/430 303/1432/430 207/1433/430
f 303/1434/431 209/1435/431 210/1436/431 304/1437/431
f 304/1438/432 210/1439/432 208/1440/432
o cone
v -4.5102810375396984e-17 1.1875 0
v -4.5102810375396984e-17 1.59375 0
v 0.012289399277857122 1.1875 0.1874999999999999
v 0.036657922804662124 1.1875 0.18429182301517882
v 0.060399219108783056 1.1875 0.1779303618432216
v 0.08310706802812551 1.1875 0.16852446284851072
v 0.10439293197187437 1.1875 0.1562350635706536
v 0.12389260390639573 1.1875 0.14127243903855946
v 0.14127243903855946 1.1875 0.12389260390639575
v 0.15623506357065362 1.1875 0.1043929319718744
v 0.1685244628485108 1.1875 0.08310706802812551
v 0.17793036184322164 1.1875 0.0603992191087831
v 0.18429182301517882 1.1875 0.03665792280466217
v 0.18749999999999994 1.1875 0.012289399277857159
v 0.18749999999999994 1.1875 -0.012289399277857176
v 0.18429182301517882 1.1875 -0.036657922804662145
v 0.17793036184322167 1.1875 -0.060399219108783035
v 0.1685244628485108 1.1875 -0.0831070680281255
v 0.15623506357065364 1.1875 -0.10439293197187434
v 0.14127243903855946 1.1875 -0.12389260390639573
v 0.12389260390639577 1.1875 -0.14127243903855943
v 0.10439293197187437 1.1875 -0.15623506357065362
v 0.08310706802812551 1.1875 -0.16852446284851072
v 0.060399219108783084 1.1875 -0.1779303618432216
v 0.036657922804662194 1.1875 -0.18429182301517882
v 0.012289399277857133 1.1875 -0.1874999999999999
v -0.012289399277857174 1.1875 -0.1874999999999999
v -0.036657922804662235 1.1875 -0.18429182301517882
v -0.06039921910878314 1.1875 -0.1779303618432216
v -0.08310706802812556 1.1875 -0.16852446284851075
v -0.10439293197187444 1.1875 -0.15623506357065362
v -0.12389260390639584 1.1875 -0.14127243903855946
v -0.14127243903855952 1.1875 -0.12389260390639577
v -0.1562350635706537 1.1875 -0.10439293197187438
v -0.16852446284851086 1.1875 -0.08310706802812554
v -0.17793036184322175 1.1875 -0.06039921910878312
v -0.1842918230151789 1.1875 -0.036657922804662235
v -0.1875 1.1875 -0.012289399277857098
v -0.18750000000000006 1.1875 0.01228939927785703
v -0.18429182301517893 1.1875 0.036657922804662166
v -0.17793036184322175 1.1875 0.060399219108783056
v -0.16852446284851091 1.1875 0.08310706802812547
v -0.15623506357065373 1.1875 0.10439293197187431
v -0.14127243903855952 1.1875 0.12389260390639577
v -0.12389260390639592 1.1875 0.14127243903855938
v -0.10439293197187448 1.1875 0.1562350635706536
v -0.08310706802812562 1.1875 0.16852446284851072
v -0.060399219108783195 1.1875 0.1779303618432216
v -0.036657922804662305 1.1875 0.1842918230151788
v -0.012289399277857162 1.1875 0.1874999999999999
vt 0.015658483899427835 0.9979561904868632
vt 0.015524570579847777 1
vt 0 0.9979561904868632
vt 0 0.98425341796875
vt 0.0020482421875 0.98425341796875
vt 0.00102412109375 1
vt 0.015658544996406763 0.9979560961530279
vt 0.015524515293334403 1
vt 0 0.9979560961530279
vt 0 0.98425341796875
vt 0.0020482421875 0.98425341796875
vt 0.00102412109375 1
vt 0.015658564897211933 0.9979561997933795
vt 0.015524590562070013 1
vt 0 0.9979561997933795
vt 0 0.98425341796875
vt 0.0020482421875 0.98425341796875
vt 0.00102412109375 1
vt 0.015658561296852384 0.9979561444522956
vt 0.015524603348888364 1
vt 0 0.9979561444522956
vt 0 0.98425341796875
vt 0.0020482421875 0.98425341796875
vt 0.00102412109375 1
vt 0.01565851081407845 0.9979560745709474
vt 0.015524590517232827 1
vt 0 0.9979560745709474
vt 0 0.98425341796875
vt 0.0020482421875 0.98425341796875
vt 0.00102412109375 1
vt 0.01565851081407845 0.9979562609863293
vt 0.015524564140696907 1
vt 0 0.9979562609863293
vt 0 0.98425341796875
vt 0.0020482421875 0.98425341796875
vt 0.00102412109375 1
vt 0.01565856129685238 0.9979560811605072
vt 0.01552454046637703 1
vt 0 0.9979560811605072
vt 0 0.98425341796875
vt 0.0020482421875 0.98425341796875
vt 0.00102412109375 1
vt 0.015658564897211933 0.9979561449222375
vt 0.015524599779330468 1
vt 0 0.9979561449222375
vt 0 0.98425341796875
vt 0.0020482421875 0.98425341796875
vt 0.00102412109375 1
vt 0.015658544996406763 0.9979561971958668
vt 0.01552461029262941 1
vt 0 0.9979561971958668
vt 0 0.98425341796875
vt 0.0020482421875 0.98425341796875
vt 0.00102412109375 1
vt 0.01565848389942784 0.9979560881780317
vt 0.015524575867588581 1
vt 0 0.9979560881780317
vt 0 0.98425341796875
vt 0.0020482421875 0.98425341796875
vt 0.00102412109375 1
vt 0.015658526399845666 0.997956196034177
vt 0.015524528443013224 1
vt 0 0.997956196034177
vt 0 0.98425341796875
vt 0.0020482421875 0.98425341796875
vt 0.00102412109375 1
vt 0.015625 0.9979517578125
vt 0.015625 1
vt 0 0.99897587890625
vt 0 0.98425341796875
vt 0.0020482421875 0.98425341796875
vt 0.00102412109375 1
vt 4.336808689942018e-19 0.9843415161005722
vt 0.002043809513136796 0.9844754294201522
vt 0 1
vt 0 0.98425341796875
vt 0.0020482421875 0.98425341796875
vt 0.00102412109375 1
vt 0 0.9843414550035933
vt 0.002043903846972012 0.9844754847066656
vt 1.734723475976807e-18 1
vt 0 0.98425341796875
vt 0.0020482421875 0.98425341796875
vt 0.00102412109375 1
vt 0 0.984341435102788
vt 0.0020438002066204995 0.98447540943793
vt 8.673617379884035e-18 1
vt 0 0.98425341796875
vt 0.0020482421875 0.98425341796875
vt 0.00102412109375 1
vt 8.673617379884035e-18 0.9843414387031476
vt 0.002043855547704392 0.9844753966511116
vt 0 1
vt 0 0.98425341796875
vt 0.0020482421875 0.98425341796875
vt 0.00102412109375 1
vt 2.6020852139652106e-18 0.9843414891859216
vt 0.0020439254290526288 0.9844754094827671
vt 0 1
vt 0 0.98425341796875
vt 0.0020482421875 0.98425341796875
vt 0.00102412109375 1
vt 0 0.9843414891859216
vt 0.002043739013670676 0.9844754358593031
vt 2.6020852139652106e-18 1
vt 0 0.98425341796875
vt 0.0020482421875 0.98425341796875
vt 0.00102412109375 1
vt 0 0.9843414387031476
vt 0.00204391883949287 0.9844754595336229
vt 5.204170427930421e-18 1
vt 0 0.98425341796875
vt 0.0020482421875 0.98425341796875
vt 0.00102412109375 1
vt 0 0.984341435102788
vt 0.00204385507776254 0.9844754002206695
vt 6.071532165918825e-18 1
vt 0 0.98425341796875
vt 0.0020482421875 0.98425341796875
vt 0.00102412109375 1
vt 3.469446951953614e-18 0.9843414550035933
vt 0.0020438028041332174 0.9844753897073706
vt 0 1
vt 0 0.98425341796875
vt 0.0020482421875 0.98425341796875
vt 0.00102412109375 1
vt 2.6020852139652106e-18 0.9843415161005722
vt 0.002043911821968257 0.9844754241324114
vt 0 1
vt 0 0.98425341796875
vt 0.0020482421875 0.98425341796875
vt 0.00102412109375 1
vt 0 0.9843414736001543
vt 0.002043803965823079 0.9844754715569868
vt 6.071532165918825e-18 1
vt 0 0.98425341796875
vt 0.0020482421875 0.98425341796875
vt 0.00102412109375 1
vt 0 0.984375
vt 0.0020482421875 0.984375
vt 0.00102412109375 1
vt 0 0.98425341796875
vt 0.0020482421875 0.98425341796875
vt 0.00102412109375 1
vt 0 1
vt 0.00013391331958005452 0.9979561904868632
vt 0.015658483899427835 1
vt 0 0.98425341796875
vt 0.0020482421875 0.98425341796875
vt 0.00102412109375 1
vt 0 1
vt 0.0001340297030723598 0.9979560961530279
vt 0.015658544996406763 1
vt 0 0.98425341796875
vt 0.0020482421875 0.98425341796875
vt 0.00102412109375 1
vt 0 1
vt 0.00013397433514192314 0.9979561997933795
vt 0.015658564897211933 1
vt 0 0.98425341796875
vt 0.0020482421875 0.98425341796875
vt 0.00102412109375 1
vt 0 1
vt 0.00013395794796401857 0.9979561444522956
vt 0.01565856129685238 1
vt 0 0.98425341796875
vt 0.0020482421875 0.98425341796875
vt 0.00102412109375 1
vt 0 1
vt 0.00013392029684562365 0.9979560745709474
vt 0.01565851081407845 1
vt 0 0.98425341796875
vt 0.0020482421875 0.98425341796875
vt 0.00102412109375 1
vt 0 1
vt 0.00013394667338154434 0.9979562609863293
vt 0.01565851081407845 1
vt 0 0.98425341796875
vt 0.0020482421875 0.98425341796875
vt 0.00102412109375 1
vt 0 1
vt 0.00013402083047535027 0.9979560811605072
vt 0.01565856129685238 1
vt 0 0.98425341796875
vt 0.0020482421875 0.98425341796875
vt 0.00102412109375 1
vt 0 1
vt 0.00013396511788146478 0.9979561449222375
vt 0.015658564897211933 1
vt 0 0.98425341796875
vt 0.0020482421875 0.98425341796875
vt 0.00102412109375 1
vt 0 1
vt 0.00013393470377735285 0.9979561971958668
vt 0.015658544996406763 1
vt 0 0.98425341796875
vt 0.0020482421875 0.98425341796875
vt 0.00102412109375 1
vt 0 1
vt 0.00013390803183925722 0.9979560881780317
vt 0.015658483899427835 1
vt 0 0.98425341796875
vt 0.0020482421875 0.98425341796875
vt 0.00102412109375 1
vt 0 1
vt 0.00013399795683244169 0.997956196034177
vt 0.015658526399845666 1
vt 0 0.98425341796875
vt 0.0020482421875 0.98425341796875
vt 0.00102412109375 1
vt 0 1
vt 0 0.9979517578125
vt 0.015625 0.99897587890625
vt 0 0.98425341796875
vt 0.0020482421875 0.98425341796875
vt 0.00102412109375 1
vt 0.002043809513136795 1
vt 0 0.99986608668042
vt 0.0020438095131368097 0.9843415161005722
vt 0 0.98425341796875
vt 0.0020482421875 0.98425341796875
vt 0.00102412109375 1
vt 0.0020439038469720117 1
vt 0 0.9998659702969276
vt 0.0020439038469720204 0.9843414550035933
vt 0 0.98425341796875
vt 0.0020482421875 0.98425341796875
vt 0.00102412109375 1
vt 0.0020438002066204995 1
vt 0 0.999866025664858
vt 0.002043800206620508 0.984341435102788
vt 0 0.98425341796875
vt 0.0020482421875 0.98425341796875
vt 0.00102412109375 1
vt 0.0020438555477043834 1
vt 0 0.999866042052036
vt 0.002043855547704392 0.9843414387031476
vt 0 0.98425341796875
vt 0.0020482421875 0.98425341796875
vt 0.00102412109375 1
vt 0.002043925429052626 1
vt 0 0.9998660797031543
vt 0.0020439254290526288 0.9843414891859216
vt 0 0.98425341796875
vt 0.0020482421875 0.98425341796875
vt 0.00102412109375 1
vt 0.002043739013670676 1
vt 0 0.9998660533266185
vt 0.0020437390136706732 0.9843414891859216
vt 0 0.98425341796875
vt 0.0020482421875 0.98425341796875
vt 0.00102412109375 1
vt 0.00204391883949287 1
vt 0 0.9998659791695247
vt 0.0020439188394928715 0.9843414387031476
vt 0 0.98425341796875
vt 0.0020482421875 0.98425341796875
vt 0.00102412109375 1
vt 0.0020438550777625393 1
vt 0 0.9998660348821186
vt 0.002043855077762541 0.984341435102788
vt 0 0.98425341796875
vt 0.0020482421875 0.98425341796875
vt 0.00102412109375 1
vt 0.002043802804133215 1
vt 0 0.9998660652962227
vt 0.0020438028041332096 0.9843414550035933
vt 0 0.98425341796875
vt 0.0020482421875 0.98425341796875
vt 0.00102412109375 1
vt 0.0020439118219682546 1
vt 0 0.9998660919681608
vt 0.002043911821968257 0.9843415161005722
vt 0 0.98425341796875
vt 0.0020482421875 0.98425341796875
vt 0.00102412109375 1
vt 0.002043803965823079 1
vt 0 0.9998660020431676
vt 0.0020438039658230802 0.9843414736001543
vt 0 0.98425341796875
vt 0.0020482421875 0.98425341796875
vt 0.00102412109375 1
vt 0.0020482421875 1
vt 0 1
vt 0.00102412109375 0.984375
vt 0 0.98425341796875
vt 0.0020482421875 0.98425341796875
vt 0.00102412109375 1
vn 0 -1 0
vn 0.11851248114930461 0.41905817746174673 0.9001916660991007
vn 0 -1 0
vn 0.23499718088827978 0.41905817746174684 0.8770214187105128
vn 0 -1 0
vn 0.3474610137087278 0.41905817746174673 0.8388450916915129
vn 0 -1 0
vn 0.4539796922502254 0.41905817746174684 0.7863158925818746
vn 0 -1 0
vn 0.5527306523903731 0.4190581774617468 0.7203326105422075
vn 0 -1 0
vn 0.6420242378222328 0.41905817746174695 0.6420242378222338
vn 0 -1 0
vn 0.7203326105422071 0.4190581774617469 0.5527306523903738
vn 0 -1 0
vn 0.7863158925818737 0.4190581774617469 0.4539796922502264
vn 0 -1 0
vn 0.8388450916915132 0.41905817746174695 0.34746101370872656
vn 0 -1 0
vn 0.877021418710513 0.41905817746174695 0.23499718088827887
vn 0 -1 0
vn 0.9001916660991004 0.41905817746174695 0.11851248114930658
vn 0 -1 0
vn 0.9079593845004517 0.41905817746174695 0
vn 0 -1 0
vn 0.9001916660991004 0.4190581774617469 -0.11851248114930678
vn 0 -1 0
vn 0.8770214187105131 0.41905817746174684 -0.23499718088827817
vn 0 -1 0
vn 0.8388450916915132 0.419058177461747 -0.3474610137087268
vn 0 -1 0
vn 0.7863158925818738 0.41905817746174684 -0.4539796922502262
vn 0 -1 0
vn 0.720332610542207 0.4190581774617469 -0.5527306523903739
vn 0 -1 0
vn 0.6420242378222335 0.4190581774617469 -0.6420242378222331
vn 0 -1 0
vn 0.5527306523903737 0.41905817746174684 -0.7203326105422072
vn 0 -1 0
vn 0.45397969225022455 0.4190581774617469 -0.786315892581875
vn 0 -1 0
vn 0.3474610137087282 0.4190581774617468 -0.8388450916915127
vn 0 -1 0
vn 0.2349971808882801 0.41905817746174673 -0.8770214187105125
vn 0 -1 0
vn 0.11851248114930436 0.4190581774617469 -0.900191666099101
vn 0 -1 0
vn 0 0.4190581774617468 -0.9079593845004519
vn 0 -1 0
vn -0.11851248114930432 0.4190581774617467 -0.9001916660991007
vn 0 -1 0
vn -0.23499718088827998 0.41905817746174673 -0.8770214187105125
vn 0 -1 0
vn -0.3474610137087273 0.41905817746174673 -0.8388450916915131
vn 0 -1 0
vn -0.45397969225022505 0.4190581774617468 -0.7863158925818745
vn 0 -1 0
vn -0.552730652390373 0.41905817746174684 -0.7203326105422077
vn 0 -1 0
vn -0.6420242378222335 0.41905817746174684 -0.6420242378222331
vn 0 -1 0
vn -0.720332610542207 0.4190581774617468 -0.5527306523903739
vn 0 -1 0
vn -0.7863158925818738 0.41905817746174684 -0.4539796922502262
vn 0 -1 0
vn -0.8388450916915126 0.4190581774617469 -0.3474610137087282
vn 0 -1 0
vn -0.877021418710513 0.4190581774617469 -0.23499718088827826
vn 0 -1 0
vn -0.9001916660991008 0.4190581774617469 -0.11851248114930499
vn 0 -1 0
vn -0.9079593845004517 0.4190581774617469 -2.0506238574109158e-15
vn 0 -1 0
vn -0.9001916660991005 0.4190581774617469 0.11851248114930597
vn 0 -1 0
vn -0.8770214187105128 0.4190581774617469 0.23499718088827914
vn 0 -1 0
vn -0.8388450916915132 0.41905817746174695 0.34746101370872656
vn 0 -1 0
vn -0.7863158925818734 0.41905817746174684 0.45397969225022705
vn 0 -1 0
vn -0.7203326105422074 0.4190581774617468 0.5527306523903733
vn 0 -1 0
vn -0.6420242378222335 0.41905817746174684 0.642024237822233
vn 0 -1 0
vn -0.5527306523903736 0.41905817746174684 0.7203326105422073
vn 0 -1 0
vn -0.4539796922502254 0.41905817746174684 0.7863158925818746
vn 0 -1 0
vn -0.3474610137087282 0.4190581774617468 0.8388450916915127
vn 0 -1 0
vn -0.23499718088827914 0.41905817746174673 0.8770214187105128
vn 0 -1 0
vn -0.11851248114930496 0.41905817746174673 0.9001916660991007
vn 0 -1 0
vn 0 0.4190581774617467 0.9079593845004518
usemtl m_cfc46212-f12c-1cb6-e4fa-6e63714f6864
f 308/1441/433 307/1442/433 305/1443/433
f 307/1444/434 308/1445/434 306/1446/434
f 309/1447/435 308/1448/435 305/1449/435
f 308/1450/436 309/1451/436 306/1452/436
f 310/1453/437 309/1454/437 305/1455/437
f 309/1456/438 310/1457/438 306/1458/438
f 311/1459/439 310/1460/439 305/1461/439
f 310/1462/440 311/1463/440 306/1464/440
f 312/1465/441 311/1466/441 305/1467/441
f 311/1468/442 312/1469/442 306/1470/442
f 313/1471/443 312/1472/443 305/1473/443
f 312/1474/444 313/1475/444 306/1476/444
f 314/1477/445 313/1478/445 305/1479/445
f 313/1480/446 314/1481/446 306/1482/446
f 315/1483/447 314/1484/447 305/1485/447
f 314/1486/448 315/1487/448 306/1488/448
f 316/1489/449 315/1490/449 305/1491/449
f 315/1492/450 316/1493/450 306/1494/450
f 317/1495/451 316/1496/451 305/1497/451
f 316/1498/452 317/1499/452 306/1500/452
f 318/1501/453 317/1502/453 305/1503/453
f 317/1504/454 318/1505/454 306/1506/454
f 319/1507/455 318/1508/455 305/1509/455
f 318/1510/456 319/1511/456 306/1512/456
f 320/1513/457 319/1514/457 305/1515/457
f 319/1516/458 320/1517/458 306/1518/458
f 321/1519/459 320/1520/459 305/1521/459
f 320/1522/460 321/1523/460 306/1524/460
f 322/1525/461 321/1526/461 305/1527/461
f 321/1528/462 322/1529/462 306/1530/462
f 323/1531/463 322/1532/463 305/1533/463
f 322/1534/464 323/1535/464 306/1536/464
f 324/1537/465 323/1538/465 305/1539/465
f 323/1540/466 324/1541/466 306/1542/466
f 325/1543/467 324/1544/467 305/1545/467
f 324/1546/468 325/1547/468 306/1548/468
f 326/1549/469 325/1550/469 305/1551/469
f 325/1552/470 326/1553/470 306/1554/470
f 327/1555/471 326/1556/471 305/1557/471
f 326/1558/472 327/1559/472 306/1560/472
f 328/1561/473 327/1562/473 305/1563/473
f 327/1564/474 328/1565/474 306/1566/474
f 329/1567/475 328/1568/475 305/1569/475
f 328/1570/476 329/1571/476 306/1572/476
f 330/1573/477 329/1574/477 305/1575/477
f 329/1576/478 330/1577/478 306/1578/478
f 331/1579/479 330/1580/479 305/1581/479
f 330/1582/480 331/1583/480 306/1584/480
f 332/1585/481 331/1586/481 305/1587/481
f 331/1588/482 332/1589/482 306/1590/482
f 333/1591/483 332/1592/483 305/1593/483
f 332/1594/484 333/1595/484 306/1596/484
f 334/1597/485 333/1598/485 305/1599/485
f 333/1600/486 334/1601/486 306/1602/486
f 335/1603/487 334/1604/487 305/1605/487
f 334/1606/488 335/1607/488 306/1608/488
f 336/1609/489 335/1610/489 305/1611/489
f 335/1612/490 336/1613/490 306/1614/490
f 337/1615/491 336/1616/491 305/1617/491
f 336/1618/492 337/1619/492 306/1620/492
f 338/1621/493 337/1622/493 305/1623/493
f 337/1624/494 338/1625/494 306/1626/494
f 339/1627/495 338/1628/495 305/1629/495
f 338/1630/496 339/1631/496 306/1632/496
f 340/1633/497 339/1634/497 305/1635/497
f 339/1636/498 340/1637/498 306/1638/498
f 341/1639/499 340/1640/499 305/1641/499
f 340/1642/500 341/1643/500 306/1644/500
f 342/1645/501 341/1646/501 305/1647/501
f 341/1648/502 342/1649/502 306/1650/502
f 343/1651/503 342/1652/503 305/1653/503
f 342/1654/504 343/1655/504 306/1656/504
f 344/1657/505 343/1658/505 305/1659/505
f 343/1660/506 344/1661/506 306/1662/506
f 345/1663/507 344/1664/507 305/1665/507
f 344/1666/508 345/1667/508 306/1668/508
f 346/1669/509 345/1670/509 305/1671/509
f 345/1672/510 346/1673/510 306/1674/510
f 347/1675/511 346/1676/511 305/1677/511
f 346/1678/512 347/1679/512 306/1680/512
f 348/1681/513 347/1682/513 305/1683/513
f 347/1684/514 348/1685/514 306/1686/514
f 349/1687/515 348/1688/515 305/1689/515
f 348/1690/516 349/1691/516 306/1692/516
f 350/1693/517 349/1694/517 305/1695/517
f 349/1696/518 350/1697/518 306/1698/518
f 351/1699/519 350/1700/519 305/1701/519
f 350/1702/520 351/1703/520 306/1704/520
f 352/1705/521 351/1706/521 305/1707/521
f 351/1708/522 352/1709/522 306/1710/522
f 353/1711/523 352/1712/523 305/1713/523
f 352/1714/524 353/1715/524 306/1716/524
f 354/1717/525 353/1718/525 305/1719/525
f 353/1720/526 354/1721/526 306/1722/526
f 307/1723/527 354/1724/527 305/1725/527
f 354/1726/528 307/1727/528 306/1728/528
o cube
v 0.125 5.625 -0.25
v -0.125 5.625 -0.25
v -0.125 5.6875 -0.25
v 0.125 5.6875 -0.25
v 0.125 5.625 0
v 0.125 5.6875 0
v -0.125 5.625 0
v -0.125 5.6875 0
vt 0 0.9999847412109375
vt 0.000091552734375 0.9999847412109375
vt 0.000091552734375 1
vt 0 1
vt 0 0.9999847412109375
vt 0.0001068115234375 0.9999847412109375
vt 0.0001068115234375 1
vt 0 1
vt 0 0.9999847412109375
vt 0.000091552734375 0.9999847412109375
vt 0.000091552734375 1
vt 0 1
vt 0 0.9999847412109375
vt 0.0001068115234375 0.9999847412109375
vt 0.0001068115234375 1
vt 0 1
vt 0 0.9998931884765625
vt 0.000091552734375 0.9998931884765625
vt 0.000091552734375 1
vt 0 1
vt 0 0.9998931884765625
vt 0.000091552734375 0.9998931884765625
vt 0.000091552734375 1
vt 0 1
vn 0 0 -1
vn 1 0 0
vn 0 0 1
vn -1 0 0
vn 0 1 0
vn 0 -1 0
usemtl m_cfc46212-f12c-1cb6-e4fa-6e63714f6864
f 355/1729/529 356/1730/529 357/1731/529 358/1732/529
f 359/1733/530 355/1734/530 358/1735/530 360/1736/530
f 361/1737/531 359/1738/531 360/1739/531 362/1740/531
f 356/1741/532 361/1742/532 362/1743/532 357/1744/532
f 362/1745/533 360/1746/533 358/1747/533 357/1748/533
f 356/1749/534 355/1750/534 359/1751/534 361/1752/534