# Made in Blockbench 4.10.3
mtllib british_road_bus_stop.mtl

o cube
v 2.5 -0.499375 -6.875
v -2.5 -0.499375 -6.875
v -2.5 0.04749999999999999 -6.875
v 2.5 0.04749999999999999 -6.875
v 2.5 -0.499375 6.625
v 2.5 0.04749999999999999 6.625
v -2.5 -0.499375 6.625
v -2.5 0.04749999999999999 6.625
vt 0 0.95
vt 1 0.95
vt 1 1
vt 0 1
vt 0.10714285714285712 0.67
vt 0.24107142857142852 0.67
vt 0.24107142857142852 0.72
vt 0.10714285714285712 0.72
vt 0 0.95
vt 1 0.95
vt 1 1
vt 0 1
vt 0.08214285714285714 0.95
vt 0.21607142857142853 0.95
vt 0.21607142857142853 1
vt 0.08214285714285714 1
vt 0 0
vt 1 0
vt 1 1
vt 0 1
vt 4.003509768914532 1
vt 7.710987789268761 0.9073651874628655
vt 7.503656344134513 -2.9032334531782964
vt 1.0463250490617817 -2.617590773211816
vn 0 0 -1
vn 1 0 0
vn 0 0 1
vn -1 0 0
vn 0 1 0
vn 0 -1 0
usemtl m_75600cc4-8a9a-a762-6a5d-df047c88a630
f 1/1/1 2/2/1 3/3/1 4/4/1
f 5/5/2 1/6/2 4/7/2 6/8/2
f 7/9/3 5/10/3 6/11/3 8/12/3
f 2/13/4 7/14/4 8/15/4 3/16/4
f 8/17/5 6/18/5 4/19/5 3/20/5
f 2/21/6 1/22/6 5/23/6 7/24/6